<?xml version="1.0" encoding="UTF-8"?>
<svg xmlns="http://www.w3.org/2000/svg" width="701" height="525" viewBox="0 0 701 525" fill="none">
  <rect width="700.356" height="523.561" transform="translate(0.322021 0.469727)" fill="white"></rect>
  <mask id="path-1-inside-1_90_48" fill="white">
    <path d="M96.5618 264.923H572.825V348.002H96.5618V264.923Z"></path>
  </mask>
  <path d="M96.5618 265.746H572.825V264.101H96.5618V265.746Z" fill="#EAEAEA" mask="url(#path-1-inside-1_90_48)"></path>
  <mask id="path-3-inside-2_90_48" fill="white">
    <path d="M96.5618 346.357H572.825V429.436H96.5618V346.357Z"></path>
  </mask>
  <path d="M96.5618 347.179H572.825V345.534H96.5618V347.179Z" fill="#EAEAEA" mask="url(#path-3-inside-2_90_48)"></path>
  <mask id="path-5-inside-3_90_48" fill="white">
    <path d="M96.5618 182.667H572.825V265.746H96.5618V182.667Z"></path>
  </mask>
  <path d="M96.5618 183.49H572.825V181.845H96.5618V183.49Z" fill="#EAEAEA" mask="url(#path-5-inside-3_90_48)"></path>
  <mask id="path-7-inside-4_90_48" fill="white">
    <path d="M96.5618 101.234H572.825V184.312H96.5618V101.234Z"></path>
  </mask>
  <path d="M96.5618 102.056H572.825V100.411H96.5618V102.056Z" fill="#EAEAEA" mask="url(#path-7-inside-4_90_48)"></path>
  <path d="M573.407 430.429C573.728 430.107 573.728 429.586 573.407 429.265L568.172 424.031C567.851 423.709 567.33 423.709 567.009 424.031C566.687 424.352 566.687 424.873 567.009 425.194L571.662 429.847L567.009 434.5C566.687 434.821 566.687 435.342 567.009 435.663C567.33 435.985 567.851 435.985 568.172 435.663L573.407 430.429ZM96.5618 429.847H95.7392V430.669H96.5618V429.847ZM97.1434 85.4345C96.8222 85.1132 96.3014 85.1132 95.9801 85.4345L90.7454 90.6692C90.4241 90.9905 90.4241 91.5113 90.7454 91.8325C91.0666 92.1537 91.5874 92.1537 91.9087 91.8325L96.5618 87.1794L101.215 91.8325C101.536 92.1537 102.057 92.1537 102.378 91.8325C102.699 91.5113 102.699 90.9905 102.378 90.6692L97.1434 85.4345ZM572.825 429.024H96.5618V430.669H572.825V429.024ZM97.3843 429.847V86.0161H95.7392V429.847H97.3843Z" fill="#EAEAEA"></path>
  <path d="M120.872 453.132V453.986H114.956V453.373L118.622 447.7H119.471L118.561 449.342L116.137 453.132H120.872ZM119.73 447.7V455.887H118.69V447.7H119.73Z" fill="#707070"></path>
  <path d="M72.3403 430.922V431.777H66.425V431.164L70.0912 425.491H70.9402L70.0293 427.133L67.6058 430.922H72.3403ZM71.1989 425.491V433.678H70.1586V425.491H71.1989ZM74.6008 429.781L73.7686 429.567L74.1791 425.491H78.3794V426.452H75.0619L74.8145 428.679C74.9644 428.593 75.1537 428.512 75.3824 428.437C75.6148 428.362 75.8809 428.325 76.1808 428.325C76.5595 428.325 76.8987 428.39 77.1986 428.521C77.4985 428.649 77.7534 428.833 77.9633 429.073C78.177 429.312 78.3401 429.601 78.4525 429.938C78.565 430.276 78.6212 430.653 78.6212 431.069C78.6212 431.462 78.5669 431.824 78.4581 432.154C78.3532 432.484 78.1939 432.772 77.9802 433.02C77.7665 433.264 77.4966 433.453 77.1705 433.588C76.8481 433.723 76.4676 433.79 76.029 433.79C75.6991 433.79 75.3861 433.745 75.09 433.655C74.7976 433.562 74.5352 433.421 74.3028 433.234C74.0741 433.042 73.8867 432.806 73.7405 432.525C73.598 432.24 73.5081 431.906 73.4706 431.524H74.4602C74.5052 431.832 74.5952 432.09 74.7301 432.3C74.8651 432.51 75.0413 432.669 75.2587 432.778C75.4798 432.883 75.7366 432.936 76.029 432.936C76.2764 432.936 76.4957 432.892 76.6869 432.806C76.8781 432.72 77.0393 432.596 77.1705 432.435C77.3017 432.274 77.401 432.079 77.4685 431.85C77.5397 431.622 77.5753 431.365 77.5753 431.08C77.5753 430.821 77.5397 430.581 77.4685 430.36C77.3973 430.139 77.2904 429.946 77.148 429.781C77.0093 429.616 76.8387 429.489 76.6363 429.399C76.4339 429.305 76.2015 429.258 75.9391 429.258C75.5904 429.258 75.3261 429.305 75.1462 429.399C74.97 429.492 74.7882 429.62 74.6008 429.781Z" fill="#707070"></path>
  <path d="M68.1231 346.702L67.2909 346.489L67.7014 342.412H71.9018V343.374H68.5842L68.3368 345.6C68.4867 345.514 68.676 345.433 68.9047 345.359C69.1371 345.284 69.4033 345.246 69.7032 345.246C70.0818 345.246 70.421 345.312 70.7209 345.443C71.0208 345.57 71.2757 345.754 71.4857 345.994C71.6993 346.234 71.8624 346.522 71.9749 346.86C72.0873 347.197 72.1435 347.574 72.1435 347.99C72.1435 348.384 72.0892 348.745 71.9805 349.075C71.8755 349.405 71.7162 349.694 71.5025 349.941C71.2888 350.185 71.0189 350.374 70.6928 350.509C70.3704 350.644 69.9899 350.712 69.5513 350.712C69.2215 350.712 68.9085 350.667 68.6123 350.577C68.3199 350.483 68.0575 350.342 67.8251 350.155C67.5964 349.964 67.409 349.728 67.2628 349.446C67.1203 349.162 67.0304 348.828 66.9929 348.446H67.9825C68.0275 348.753 68.1175 349.012 68.2524 349.221C68.3874 349.431 68.5636 349.591 68.781 349.699C69.0022 349.804 69.259 349.857 69.5513 349.857C69.7988 349.857 70.0181 349.814 70.2092 349.728C70.4004 349.641 70.5616 349.518 70.6928 349.356C70.824 349.195 70.9234 349 70.9908 348.772C71.0621 348.543 71.0977 348.286 71.0977 348.001C71.0977 347.743 71.0621 347.503 70.9908 347.282C70.9196 347.06 70.8128 346.867 70.6703 346.702C70.5316 346.537 70.3611 346.41 70.1586 346.32C69.9562 346.226 69.7238 346.179 69.4614 346.179C69.1128 346.179 68.8485 346.226 68.6685 346.32C68.4924 346.414 68.3105 346.541 68.1231 346.702ZM78.4244 345.853V347.102C78.4244 347.773 78.3644 348.339 78.2445 348.8C78.1245 349.261 77.9521 349.632 77.7272 349.913C77.5022 350.194 77.2305 350.399 76.9118 350.526C76.5969 350.65 76.2408 350.712 75.8435 350.712C75.5286 350.712 75.2381 350.672 74.9719 350.593C74.7057 350.515 74.4658 350.389 74.2522 350.217C74.0422 350.041 73.8623 349.812 73.7124 349.531C73.5624 349.25 73.4481 348.908 73.3694 348.507C73.2906 348.106 73.2513 347.638 73.2513 347.102V345.853C73.2513 345.182 73.3112 344.62 73.4312 344.166C73.5549 343.713 73.7292 343.349 73.9541 343.076C74.1791 342.798 74.449 342.599 74.7639 342.48C75.0825 342.36 75.4386 342.3 75.8322 342.3C76.1509 342.3 76.4432 342.339 76.7094 342.418C76.9793 342.493 77.2192 342.614 77.4291 342.783C77.6391 342.948 77.8171 343.169 77.9633 343.447C78.1133 343.72 78.2276 344.056 78.3063 344.453C78.385 344.851 78.4244 345.317 78.4244 345.853ZM77.3785 347.27V345.679C77.3785 345.312 77.356 344.989 77.3111 344.712C77.2698 344.431 77.208 344.191 77.1255 343.992C77.043 343.793 76.9381 343.632 76.8106 343.509C76.6869 343.385 76.5426 343.295 76.3776 343.239C76.2165 343.179 76.0346 343.149 75.8322 343.149C75.5848 343.149 75.3655 343.196 75.1743 343.289C74.9831 343.379 74.822 343.524 74.6908 343.722C74.5633 343.921 74.4658 344.181 74.3984 344.504C74.3309 344.826 74.2971 345.218 74.2971 345.679V347.27C74.2971 347.638 74.3178 347.962 74.359 348.243C74.404 348.524 74.4696 348.768 74.5558 348.974C74.642 349.177 74.747 349.343 74.8707 349.475C74.9944 349.606 75.1368 349.703 75.298 349.767C75.463 349.827 75.6448 349.857 75.8435 349.857C76.0984 349.857 76.3214 349.808 76.5126 349.711C76.7038 349.613 76.8631 349.461 76.9906 349.255C77.1218 349.045 77.2192 348.777 77.2829 348.451C77.3467 348.121 77.3785 347.728 77.3785 347.27Z" fill="#707070"></path>
  <path d="M68.1231 264.446L67.2909 264.232L67.7014 260.156H71.9018V261.117H68.5842L68.3368 263.344C68.4867 263.258 68.676 263.177 68.9047 263.102C69.1371 263.027 69.4033 262.99 69.7032 262.99C70.0818 262.99 70.421 263.055 70.7209 263.187C71.0208 263.314 71.2757 263.498 71.4857 263.738C71.6993 263.977 71.8624 264.266 71.9749 264.603C72.0873 264.941 72.1435 265.318 72.1435 265.734C72.1435 266.127 72.0892 266.489 71.9805 266.819C71.8755 267.149 71.7162 267.437 71.5025 267.685C71.2888 267.929 71.0189 268.118 70.6928 268.253C70.3704 268.388 69.9899 268.455 69.5513 268.455C69.2215 268.455 68.9085 268.41 68.6123 268.32C68.3199 268.227 68.0575 268.086 67.8251 267.899C67.5964 267.707 67.409 267.471 67.2628 267.19C67.1203 266.905 67.0304 266.572 66.9929 266.189H67.9825C68.0275 266.497 68.1175 266.755 68.2524 266.965C68.3874 267.175 68.5636 267.334 68.781 267.443C69.0022 267.548 69.259 267.601 69.5513 267.601C69.7988 267.601 70.0181 267.557 70.2092 267.471C70.4004 267.385 70.5616 267.261 70.6928 267.1C70.824 266.939 70.9234 266.744 70.9908 266.515C71.0621 266.287 71.0977 266.03 71.0977 265.745C71.0977 265.486 71.0621 265.246 70.9908 265.025C70.9196 264.804 70.8128 264.611 70.6703 264.446C70.5316 264.281 70.3611 264.154 70.1586 264.064C69.9562 263.97 69.7238 263.923 69.4614 263.923C69.1128 263.923 68.8485 263.97 68.6685 264.064C68.4924 264.157 68.3105 264.285 68.1231 264.446ZM74.6008 264.446L73.7686 264.232L74.1791 260.156H78.3794V261.117H75.0619L74.8145 263.344C74.9644 263.258 75.1537 263.177 75.3824 263.102C75.6148 263.027 75.8809 262.99 76.1808 262.99C76.5595 262.99 76.8987 263.055 77.1986 263.187C77.4985 263.314 77.7534 263.498 77.9633 263.738C78.177 263.977 78.3401 264.266 78.4525 264.603C78.565 264.941 78.6212 265.318 78.6212 265.734C78.6212 266.127 78.5669 266.489 78.4581 266.819C78.3532 267.149 78.1939 267.437 77.9802 267.685C77.7665 267.929 77.4966 268.118 77.1705 268.253C76.8481 268.388 76.4676 268.455 76.029 268.455C75.6991 268.455 75.3861 268.41 75.09 268.32C74.7976 268.227 74.5352 268.086 74.3028 267.899C74.0741 267.707 73.8867 267.471 73.7405 267.19C73.598 266.905 73.5081 266.572 73.4706 266.189H74.4602C74.5052 266.497 74.5952 266.755 74.7301 266.965C74.8651 267.175 75.0413 267.334 75.2587 267.443C75.4798 267.548 75.7366 267.601 76.029 267.601C76.2764 267.601 76.4957 267.557 76.6869 267.471C76.8781 267.385 77.0393 267.261 77.1705 267.1C77.3017 266.939 77.401 266.744 77.4685 266.515C77.5397 266.287 77.5753 266.03 77.5753 265.745C77.5753 265.486 77.5397 265.246 77.4685 265.025C77.3973 264.804 77.2904 264.611 77.148 264.446C77.0093 264.281 76.8387 264.154 76.6363 264.064C76.4339 263.97 76.2015 263.923 75.9391 263.923C75.5904 263.923 75.3261 263.97 75.1462 264.064C74.97 264.157 74.7882 264.285 74.6008 264.446Z" fill="#707070"></path>
  <path d="M70.7996 177.888H70.8896V178.771H70.7996C70.2486 178.771 69.7875 178.861 69.4164 179.041C69.0453 179.217 68.751 179.455 68.5336 179.755C68.3162 180.051 68.1587 180.385 68.0613 180.756C67.9675 181.127 67.9207 181.504 67.9207 181.886V183.09C67.9207 183.453 67.9638 183.776 68.05 184.057C68.1362 184.334 68.2543 184.568 68.4043 184.76C68.5542 184.951 68.7229 185.095 68.9103 185.193C69.1015 185.29 69.3002 185.339 69.5064 185.339C69.7463 185.339 69.96 185.294 70.1474 185.204C70.3348 185.11 70.4923 184.981 70.6197 184.816C70.7509 184.647 70.8503 184.449 70.9177 184.22C70.9852 183.991 71.0189 183.74 71.0189 183.466C71.0189 183.223 70.989 182.988 70.929 182.763C70.869 182.535 70.7772 182.332 70.6535 182.156C70.5297 181.976 70.3742 181.836 70.1867 181.734C70.0031 181.63 69.7838 181.577 69.5289 181.577C69.2402 181.577 68.9703 181.648 68.7191 181.791C68.4717 181.929 68.2674 182.113 68.1062 182.342C67.9488 182.567 67.8588 182.812 67.8363 183.078L67.2853 183.073C67.3378 182.653 67.4352 182.295 67.5777 181.999C67.7239 181.699 67.9038 181.455 68.1175 181.268C68.3349 181.077 68.5767 180.938 68.8429 180.852C69.1128 180.762 69.3977 180.717 69.6975 180.717C70.1061 180.717 70.4585 180.794 70.7547 180.947C71.0508 181.101 71.2945 181.307 71.4857 181.566C71.6768 181.821 71.8174 182.109 71.9074 182.432C72.0011 182.75 72.048 183.078 72.048 183.416C72.048 183.802 71.9936 184.164 71.8849 184.501C71.7762 184.838 71.6131 185.135 71.3957 185.389C71.182 185.644 70.9177 185.843 70.6028 185.985C70.288 186.128 69.9225 186.199 69.5064 186.199C69.064 186.199 68.6779 186.109 68.348 185.929C68.0181 185.746 67.7445 185.502 67.5271 185.198C67.3097 184.895 67.1466 184.557 67.0379 184.186C66.9292 183.815 66.8748 183.438 66.8748 183.056V182.567C66.8748 181.989 66.9329 181.423 67.0491 180.869C67.1653 180.314 67.3659 179.811 67.6508 179.362C67.9394 178.912 68.3387 178.554 68.8485 178.288C69.3583 178.021 70.0087 177.888 70.7996 177.888ZM78.4244 181.341V182.589C78.4244 183.26 78.3644 183.826 78.2445 184.287C78.1245 184.748 77.9521 185.12 77.7272 185.401C77.5022 185.682 77.2305 185.886 76.9118 186.014C76.5969 186.137 76.2408 186.199 75.8435 186.199C75.5286 186.199 75.2381 186.16 74.9719 186.081C74.7057 186.002 74.4658 185.877 74.2522 185.704C74.0422 185.528 73.8623 185.299 73.7124 185.018C73.5624 184.737 73.4481 184.396 73.3694 183.995C73.2906 183.594 73.2513 183.125 73.2513 182.589V181.341C73.2513 180.67 73.3112 180.108 73.4312 179.654C73.5549 179.2 73.7292 178.837 73.9541 178.563C74.1791 178.286 74.449 178.087 74.7639 177.967C75.0825 177.847 75.4386 177.787 75.8322 177.787C76.1509 177.787 76.4432 177.827 76.7094 177.905C76.9793 177.98 77.2192 178.102 77.4291 178.271C77.6391 178.436 77.8171 178.657 77.9633 178.934C78.1133 179.208 78.2276 179.543 78.3063 179.941C78.385 180.338 78.4244 180.805 78.4244 181.341ZM77.3785 182.758V181.167C77.3785 180.799 77.356 180.477 77.3111 180.199C77.2698 179.918 77.208 179.678 77.1255 179.48C77.043 179.281 76.9381 179.12 76.8106 178.996C76.6869 178.872 76.5426 178.782 76.3776 178.726C76.2165 178.666 76.0346 178.636 75.8322 178.636C75.5848 178.636 75.3655 178.683 75.1743 178.777C74.9831 178.867 74.822 179.011 74.6908 179.21C74.5633 179.408 74.4658 179.669 74.3984 179.991C74.3309 180.314 74.2971 180.705 74.2971 181.167V182.758C74.2971 183.125 74.3178 183.449 74.359 183.731C74.404 184.012 74.4696 184.255 74.5558 184.462C74.642 184.664 74.747 184.831 74.8707 184.962C74.9944 185.093 75.1368 185.191 75.298 185.254C75.463 185.314 75.6448 185.344 75.8435 185.344C76.0984 185.344 76.3214 185.296 76.5126 185.198C76.7038 185.101 76.8631 184.949 76.9906 184.743C77.1218 184.533 77.2192 184.265 77.2829 183.939C77.3467 183.609 77.3785 183.215 77.3785 182.758Z" fill="#707070"></path>
  <path d="M70.7996 98.0998H70.8896V98.9826H70.7996C70.2486 98.9826 69.7875 99.0726 69.4164 99.2525C69.0453 99.4287 68.751 99.6667 68.5336 99.9666C68.3162 100.263 68.1587 100.596 68.0613 100.968C67.9675 101.339 67.9207 101.715 67.9207 102.098V103.301C67.9207 103.665 67.9638 103.987 68.05 104.268C68.1362 104.546 68.2543 104.78 68.4043 104.971C68.5542 105.162 68.7229 105.307 68.9103 105.404C69.1015 105.502 69.3002 105.55 69.5064 105.55C69.7463 105.55 69.96 105.505 70.1474 105.415C70.3348 105.322 70.4923 105.192 70.6197 105.027C70.7509 104.859 70.8503 104.66 70.9177 104.431C70.9852 104.203 71.0189 103.951 71.0189 103.678C71.0189 103.434 70.989 103.2 70.929 102.975C70.869 102.746 70.7772 102.544 70.6535 102.368C70.5297 102.188 70.3742 102.047 70.1867 101.946C70.0031 101.841 69.7838 101.788 69.5289 101.788C69.2402 101.788 68.9703 101.86 68.7191 102.002C68.4717 102.141 68.2674 102.325 68.1062 102.553C67.9488 102.778 67.8588 103.024 67.8363 103.29L67.2853 103.284C67.3378 102.864 67.4352 102.506 67.5777 102.21C67.7239 101.91 67.9038 101.667 68.1175 101.479C68.3349 101.288 68.5767 101.149 68.8429 101.063C69.1128 100.973 69.3977 100.928 69.6975 100.928C70.1061 100.928 70.4585 101.005 70.7547 101.159C71.0508 101.312 71.2945 101.519 71.4857 101.777C71.6768 102.032 71.8174 102.321 71.9074 102.643C72.0011 102.962 72.048 103.29 72.048 103.627C72.048 104.013 71.9936 104.375 71.8849 104.712C71.7762 105.05 71.6131 105.346 71.3957 105.601C71.182 105.856 70.9177 106.054 70.6028 106.197C70.288 106.339 69.9225 106.411 69.5064 106.411C69.064 106.411 68.6779 106.321 68.348 106.141C68.0181 105.957 67.7445 105.713 67.5271 105.41C67.3097 105.106 67.1466 104.769 67.0379 104.398C66.9292 104.026 66.8748 103.65 66.8748 103.267V102.778C66.8748 102.201 66.9329 101.635 67.0491 101.08C67.1653 100.525 67.3659 100.023 67.6508 99.573C67.9394 99.1232 68.3387 98.7652 68.8485 98.499C69.3583 98.2329 70.0087 98.0998 70.7996 98.0998ZM74.6008 102.401L73.7686 102.188L74.1791 98.111H78.3794V99.0726H75.0619L74.8145 101.299C74.9644 101.213 75.1537 101.132 75.3824 101.057C75.6148 100.983 75.8809 100.945 76.1808 100.945C76.5595 100.945 76.8987 101.011 77.1986 101.142C77.4985 101.269 77.7534 101.453 77.9633 101.693C78.177 101.933 78.3401 102.221 78.4525 102.559C78.565 102.896 78.6212 103.273 78.6212 103.689C78.6212 104.083 78.5669 104.444 78.4581 104.774C78.3532 105.104 78.1939 105.393 77.9802 105.64C77.7665 105.884 77.4966 106.073 77.1705 106.208C76.8481 106.343 76.4676 106.411 76.029 106.411C75.6991 106.411 75.3861 106.366 75.09 106.276C74.7976 106.182 74.5352 106.041 74.3028 105.854C74.0741 105.663 73.8867 105.427 73.7405 105.145C73.598 104.86 73.5081 104.527 73.4706 104.144H74.4602C74.5052 104.452 74.5952 104.711 74.7301 104.92C74.8651 105.13 75.0413 105.29 75.2587 105.398C75.4798 105.503 75.7366 105.556 76.029 105.556C76.2764 105.556 76.4957 105.513 76.6869 105.427C76.8781 105.34 77.0393 105.217 77.1705 105.055C77.3017 104.894 77.401 104.699 77.4685 104.471C77.5397 104.242 77.5753 103.985 77.5753 103.7C77.5753 103.442 77.5397 103.202 77.4685 102.981C77.3973 102.759 77.2904 102.566 77.148 102.401C77.0093 102.236 76.8387 102.109 76.6363 102.019C76.4339 101.925 76.2015 101.878 75.9391 101.878C75.5904 101.878 75.3261 101.925 75.1462 102.019C74.97 102.113 74.7882 102.24 74.6008 102.401Z" fill="#707070"></path>
  <path d="M200.555 451.99L199.723 451.777L200.134 447.7H204.334V448.661H201.017L200.769 450.888C200.919 450.802 201.108 450.721 201.337 450.646C201.569 450.571 201.836 450.534 202.136 450.534C202.514 450.534 202.853 450.599 203.153 450.731C203.453 450.858 203.708 451.042 203.918 451.282C204.132 451.522 204.295 451.81 204.407 452.148C204.52 452.485 204.576 452.862 204.576 453.278C204.576 453.672 204.522 454.033 204.413 454.363C204.308 454.693 204.149 454.982 203.935 455.229C203.721 455.473 203.451 455.662 203.125 455.797C202.803 455.932 202.422 455.999 201.984 455.999C201.654 455.999 201.341 455.954 201.045 455.864C200.752 455.771 200.49 455.63 200.257 455.443C200.029 455.252 199.841 455.015 199.695 454.734C199.553 454.449 199.463 454.116 199.425 453.733H200.415C200.46 454.041 200.55 454.299 200.685 454.509C200.82 454.719 200.996 454.879 201.213 454.987C201.435 455.092 201.691 455.145 201.984 455.145C202.231 455.145 202.45 455.102 202.642 455.015C202.833 454.929 202.994 454.805 203.125 454.644C203.256 454.483 203.356 454.288 203.423 454.059C203.494 453.831 203.53 453.574 203.53 453.289C203.53 453.03 203.494 452.791 203.423 452.569C203.352 452.348 203.245 452.155 203.103 451.99C202.964 451.825 202.793 451.698 202.591 451.608C202.389 451.514 202.156 451.467 201.894 451.467C201.545 451.467 201.281 451.514 201.101 451.608C200.925 451.702 200.743 451.829 200.555 451.99Z" fill="#707070"></path>
  <path d="M287.133 447.689H287.223V448.571H287.133C286.582 448.571 286.121 448.661 285.75 448.841C285.379 449.018 285.085 449.256 284.867 449.555C284.65 449.852 284.492 450.185 284.395 450.556C284.301 450.927 284.254 451.304 284.254 451.687V452.89C284.254 453.254 284.298 453.576 284.384 453.857C284.47 454.134 284.588 454.369 284.738 454.56C284.888 454.751 285.057 454.895 285.244 454.993C285.435 455.09 285.634 455.139 285.84 455.139C286.08 455.139 286.294 455.094 286.481 455.004C286.669 454.91 286.826 454.781 286.953 454.616C287.085 454.447 287.184 454.249 287.251 454.02C287.319 453.791 287.353 453.54 287.353 453.267C287.353 453.023 287.323 452.789 287.263 452.564C287.203 452.335 287.111 452.133 286.987 451.956C286.863 451.777 286.708 451.636 286.52 451.535C286.337 451.43 286.118 451.377 285.863 451.377C285.574 451.377 285.304 451.449 285.053 451.591C284.805 451.73 284.601 451.913 284.44 452.142C284.283 452.367 284.193 452.613 284.17 452.879L283.619 452.873C283.672 452.453 283.769 452.095 283.911 451.799C284.058 451.499 284.238 451.256 284.451 451.068C284.669 450.877 284.91 450.738 285.177 450.652C285.446 450.562 285.731 450.517 286.031 450.517C286.44 450.517 286.792 450.594 287.088 450.748C287.385 450.901 287.628 451.107 287.819 451.366C288.011 451.621 288.151 451.91 288.241 452.232C288.335 452.551 288.382 452.879 288.382 453.216C288.382 453.602 288.327 453.964 288.219 454.301C288.11 454.639 287.947 454.935 287.729 455.19C287.516 455.445 287.251 455.643 286.937 455.786C286.622 455.928 286.256 455.999 285.84 455.999C285.398 455.999 285.012 455.909 284.682 455.73C284.352 455.546 284.078 455.302 283.861 454.999C283.643 454.695 283.48 454.358 283.372 453.986C283.263 453.615 283.209 453.239 283.209 452.856V452.367C283.209 451.79 283.267 451.224 283.383 450.669C283.499 450.114 283.7 449.612 283.985 449.162C284.273 448.712 284.672 448.354 285.182 448.088C285.692 447.822 286.342 447.689 287.133 447.689Z" fill="#707070"></path>
  <path d="M372.334 447.7V448.285L368.943 455.887H367.847L371.232 448.555H366.801V447.7H372.334Z" fill="#707070"></path>
  <path d="M456.106 453.672C456.106 454.17 455.989 454.594 455.757 454.942C455.528 455.287 455.217 455.55 454.824 455.73C454.434 455.909 453.993 455.999 453.502 455.999C453.011 455.999 452.569 455.909 452.175 455.73C451.782 455.55 451.47 455.287 451.242 454.942C451.013 454.594 450.899 454.17 450.899 453.672C450.899 453.345 450.961 453.047 451.084 452.777C451.212 452.504 451.39 452.266 451.619 452.063C451.851 451.861 452.125 451.705 452.44 451.597C452.758 451.484 453.109 451.428 453.491 451.428C453.993 451.428 454.441 451.525 454.835 451.72C455.229 451.912 455.538 452.176 455.763 452.513C455.991 452.851 456.106 453.237 456.106 453.672ZM455.06 453.649C455.06 453.345 454.994 453.077 454.863 452.845C454.732 452.609 454.548 452.425 454.312 452.294C454.076 452.163 453.802 452.097 453.491 452.097C453.172 452.097 452.897 452.163 452.664 452.294C452.436 452.425 452.258 452.609 452.13 452.845C452.003 453.077 451.939 453.345 451.939 453.649C451.939 453.964 452.001 454.234 452.125 454.459C452.252 454.68 452.432 454.85 452.664 454.97C452.901 455.087 453.18 455.145 453.502 455.145C453.825 455.145 454.102 455.087 454.334 454.97C454.567 454.85 454.745 454.68 454.869 454.459C454.996 454.234 455.06 453.964 455.06 453.649ZM455.915 449.831C455.915 450.228 455.81 450.586 455.6 450.905C455.39 451.224 455.103 451.475 454.739 451.658C454.376 451.842 453.963 451.934 453.502 451.934C453.034 451.934 452.616 451.842 452.248 451.658C451.885 451.475 451.6 451.224 451.394 450.905C451.187 450.586 451.084 450.228 451.084 449.831C451.084 449.355 451.187 448.95 451.394 448.616C451.604 448.283 451.89 448.028 452.254 447.852C452.618 447.676 453.032 447.587 453.497 447.587C453.965 447.587 454.381 447.676 454.745 447.852C455.109 448.028 455.393 448.283 455.6 448.616C455.81 448.95 455.915 449.355 455.915 449.831ZM454.874 449.848C454.874 449.574 454.816 449.332 454.7 449.123C454.584 448.913 454.423 448.748 454.216 448.628C454.01 448.504 453.77 448.442 453.497 448.442C453.223 448.442 452.983 448.5 452.777 448.616C452.574 448.729 452.415 448.89 452.299 449.1C452.186 449.31 452.13 449.559 452.13 449.848C452.13 450.129 452.186 450.375 452.299 450.584C452.415 450.794 452.576 450.957 452.783 451.074C452.989 451.19 453.229 451.248 453.502 451.248C453.776 451.248 454.014 451.19 454.216 451.074C454.423 450.957 454.584 450.794 454.7 450.584C454.816 450.375 454.874 450.129 454.874 449.848Z" fill="#707070"></path>
  <path d="M535.88 455.015H535.986C536.586 455.015 537.074 454.931 537.448 454.762C537.823 454.594 538.112 454.367 538.314 454.082C538.517 453.797 538.655 453.477 538.73 453.12C538.805 452.761 538.843 452.391 538.843 452.013V450.759C538.843 450.388 538.8 450.058 538.714 449.769C538.631 449.481 538.515 449.239 538.365 449.044C538.219 448.849 538.052 448.701 537.864 448.6C537.677 448.498 537.478 448.448 537.268 448.448C537.029 448.448 536.813 448.496 536.622 448.594C536.434 448.688 536.275 448.821 536.144 448.993C536.016 449.166 535.919 449.368 535.851 449.6C535.784 449.833 535.75 450.086 535.75 450.36C535.75 450.603 535.78 450.839 535.84 451.068C535.9 451.297 535.992 451.503 536.116 451.687C536.239 451.87 536.393 452.016 536.577 452.125C536.764 452.23 536.984 452.283 537.235 452.283C537.467 452.283 537.685 452.238 537.887 452.148C538.093 452.054 538.275 451.928 538.432 451.771C538.594 451.61 538.721 451.428 538.815 451.226C538.912 451.023 538.968 450.811 538.983 450.59H539.478C539.478 450.901 539.416 451.209 539.293 451.512C539.173 451.812 539.004 452.086 538.787 452.333C538.569 452.581 538.314 452.779 538.022 452.929C537.73 453.075 537.411 453.149 537.066 453.149C536.661 453.149 536.311 453.07 536.015 452.912C535.718 452.755 535.475 452.545 535.284 452.283C535.096 452.02 534.956 451.728 534.862 451.405C534.772 451.079 534.727 450.749 534.727 450.416C534.727 450.026 534.781 449.66 534.89 449.319C534.999 448.978 535.16 448.678 535.373 448.42C535.587 448.157 535.851 447.953 536.166 447.807C536.485 447.661 536.852 447.587 537.268 447.587C537.737 447.587 538.136 447.681 538.466 447.869C538.796 448.056 539.064 448.307 539.27 448.622C539.48 448.937 539.634 449.291 539.731 449.685C539.829 450.078 539.877 450.483 539.877 450.899V451.276C539.877 451.7 539.849 452.131 539.793 452.569C539.741 453.004 539.638 453.42 539.484 453.818C539.334 454.215 539.115 454.571 538.826 454.886C538.537 455.197 538.161 455.445 537.696 455.628C537.235 455.808 536.665 455.898 535.986 455.898H535.88V455.015Z" fill="#707070"></path>
  <rect width="63.3372" height="19.7415" transform="translate(147.561 380.161) rotate(-18.2364)" fill="#D9D9D9"></rect>
  <path d="M166.802 385.278L164.488 386.04L164.088 384.826L166.401 384.064C166.804 383.931 167.108 383.758 167.314 383.546C167.519 383.334 167.641 383.096 167.68 382.83C167.721 382.56 167.693 382.276 167.595 381.979C167.503 381.698 167.357 381.455 167.159 381.25C166.963 381.039 166.717 380.899 166.419 380.83C166.121 380.762 165.771 380.794 165.368 380.926L163.524 381.534L166.05 389.2L164.518 389.704L161.59 380.818L164.966 379.706C165.653 379.479 166.277 379.409 166.838 379.495C167.401 379.575 167.879 379.788 168.272 380.132C168.664 380.472 168.95 380.914 169.129 381.46C169.319 382.033 169.355 382.567 169.238 383.061C169.121 383.555 168.857 383.992 168.445 384.371C168.037 384.749 167.489 385.052 166.802 385.278ZM175.569 384.595L174.531 381.446C174.453 381.21 174.344 381.02 174.202 380.878C174.06 380.735 173.886 380.646 173.68 380.61C173.479 380.572 173.248 380.597 172.987 380.682C172.747 380.762 172.553 380.871 172.405 381.01C172.257 381.149 172.157 381.303 172.105 381.474C172.052 381.645 172.055 381.817 172.113 381.992L170.648 382.475C170.562 382.214 170.542 381.941 170.588 381.656C170.634 381.37 170.745 381.092 170.922 380.822C171.099 380.551 171.336 380.306 171.634 380.086C171.931 379.867 172.288 379.688 172.703 379.552C173.199 379.388 173.666 379.327 174.103 379.367C174.545 379.407 174.931 379.559 175.262 379.825C175.596 380.085 175.846 380.467 176.012 380.971L176.979 383.907C177.079 384.208 177.188 384.472 177.308 384.699C177.43 384.92 177.561 385.105 177.7 385.253L177.732 385.351L176.225 385.847C176.103 385.711 175.982 385.528 175.861 385.297C175.743 385.061 175.645 384.827 175.569 384.595ZM174.895 381.833L175.207 382.739L174.151 383.087C173.879 383.176 173.647 383.282 173.457 383.403C173.266 383.52 173.117 383.651 173.011 383.794C172.905 383.937 172.84 384.089 172.816 384.25C172.793 384.412 172.81 384.58 172.867 384.755C172.925 384.929 173.019 385.077 173.148 385.196C173.277 385.312 173.432 385.385 173.613 385.416C173.798 385.445 174.003 385.422 174.227 385.349C174.528 385.249 174.77 385.102 174.954 384.906C175.14 384.705 175.269 384.493 175.34 384.271C175.41 384.045 175.422 383.85 175.377 383.684L176.068 384.18C176.074 384.363 176.05 384.57 175.995 384.8C175.94 385.03 175.845 385.264 175.712 385.502C175.581 385.735 175.401 385.949 175.173 386.146C174.949 386.342 174.666 386.496 174.324 386.609C173.893 386.751 173.48 386.792 173.086 386.733C172.691 386.669 172.349 386.522 172.061 386.292C171.772 386.058 171.566 385.754 171.443 385.38C171.327 385.03 171.291 384.699 171.332 384.387C171.377 384.071 171.497 383.778 171.693 383.511C171.893 383.242 172.165 382.999 172.508 382.782C172.851 382.561 173.262 382.371 173.742 382.213L174.895 381.833ZM178.736 379.093L180.497 384.44L179.026 384.924L176.85 378.32L178.254 377.858L178.736 379.093ZM180.328 377.127L180.766 378.498C180.671 378.512 180.569 378.532 180.461 378.558C180.356 378.584 180.253 378.613 180.152 378.647C179.899 378.73 179.69 378.839 179.522 378.976C179.354 379.108 179.227 379.263 179.141 379.44C179.058 379.612 179.012 379.802 179.005 380.012C178.997 380.222 179.026 380.445 179.09 380.681L178.762 380.816C178.625 380.401 178.539 380.003 178.504 379.623C178.469 379.242 178.488 378.89 178.563 378.568C178.641 378.244 178.78 377.967 178.978 377.734C179.181 377.501 179.447 377.329 179.776 377.221C179.866 377.191 179.964 377.168 180.071 377.151C180.183 377.132 180.268 377.124 180.328 377.127ZM186.269 382.673C185.78 382.834 185.313 382.9 184.866 382.872C184.422 382.838 184.013 382.722 183.642 382.524C183.274 382.325 182.952 382.054 182.677 381.712C182.402 381.369 182.19 380.972 182.041 380.521L181.961 380.277C181.79 379.76 181.711 379.267 181.724 378.798C181.736 378.33 181.828 377.903 181.999 377.517C182.168 377.127 182.41 376.793 182.724 376.514C183.037 376.234 183.408 376.024 183.835 375.883C184.307 375.728 184.746 375.671 185.153 375.713C185.559 375.755 185.926 375.883 186.253 376.095C186.583 376.302 186.87 376.584 187.114 376.941C187.362 377.297 187.564 377.713 187.721 378.189L187.928 378.818L182.826 380.499L182.478 379.443L186.128 378.241L186.089 378.125C185.994 377.863 185.859 377.632 185.685 377.432C185.515 377.231 185.309 377.092 185.067 377.014C184.825 376.936 184.541 376.95 184.215 377.057C183.971 377.138 183.771 377.262 183.615 377.431C183.461 377.595 183.353 377.795 183.291 378.032C183.23 378.269 183.21 378.537 183.232 378.836C183.256 379.13 183.325 379.448 183.438 379.79L183.518 380.034C183.613 380.323 183.74 380.579 183.9 380.802C184.061 381.019 184.25 381.194 184.465 381.326C184.68 381.458 184.914 381.541 185.169 381.574C185.422 381.603 185.689 381.572 185.97 381.479C186.324 381.363 186.616 381.188 186.846 380.954C187.075 380.72 187.249 380.44 187.367 380.112L188.389 380.608C188.315 380.862 188.196 381.123 188.031 381.389C187.865 381.651 187.636 381.896 187.346 382.122C187.059 382.347 186.7 382.531 186.269 382.673ZM189.766 375.628L191.477 380.822L190.007 381.306L187.831 374.702L189.216 374.246L189.766 375.628ZM190.047 377.362L189.569 377.513C189.418 377.044 189.342 376.593 189.34 376.161C189.341 375.727 189.409 375.332 189.545 374.977C189.684 374.619 189.89 374.313 190.162 374.056C190.432 373.796 190.765 373.6 191.16 373.47C191.477 373.366 191.779 373.316 192.064 373.321C192.353 373.321 192.621 373.388 192.868 373.523C193.12 373.657 193.346 373.864 193.547 374.145C193.747 374.422 193.921 374.787 194.07 375.238L195.475 379.505L193.998 379.991L192.591 375.719C192.486 375.401 192.357 375.167 192.203 375.014C192.052 374.857 191.876 374.768 191.675 374.748C191.478 374.723 191.251 374.753 190.994 374.837C190.742 374.92 190.534 375.048 190.369 375.219C190.205 375.391 190.083 375.591 190.005 375.82C189.931 376.047 189.897 376.293 189.903 376.557C189.909 376.821 189.957 377.089 190.047 377.362ZM197.828 371.408L198.182 372.483L194.459 373.709L194.105 372.635L197.828 371.408ZM194.646 370.664L196.117 370.179L198.225 376.576C198.292 376.779 198.372 376.926 198.465 377.017C198.561 377.103 198.668 377.147 198.786 377.148C198.904 377.15 199.034 377.128 199.176 377.081C199.278 377.047 199.373 377.009 199.463 376.966C199.553 376.923 199.624 376.886 199.677 376.855L200.053 377.976C199.943 378.053 199.811 378.132 199.658 378.214C199.509 378.295 199.33 378.37 199.123 378.438C198.785 378.549 198.466 378.589 198.167 378.557C197.866 378.52 197.598 378.39 197.362 378.166C197.125 377.941 196.933 377.603 196.784 377.152L194.646 370.664Z" fill="#707070"></path>
  <path d="M586.673 423.732V433.089H585.073V423.732H586.673ZM589.61 423.732V425.017H582.162V423.732H589.61ZM594.334 431.45V426.136H595.889V433.089H594.424L594.334 431.45ZM594.552 430.004L595.073 429.991C595.073 430.458 595.021 430.889 594.918 431.283C594.816 431.673 594.657 432.014 594.443 432.305C594.229 432.592 593.954 432.817 593.62 432.98C593.286 433.138 592.886 433.217 592.419 433.217C592.08 433.217 591.769 433.168 591.487 433.07C591.204 432.971 590.96 432.819 590.754 432.613C590.553 432.408 590.396 432.14 590.285 431.81C590.174 431.48 590.118 431.086 590.118 430.628V426.136H591.667V430.64C591.667 430.893 591.697 431.105 591.757 431.277C591.817 431.444 591.898 431.579 592.001 431.682C592.104 431.784 592.224 431.857 592.361 431.9C592.498 431.943 592.643 431.964 592.798 431.964C593.239 431.964 593.586 431.879 593.839 431.707C594.096 431.532 594.278 431.296 594.385 431C594.496 430.705 594.552 430.373 594.552 430.004ZM599.031 427.459V433.089H597.482V426.136H598.96L599.031 427.459ZM601.158 426.091L601.145 427.53C601.051 427.513 600.948 427.5 600.837 427.492C600.73 427.483 600.623 427.479 600.516 427.479C600.25 427.479 600.017 427.517 599.815 427.594C599.614 427.667 599.445 427.774 599.307 427.916C599.175 428.053 599.072 428.22 598.999 428.417C598.926 428.614 598.883 428.835 598.871 429.079L598.517 429.105C598.517 428.668 598.56 428.263 598.646 427.89C598.731 427.517 598.86 427.19 599.031 426.907C599.207 426.624 599.425 426.403 599.687 426.245C599.952 426.086 600.259 426.007 600.606 426.007C600.7 426.007 600.801 426.016 600.908 426.033C601.019 426.05 601.103 426.069 601.158 426.091ZM603.665 427.62V433.089H602.116V426.136H603.575L603.665 427.62ZM603.388 429.355L602.887 429.349C602.891 428.856 602.96 428.404 603.093 427.993C603.23 427.582 603.418 427.228 603.658 426.933C603.902 426.637 604.194 426.41 604.532 426.251C604.871 426.089 605.248 426.007 605.663 426.007C605.997 426.007 606.299 426.054 606.569 426.149C606.843 426.238 607.077 426.386 607.27 426.592C607.467 426.798 607.617 427.065 607.719 427.395C607.822 427.721 607.874 428.121 607.874 428.597V433.089H606.319V428.59C606.319 428.256 606.269 427.993 606.171 427.8C606.076 427.603 605.937 427.464 605.753 427.382C605.573 427.297 605.348 427.254 605.078 427.254C604.813 427.254 604.575 427.31 604.365 427.421C604.155 427.532 603.977 427.684 603.832 427.877C603.69 428.07 603.581 428.293 603.504 428.545C603.427 428.798 603.388 429.068 603.388 429.355ZM609.159 429.689V429.542C609.159 429.04 609.232 428.575 609.377 428.147C609.523 427.714 609.733 427.34 610.007 427.022C610.286 426.701 610.624 426.453 611.023 426.277C611.425 426.097 611.879 426.007 612.385 426.007C612.895 426.007 613.349 426.097 613.747 426.277C614.15 426.453 614.491 426.701 614.769 427.022C615.048 427.34 615.26 427.714 615.405 428.147C615.551 428.575 615.624 429.04 615.624 429.542V429.689C615.624 430.191 615.551 430.655 615.405 431.084C615.26 431.512 615.048 431.887 614.769 432.208C614.491 432.525 614.152 432.774 613.754 432.954C613.355 433.13 612.903 433.217 612.398 433.217C611.888 433.217 611.432 433.13 611.029 432.954C610.631 432.774 610.292 432.525 610.014 432.208C609.735 431.887 609.523 431.512 609.377 431.084C609.232 430.655 609.159 430.191 609.159 429.689ZM610.708 429.542V429.689C610.708 430.002 610.74 430.298 610.804 430.576C610.868 430.855 610.969 431.099 611.106 431.309C611.243 431.519 611.419 431.684 611.633 431.804C611.847 431.924 612.102 431.984 612.398 431.984C612.685 431.984 612.933 431.924 613.143 431.804C613.357 431.684 613.533 431.519 613.67 431.309C613.807 431.099 613.908 430.855 613.972 430.576C614.041 430.298 614.075 430.002 614.075 429.689V429.542C614.075 429.233 614.041 428.942 613.972 428.668C613.908 428.389 613.805 428.143 613.664 427.929C613.527 427.714 613.351 427.547 613.137 427.427C612.927 427.303 612.676 427.241 612.385 427.241C612.094 427.241 611.841 427.303 611.627 427.427C611.417 427.547 611.243 427.714 611.106 427.929C610.969 428.143 610.868 428.389 610.804 428.668C610.74 428.942 610.708 429.233 610.708 429.542ZM619.081 431.861L620.784 426.136H622.391L619.974 433.089H618.972L619.081 431.861ZM617.777 426.136L619.512 431.887L619.595 433.089H618.593L616.164 426.136H617.777ZM626.324 433.217C625.809 433.217 625.345 433.134 624.929 432.967C624.518 432.795 624.166 432.558 623.875 432.253C623.588 431.949 623.367 431.592 623.213 431.18C623.059 430.769 622.982 430.326 622.982 429.85V429.593C622.982 429.049 623.061 428.556 623.22 428.115C623.378 427.674 623.599 427.297 623.882 426.984C624.164 426.667 624.498 426.425 624.884 426.258C625.27 426.091 625.687 426.007 626.137 426.007C626.634 426.007 627.069 426.091 627.442 426.258C627.814 426.425 628.123 426.66 628.367 426.965C628.616 427.265 628.8 427.622 628.92 428.038C629.044 428.453 629.106 428.912 629.106 429.413V430.075H623.734V428.963H627.577V428.841C627.568 428.563 627.512 428.301 627.41 428.057C627.311 427.813 627.159 427.616 626.953 427.466C626.748 427.316 626.473 427.241 626.131 427.241C625.874 427.241 625.644 427.297 625.443 427.408C625.246 427.515 625.081 427.672 624.948 427.877C624.815 428.083 624.713 428.331 624.64 428.623C624.571 428.91 624.537 429.233 624.537 429.593V429.85C624.537 430.154 624.578 430.437 624.659 430.698C624.745 430.955 624.869 431.18 625.032 431.373C625.195 431.566 625.392 431.718 625.623 431.829C625.854 431.936 626.118 431.99 626.413 431.99C626.786 431.99 627.118 431.915 627.41 431.765C627.701 431.615 627.954 431.403 628.168 431.129L628.984 431.919C628.834 432.138 628.639 432.348 628.399 432.549C628.159 432.746 627.866 432.907 627.519 433.031C627.176 433.155 626.778 433.217 626.324 433.217ZM631.869 427.459V433.089H630.321V426.136H631.799L631.869 427.459ZM633.996 426.091L633.984 427.53C633.889 427.513 633.787 427.5 633.675 427.492C633.568 427.483 633.461 427.479 633.354 427.479C633.088 427.479 632.855 427.517 632.653 427.594C632.452 427.667 632.283 427.774 632.146 427.916C632.013 428.053 631.91 428.22 631.837 428.417C631.764 428.614 631.722 428.835 631.709 429.079L631.355 429.105C631.355 428.668 631.398 428.263 631.484 427.89C631.569 427.517 631.698 427.19 631.869 426.907C632.045 426.624 632.264 426.403 632.525 426.245C632.79 426.086 633.097 426.007 633.444 426.007C633.538 426.007 633.639 426.016 633.746 426.033C633.857 426.05 633.941 426.069 633.996 426.091Z" fill="#707070"></path>
  <path d="M70.9274 65.918V75.2747H69.3272V65.918H70.9274ZM73.8642 65.918V67.2033H66.4161V65.918H73.8642ZM77.3922 75.4032C76.8781 75.4032 76.4133 75.3196 75.9977 75.1526C75.5864 74.9812 75.2351 74.7434 74.9438 74.4392C74.6567 74.1351 74.4361 73.7773 74.2819 73.3661C74.1277 72.9548 74.0505 72.5114 74.0505 72.0358V71.7788C74.0505 71.2347 74.1298 70.742 74.2883 70.3007C74.4468 69.8595 74.6675 69.4825 74.9502 69.1697C75.233 68.8527 75.5671 68.6106 75.9527 68.4435C76.3383 68.2765 76.756 68.1929 77.2058 68.1929C77.7028 68.1929 78.1376 68.2765 78.5104 68.4435C78.8831 68.6106 79.1915 68.8463 79.4357 69.1504C79.6842 69.4503 79.8684 69.8081 79.9884 70.2236C80.1126 70.6392 80.1748 71.0976 80.1748 71.5988V72.2607H74.8024V71.149H78.6453V71.0269C78.6367 70.7484 78.5811 70.4871 78.4782 70.2429C78.3797 69.9987 78.2276 69.8016 78.022 69.6517C77.8163 69.5017 77.5421 69.4268 77.1994 69.4268C76.9424 69.4268 76.7132 69.4825 76.5118 69.5938C76.3147 69.7009 76.1498 69.8573 76.017 70.063C75.8842 70.2686 75.7813 70.5171 75.7085 70.8084C75.64 71.0954 75.6057 71.4189 75.6057 71.7788V72.0358C75.6057 72.34 75.6464 72.6228 75.7278 72.8841C75.8135 73.1411 75.9377 73.3661 76.1005 73.5588C76.2633 73.7516 76.4604 73.9037 76.6917 74.0151C76.9231 74.1222 77.1866 74.1758 77.4822 74.1758C77.8549 74.1758 78.1869 74.1008 78.4782 73.9508C78.7696 73.8009 79.0223 73.5888 79.2365 73.3146L80.0527 74.1051C79.9027 74.3236 79.7078 74.5335 79.4679 74.7349C79.228 74.9319 78.9345 75.0926 78.5875 75.2168C78.2447 75.3411 77.8463 75.4032 77.3922 75.4032ZM82.9316 69.7352V75.2747H81.3829V68.3214H82.8417L82.9316 69.7352ZM82.681 71.541L82.1541 71.5346C82.1541 71.0547 82.214 70.6113 82.334 70.2043C82.4539 69.7973 82.6296 69.4439 82.8609 69.144C83.0923 68.8398 83.3793 68.6063 83.7221 68.4435C84.0691 68.2765 84.4697 68.1929 84.9238 68.1929C85.2408 68.1929 85.53 68.24 85.7913 68.3343C86.0569 68.4243 86.2861 68.5678 86.4789 68.7649C86.676 68.9619 86.8259 69.2147 86.9288 69.5232C87.0359 69.8316 87.0894 70.2043 87.0894 70.6413V75.2747H85.5407V70.7763C85.5407 70.4378 85.4893 70.1722 85.3865 69.9794C85.2879 69.7866 85.1444 69.6495 84.9559 69.5681C84.7717 69.4825 84.551 69.4396 84.294 69.4396C84.0027 69.4396 83.7542 69.4953 83.5486 69.6067C83.3472 69.7181 83.1823 69.8702 83.0537 70.063C82.9252 70.2557 82.831 70.4785 82.771 70.7313C82.711 70.9841 82.681 71.254 82.681 71.541ZM86.993 71.1297L86.2669 71.2904C86.2669 70.8705 86.3247 70.4742 86.4404 70.1015C86.5603 69.7245 86.7338 69.3946 86.9609 69.1119C87.1922 68.8248 87.4771 68.5999 87.8156 68.4371C88.154 68.2743 88.5418 68.1929 88.9787 68.1929C89.3343 68.1929 89.6514 68.2422 89.9298 68.3407C90.2126 68.435 90.4525 68.5849 90.6496 68.7906C90.8466 68.9962 90.9966 69.264 91.0994 69.5938C91.2022 69.9194 91.2536 70.3136 91.2536 70.7763V75.2747H89.6985V70.7698C89.6985 70.4185 89.6471 70.1465 89.5443 69.9537C89.4457 69.7609 89.3043 69.6281 89.1201 69.5553C88.9359 69.4782 88.7153 69.4396 88.4582 69.4396C88.2183 69.4396 88.0062 69.4846 87.822 69.5746C87.6421 69.6602 87.49 69.7823 87.3658 69.9409C87.2415 70.0951 87.1473 70.2729 87.083 70.4742C87.023 70.6756 86.993 70.8941 86.993 71.1297ZM94.4025 69.6581V77.948H92.8538V68.3214H94.2804L94.4025 69.6581ZM98.933 71.7338V71.8687C98.933 72.3743 98.873 72.8434 98.7531 73.2761C98.6374 73.7045 98.4639 74.0794 98.2326 74.4007C98.0055 74.7177 97.7249 74.9641 97.3907 75.1397C97.0566 75.3154 96.671 75.4032 96.234 75.4032C95.8013 75.4032 95.4221 75.3239 95.0965 75.1654C94.7752 75.0026 94.5032 74.7734 94.2804 74.4778C94.0576 74.1822 93.8777 73.8352 93.7406 73.4367C93.6078 73.034 93.5135 72.5928 93.4579 72.1129V71.5924C93.5135 71.0826 93.6078 70.6199 93.7406 70.2043C93.8777 69.7888 94.0576 69.431 94.2804 69.1312C94.5032 68.8313 94.7752 68.5999 95.0965 68.4371C95.4179 68.2743 95.7927 68.1929 96.2211 68.1929C96.6581 68.1929 97.0458 68.2786 97.3843 68.45C97.7227 68.617 98.0076 68.857 98.239 69.1697C98.4703 69.4782 98.6438 69.8509 98.7595 70.2879C98.8752 70.7206 98.933 71.2025 98.933 71.7338ZM97.3843 71.8687V71.7338C97.3843 71.4125 97.3543 71.1147 97.2943 70.8405C97.2344 70.5621 97.1401 70.3179 97.0116 70.1079C96.883 69.898 96.7181 69.7352 96.5168 69.6195C96.3197 69.4996 96.0819 69.4396 95.8034 69.4396C95.5292 69.4396 95.2936 69.4867 95.0965 69.581C94.8995 69.671 94.7345 69.7973 94.6017 69.9601C94.4689 70.1229 94.3661 70.3136 94.2933 70.5321C94.2204 70.7463 94.169 70.9798 94.139 71.2325V72.4792C94.1904 72.7877 94.2783 73.0704 94.4025 73.3275C94.5268 73.5846 94.7024 73.7902 94.9295 73.9444C95.1608 74.0944 95.4564 74.1693 95.8163 74.1693C96.0948 74.1693 96.3325 74.1094 96.5296 73.9894C96.7267 73.8694 96.8873 73.7045 97.0116 73.4946C97.1401 73.2804 97.2344 73.034 97.2943 72.7556C97.3543 72.4771 97.3843 72.1815 97.3843 71.8687ZM103.316 75.4032C102.802 75.4032 102.337 75.3196 101.921 75.1526C101.51 74.9812 101.159 74.7434 100.867 74.4392C100.58 74.1351 100.36 73.7773 100.205 73.3661C100.051 72.9548 99.9741 72.5114 99.9741 72.0358V71.7788C99.9741 71.2347 100.053 70.742 100.212 70.3007C100.37 69.8595 100.591 69.4825 100.874 69.1697C101.157 68.8527 101.491 68.6106 101.876 68.4435C102.262 68.2765 102.68 68.1929 103.129 68.1929C103.626 68.1929 104.061 68.2765 104.434 68.4435C104.807 68.6106 105.115 68.8463 105.359 69.1504C105.608 69.4503 105.792 69.8081 105.912 70.2236C106.036 70.6392 106.098 71.0976 106.098 71.5988V72.2607H100.726V71.149H104.569V71.0269C104.56 70.7484 104.505 70.4871 104.402 70.2429C104.303 69.9987 104.151 69.8016 103.946 69.6517C103.74 69.5017 103.466 69.4268 103.123 69.4268C102.866 69.4268 102.637 69.4825 102.435 69.5938C102.238 69.7009 102.073 69.8573 101.941 70.063C101.808 70.2686 101.705 70.5171 101.632 70.8084C101.564 71.0954 101.529 71.4189 101.529 71.7788V72.0358C101.529 72.34 101.57 72.6228 101.651 72.8841C101.737 73.1411 101.861 73.3661 102.024 73.5588C102.187 73.7516 102.384 73.9037 102.615 74.0151C102.847 74.1222 103.11 74.1758 103.406 74.1758C103.778 74.1758 104.11 74.1008 104.402 73.9508C104.693 73.8009 104.946 73.5888 105.16 73.3146L105.976 74.1051C105.826 74.3236 105.631 74.5335 105.391 74.7349C105.152 74.9319 104.858 75.0926 104.511 75.2168C104.168 75.3411 103.77 75.4032 103.316 75.4032ZM108.862 69.6453V75.2747H107.313V68.3214H108.791L108.862 69.6453ZM110.989 68.2765L110.976 69.7159C110.882 69.6988 110.779 69.686 110.667 69.6774C110.56 69.6688 110.453 69.6645 110.346 69.6645C110.08 69.6645 109.847 69.7031 109.646 69.7802C109.444 69.853 109.275 69.9601 109.138 70.1015C109.005 70.2386 108.902 70.4057 108.829 70.6028C108.757 70.7998 108.714 71.0205 108.701 71.2647L108.348 71.2904C108.348 70.8534 108.39 70.4485 108.476 70.0758C108.562 69.7031 108.69 69.3753 108.862 69.0926C109.037 68.8098 109.256 68.5892 109.517 68.4307C109.783 68.2722 110.089 68.1929 110.436 68.1929C110.53 68.1929 110.631 68.2015 110.738 68.2186C110.849 68.2358 110.933 68.255 110.989 68.2765ZM115.648 73.8802V70.5642C115.648 70.3157 115.603 70.1015 115.513 69.9216C115.423 69.7416 115.286 69.6024 115.102 69.5039C114.922 69.4053 114.695 69.3561 114.42 69.3561C114.168 69.3561 113.949 69.3989 113.765 69.4846C113.581 69.5703 113.437 69.686 113.334 69.8316C113.231 69.9773 113.18 70.1422 113.18 70.3264L111.638 70.3264C111.638 70.0522 111.704 69.7866 111.837 69.5296C111.97 69.2725 112.163 69.0433 112.415 68.842C112.668 68.6406 112.97 68.4821 113.321 68.3664C113.673 68.2508 114.067 68.1929 114.504 68.1929C115.027 68.1929 115.489 68.2807 115.892 68.4564C116.299 68.632 116.618 68.8977 116.849 69.2532C117.085 69.6046 117.203 70.0458 117.203 70.5771V73.6681C117.203 73.9851 117.224 74.27 117.267 74.5228C117.314 74.7713 117.381 74.9876 117.466 75.1718V75.2747H115.879C115.806 75.1076 115.748 74.8955 115.706 74.6385C115.667 74.3771 115.648 74.1244 115.648 73.8802ZM115.873 71.0462L115.886 72.0037H114.774C114.487 72.0037 114.234 72.0315 114.015 72.0872C113.797 72.1386 113.615 72.2158 113.469 72.3186C113.324 72.4214 113.214 72.5456 113.141 72.6913C113.069 72.837 113.032 73.0019 113.032 73.1861C113.032 73.3703 113.075 73.5396 113.161 73.6938C113.246 73.8437 113.371 73.9616 113.533 74.0472C113.701 74.1329 113.902 74.1758 114.138 74.1758C114.455 74.1758 114.731 74.1115 114.967 73.983C115.206 73.8502 115.395 73.6895 115.532 73.501C115.669 73.3082 115.742 73.1261 115.751 72.9548L116.252 73.6424C116.2 73.818 116.113 74.0065 115.988 74.2079C115.864 74.4093 115.701 74.602 115.5 74.7863C115.303 74.9662 115.065 75.114 114.787 75.2297C114.512 75.3453 114.195 75.4032 113.836 75.4032C113.381 75.4032 112.977 75.3132 112.621 75.1333C112.265 74.9491 111.987 74.7027 111.786 74.3943C111.584 74.0815 111.484 73.7281 111.484 73.3339C111.484 72.9655 111.552 72.6399 111.689 72.3571C111.831 72.0701 112.036 71.8302 112.306 71.6374C112.58 71.4446 112.914 71.2989 113.309 71.2004C113.703 71.0976 114.153 71.0462 114.658 71.0462H115.873ZM122.01 68.3214V69.4525H118.09V68.3214H122.01ZM119.221 66.6185H120.769V73.3532C120.769 73.5674 120.799 73.7324 120.859 73.848C120.924 73.9594 121.012 74.0344 121.123 74.0729C121.234 74.1115 121.365 74.1308 121.515 74.1308C121.622 74.1308 121.725 74.1244 121.823 74.1115C121.922 74.0987 122.001 74.0858 122.061 74.0729L122.068 75.2554C121.939 75.2939 121.789 75.3282 121.618 75.3582C121.451 75.3882 121.258 75.4032 121.039 75.4032C120.684 75.4032 120.369 75.3411 120.095 75.2168C119.821 75.0883 119.606 74.8805 119.452 74.5935C119.298 74.3064 119.221 73.9251 119.221 73.4496V66.6185ZM127.389 73.636V68.3214H128.944V75.2747H127.478L127.389 73.636ZM127.607 72.1901L128.128 72.1772C128.128 72.6442 128.076 73.0747 127.973 73.4689C127.87 73.8587 127.712 74.1993 127.498 74.4907C127.284 74.7777 127.009 75.0026 126.675 75.1654C126.341 75.3239 125.94 75.4032 125.473 75.4032C125.135 75.4032 124.824 75.3539 124.542 75.2554C124.259 75.1568 124.015 75.0048 123.809 74.7991C123.608 74.5935 123.451 74.3257 123.34 73.9958C123.229 73.666 123.173 73.2718 123.173 72.8134V68.3214H124.722V72.8263C124.722 73.079 124.752 73.2911 124.812 73.4625C124.872 73.6295 124.953 73.7645 125.056 73.8673C125.159 73.9701 125.279 74.043 125.416 74.0858C125.553 74.1286 125.698 74.1501 125.853 74.1501C126.294 74.1501 126.641 74.0644 126.894 73.893C127.151 73.7174 127.333 73.4817 127.44 73.1861C127.551 72.8905 127.607 72.5585 127.607 72.1901ZM132.086 69.6453V75.2747H130.537V68.3214H132.015L132.086 69.6453ZM134.213 68.2765L134.2 69.7159C134.106 69.6988 134.003 69.686 133.892 69.6774C133.785 69.6688 133.678 69.6645 133.571 69.6645C133.305 69.6645 133.071 69.7031 132.87 69.7802C132.669 69.853 132.5 69.9601 132.362 70.1015C132.23 70.2386 132.127 70.4057 132.054 70.6028C131.981 70.7998 131.938 71.0205 131.925 71.2647L131.572 71.2904C131.572 70.8534 131.615 70.4485 131.701 70.0758C131.786 69.7031 131.915 69.3753 132.086 69.0926C132.262 68.8098 132.48 68.5892 132.742 68.4307C133.007 68.2722 133.314 68.1929 133.661 68.1929C133.755 68.1929 133.855 68.2015 133.963 68.2186C134.074 68.2358 134.158 68.255 134.213 68.2765ZM138.12 75.4032C137.606 75.4032 137.141 75.3196 136.726 75.1526C136.315 74.9812 135.963 74.7434 135.672 74.4392C135.385 74.1351 135.164 73.7773 135.01 73.3661C134.856 72.9548 134.779 72.5114 134.779 72.0358V71.7788C134.779 71.2347 134.858 70.742 135.016 70.3007C135.175 69.8595 135.396 69.4825 135.678 69.1697C135.961 68.8527 136.295 68.6106 136.681 68.4435C137.066 68.2765 137.484 68.1929 137.934 68.1929C138.431 68.1929 138.866 68.2765 139.239 68.4435C139.611 68.6106 139.92 68.8463 140.164 69.1504C140.412 69.4503 140.597 69.8081 140.717 70.2236C140.841 70.6392 140.903 71.0976 140.903 71.5988V72.2607H135.531V71.149H139.373V71.0269C139.365 70.7484 139.309 70.4871 139.206 70.2429C139.108 69.9987 138.956 69.8016 138.75 69.6517C138.545 69.5017 138.27 69.4268 137.928 69.4268C137.671 69.4268 137.441 69.4825 137.24 69.5938C137.043 69.7009 136.878 69.8573 136.745 70.063C136.612 70.2686 136.51 70.5171 136.437 70.8084C136.368 71.0954 136.334 71.4189 136.334 71.7788V72.0358C136.334 72.34 136.375 72.6228 136.456 72.8841C136.542 73.1411 136.666 73.3661 136.829 73.5588C136.991 73.7516 137.189 73.9037 137.42 74.0151C137.651 74.1222 137.915 74.1758 138.21 74.1758C138.583 74.1758 138.915 74.1008 139.206 73.9508C139.498 73.8009 139.751 73.5888 139.965 73.3146L140.781 74.1051C140.631 74.3236 140.436 74.5335 140.196 74.7349C139.956 74.9319 139.663 75.0926 139.316 75.2168C138.973 75.3411 138.575 75.4032 138.12 75.4032Z" fill="#707070"></path>
  <rect width="76.0317" height="19.7415" transform="translate(220.769 247.407) rotate(-20.7219)" fill="#282753"></rect>
  <path d="M234.816 247.454L236.163 246.945L241.246 252.737L241.217 245.033L242.564 244.523L242.533 254.539L241.463 254.944L234.816 247.454ZM234.203 247.686L235.483 247.202L237.916 252.96L239.016 255.869L237.514 256.437L234.203 247.686ZM241.897 244.776L243.183 244.289L246.493 253.04L244.985 253.611L243.884 250.702L241.897 244.776ZM251.473 249.404L249.593 244.434L251.048 243.883L253.508 250.387L252.137 250.905L251.473 249.404ZM251.166 247.975L251.648 247.779C251.814 248.215 251.918 248.636 251.961 249.041C252.003 249.442 251.975 249.817 251.878 250.165C251.779 250.509 251.602 250.817 251.347 251.087C251.091 251.354 250.744 251.57 250.308 251.735C249.991 251.855 249.683 251.918 249.384 251.926C249.084 251.934 248.802 251.878 248.537 251.759C248.276 251.638 248.035 251.443 247.814 251.173C247.593 250.904 247.402 250.555 247.239 250.127L245.65 245.925L247.099 245.377L248.693 249.591C248.782 249.827 248.885 250.015 249.002 250.154C249.117 250.289 249.241 250.386 249.373 250.446C249.506 250.506 249.644 250.532 249.787 250.523C249.931 250.515 250.075 250.483 250.219 250.429C250.632 250.273 250.926 250.07 251.102 249.82C251.28 249.565 251.367 249.28 251.362 248.965C251.362 248.65 251.297 248.319 251.166 247.975ZM255.513 242.194L255.914 243.252L252.247 244.639L251.847 243.581L255.513 242.194ZM252.302 241.588L253.751 241.04L256.134 247.339C256.21 247.539 256.296 247.683 256.393 247.77C256.492 247.851 256.601 247.891 256.719 247.887C256.837 247.884 256.966 247.856 257.106 247.803C257.206 247.765 257.3 247.722 257.388 247.675C257.475 247.629 257.545 247.588 257.597 247.555L258.021 248.659C257.914 248.74 257.786 248.826 257.637 248.914C257.491 249.001 257.316 249.084 257.112 249.161C256.779 249.287 256.462 249.34 256.162 249.321C255.86 249.298 255.586 249.179 255.34 248.965C255.095 248.751 254.888 248.422 254.719 247.977L252.302 241.588ZM262.265 245.583L261.091 242.482C261.003 242.249 260.886 242.065 260.738 241.928C260.59 241.792 260.412 241.71 260.205 241.683C260.002 241.655 259.772 241.689 259.516 241.786C259.279 241.875 259.09 241.993 258.948 242.138C258.806 242.283 258.713 242.442 258.668 242.615C258.624 242.788 258.634 242.96 258.699 243.132L257.257 243.678C257.16 243.422 257.128 243.15 257.161 242.862C257.194 242.575 257.293 242.292 257.459 242.015C257.624 241.737 257.85 241.482 258.138 241.249C258.425 241.017 258.774 240.823 259.182 240.669C259.671 240.484 260.135 240.402 260.574 240.424C261.017 240.444 261.409 240.58 261.751 240.83C262.096 241.076 262.362 241.447 262.55 241.943L263.644 244.835C263.756 245.131 263.877 245.39 264.007 245.611C264.139 245.827 264.277 246.006 264.423 246.148L264.459 246.244L262.974 246.806C262.847 246.675 262.718 246.497 262.587 246.272C262.458 246.041 262.351 245.812 262.265 245.583ZM261.472 242.853L261.823 243.744L260.783 244.137C260.515 244.239 260.288 244.354 260.104 244.484C259.917 244.609 259.774 244.746 259.674 244.893C259.575 245.041 259.516 245.196 259.5 245.358C259.483 245.52 259.508 245.687 259.573 245.859C259.638 246.032 259.738 246.175 259.873 246.289C260.006 246.399 260.164 246.465 260.346 246.487C260.533 246.508 260.736 246.477 260.957 246.394C261.253 246.282 261.489 246.124 261.664 245.92C261.841 245.711 261.961 245.494 262.022 245.269C262.082 245.041 262.086 244.845 262.033 244.681L262.745 245.147C262.76 245.329 262.744 245.537 262.699 245.769C262.654 246.001 262.57 246.239 262.447 246.483C262.326 246.721 262.156 246.943 261.937 247.15C261.721 247.355 261.445 247.521 261.109 247.649C260.684 247.81 260.273 247.869 259.877 247.826C259.479 247.78 259.132 247.648 258.834 247.431C258.535 247.209 258.316 246.914 258.176 246.546C258.046 246.201 257.995 245.872 258.023 245.559C258.054 245.241 258.161 244.944 258.346 244.668C258.534 244.39 258.795 244.136 259.129 243.904C259.461 243.669 259.863 243.462 260.336 243.283L261.472 242.853ZM265.229 240.106L267.164 245.221L265.715 245.769L263.255 239.265L264.619 238.749L265.229 240.106ZM265.584 241.826L265.113 241.998C264.943 241.535 264.847 241.088 264.826 240.657C264.808 240.224 264.86 239.826 264.979 239.465C265.103 239.102 265.295 238.787 265.556 238.519C265.815 238.246 266.139 238.037 266.527 237.89C266.84 237.772 267.139 237.709 267.425 237.702C267.713 237.689 267.984 237.744 268.237 237.868C268.494 237.991 268.729 238.188 268.942 238.461C269.153 238.729 269.343 239.085 269.511 239.53L271.101 243.731L269.646 244.282L268.054 240.074C267.936 239.762 267.797 239.533 267.637 239.387C267.479 239.236 267.299 239.155 267.098 239.144C266.899 239.128 266.674 239.167 266.421 239.263C266.173 239.357 265.97 239.493 265.813 239.672C265.656 239.85 265.544 240.055 265.476 240.287C265.412 240.517 265.389 240.764 265.406 241.028C265.423 241.292 265.483 241.558 265.584 241.826ZM273.1 235.541L273.5 236.599L269.834 237.986L269.434 236.928L273.1 235.541ZM269.889 234.935L271.338 234.387L273.721 240.686C273.796 240.886 273.883 241.03 273.98 241.117C274.079 241.198 274.188 241.237 274.306 241.234C274.424 241.231 274.553 241.202 274.693 241.149C274.793 241.111 274.887 241.069 274.975 241.022C275.062 240.975 275.132 240.935 275.183 240.902L275.608 242.006C275.501 242.087 275.373 242.172 275.223 242.261C275.078 242.348 274.903 242.43 274.698 242.508C274.366 242.634 274.049 242.687 273.749 242.668C273.447 242.644 273.173 242.526 272.927 242.312C272.681 242.098 272.474 241.769 272.306 241.324L269.889 234.935ZM280.293 230.216L283.615 238.997L282.166 239.545L279.494 232.483L277.624 234.022L277.171 232.826L280.118 230.282L280.293 230.216Z" fill="#EAEAEA"></path>
  <rect width="76.0317" height="19.7415" transform="translate(263.542 201.874) rotate(-21.149)" fill="#282753"></rect>
  <path d="M277.589 201.816L278.932 201.296L284.059 207.051L283.972 199.346L285.315 198.827L285.358 208.842L284.292 209.255L277.589 201.816ZM276.978 202.052L278.255 201.558L280.73 207.298L281.852 210.199L280.354 210.778L276.978 202.052ZM284.65 199.084L285.932 198.588L289.308 207.315L287.804 207.896L286.682 204.996L284.65 199.084ZM294.261 203.642L292.343 198.685L293.794 198.124L296.302 204.609L294.936 205.137L294.261 203.642ZM293.943 202.214L294.424 202.014C294.592 202.45 294.7 202.87 294.746 203.275C294.791 203.675 294.766 204.05 294.671 204.399C294.575 204.744 294.4 205.053 294.147 205.325C293.893 205.594 293.548 205.812 293.112 205.981C292.797 206.103 292.489 206.169 292.19 206.179C291.891 206.189 291.608 206.135 291.342 206.018C291.08 205.899 290.838 205.705 290.615 205.438C290.392 205.17 290.198 204.823 290.032 204.395L288.412 200.206L289.856 199.647L291.481 203.849C291.573 204.084 291.677 204.271 291.795 204.409C291.911 204.544 292.036 204.64 292.169 204.699C292.302 204.758 292.44 204.782 292.583 204.773C292.726 204.763 292.87 204.731 293.014 204.675C293.425 204.516 293.718 204.311 293.892 204.06C294.068 203.803 294.153 203.518 294.146 203.203C294.144 202.888 294.076 202.558 293.943 202.214ZM298.247 196.401L298.655 197.456L294.999 198.87L294.591 197.815L298.247 196.401ZM295.031 195.819L296.476 195.26L298.906 201.542C298.983 201.741 299.07 201.884 299.168 201.971C299.268 202.051 299.377 202.089 299.495 202.085C299.613 202.081 299.741 202.052 299.881 201.998C299.981 201.959 300.075 201.916 300.162 201.868C300.249 201.821 300.319 201.78 300.37 201.747L300.803 202.847C300.697 202.93 300.569 203.016 300.42 203.105C300.275 203.194 300.101 203.277 299.897 203.356C299.565 203.484 299.249 203.54 298.949 203.523C298.647 203.502 298.372 203.386 298.124 203.174C297.877 202.961 297.667 202.634 297.496 202.19L295.031 195.819ZM305.023 199.74L303.827 196.647C303.737 196.416 303.618 196.232 303.469 196.097C303.32 195.961 303.142 195.881 302.935 195.855C302.731 195.828 302.502 195.864 302.246 195.963C302.01 196.055 301.822 196.173 301.681 196.32C301.54 196.466 301.448 196.626 301.405 196.799C301.361 196.972 301.373 197.144 301.44 197.316L300.001 197.872C299.902 197.617 299.868 197.345 299.899 197.057C299.931 196.77 300.028 196.486 300.191 196.207C300.354 195.928 300.578 195.671 300.864 195.437C301.15 195.202 301.497 195.006 301.904 194.848C302.392 194.66 302.855 194.575 303.294 194.593C303.737 194.61 304.131 194.743 304.475 194.991C304.821 195.234 305.09 195.603 305.282 196.098L306.397 198.981C306.511 199.277 306.634 199.535 306.765 199.755C306.899 199.97 307.039 200.148 307.185 200.288L307.222 200.384L305.742 200.957C305.614 200.827 305.483 200.651 305.351 200.426C305.22 200.196 305.111 199.968 305.023 199.74ZM304.21 197.016L304.568 197.904L303.531 198.305C303.263 198.409 303.038 198.526 302.854 198.657C302.669 198.783 302.527 198.921 302.428 199.069C302.329 199.218 302.272 199.373 302.257 199.535C302.241 199.697 302.267 199.864 302.333 200.036C302.4 200.208 302.501 200.35 302.636 200.463C302.77 200.572 302.929 200.637 303.112 200.659C303.298 200.678 303.502 200.645 303.721 200.56C304.017 200.446 304.252 200.286 304.425 200.082C304.601 199.871 304.719 199.653 304.778 199.428C304.837 199.199 304.839 199.003 304.785 198.84L305.501 199.3C305.516 199.483 305.502 199.69 305.459 199.923C305.416 200.155 305.334 200.394 305.212 200.638C305.093 200.877 304.925 201.101 304.707 201.309C304.493 201.516 304.218 201.684 303.883 201.814C303.459 201.978 303.049 202.04 302.652 202.001C302.254 201.957 301.906 201.828 301.607 201.613C301.306 201.394 301.085 201.1 300.942 200.733C300.809 200.389 300.756 200.061 300.782 199.748C300.81 199.429 300.915 199.131 301.097 198.854C301.284 198.575 301.543 198.319 301.875 198.085C302.205 197.847 302.606 197.636 303.078 197.454L304.21 197.016ZM307.946 194.241L309.919 199.341L308.475 199.9L305.966 193.415L307.327 192.889L307.946 194.241ZM308.315 195.958L307.845 196.133C307.671 195.672 307.572 195.226 307.547 194.795C307.527 194.361 307.575 193.964 307.692 193.602C307.813 193.238 308.003 192.921 308.262 192.651C308.519 192.377 308.841 192.165 309.228 192.015C309.54 191.895 309.839 191.83 310.124 191.82C310.413 191.805 310.684 191.859 310.938 191.981C311.196 192.102 311.432 192.297 311.647 192.568C311.86 192.834 312.053 193.189 312.224 193.633L313.845 197.822L312.395 198.383L310.772 194.188C310.651 193.876 310.51 193.648 310.349 193.504C310.19 193.354 310.01 193.275 309.808 193.265C309.61 193.25 309.384 193.291 309.133 193.389C308.885 193.485 308.683 193.622 308.528 193.802C308.372 193.982 308.261 194.188 308.195 194.42C308.133 194.651 308.111 194.898 308.13 195.162C308.15 195.425 308.211 195.691 308.315 195.958ZM315.784 189.617L316.192 190.672L312.536 192.086L312.128 191.031L315.784 189.617ZM312.568 189.035L314.012 188.476L316.442 194.757C316.52 194.957 316.607 195.1 316.705 195.186C316.805 195.267 316.914 195.305 317.032 195.301C317.149 195.297 317.278 195.268 317.418 195.214C317.518 195.175 317.612 195.132 317.699 195.084C317.786 195.037 317.855 194.996 317.907 194.963L318.339 196.063C318.233 196.145 318.106 196.231 317.957 196.321C317.812 196.41 317.637 196.493 317.434 196.572C317.102 196.7 316.786 196.756 316.485 196.739C316.183 196.718 315.909 196.601 315.661 196.389C315.414 196.177 315.204 195.85 315.033 195.406L312.568 189.035ZM327.784 191.107L328.229 192.258L322.38 194.521L321.997 193.532L323.639 189.334C323.815 188.862 323.943 188.463 324.024 188.138C324.105 187.813 324.142 187.534 324.135 187.303C324.131 187.066 324.091 186.849 324.015 186.653C323.908 186.378 323.763 186.156 323.578 185.988C323.397 185.815 323.185 185.707 322.943 185.662C322.699 185.614 322.437 185.644 322.157 185.753C321.834 185.878 321.589 186.053 321.423 186.278C321.258 186.503 321.167 186.76 321.151 187.051C321.133 187.338 321.186 187.64 321.308 187.955L319.863 188.514C319.667 188.007 319.604 187.498 319.673 186.989C319.741 186.476 319.947 186.011 320.29 185.593C320.632 185.171 321.113 184.84 321.733 184.601C322.316 184.375 322.849 184.281 323.333 184.32C323.816 184.358 324.233 184.516 324.584 184.793C324.939 185.069 325.211 185.453 325.401 185.945C325.506 186.216 325.567 186.503 325.582 186.805C325.598 187.106 325.576 187.423 325.516 187.754C325.458 188.08 325.371 188.419 325.255 188.771C325.137 189.12 324.999 189.481 324.84 189.855L323.757 192.665L327.784 191.107Z" fill="#EAEAEA"></path>
  <rect width="147.032" height="19.7415" transform="translate(348.589 150.11) rotate(-14.3703)" fill="#84D8B4"></rect>
  <path d="M361.91 151.873L365.116 151.052C365.805 150.875 366.419 150.829 366.958 150.912C367.496 150.995 367.947 151.207 368.308 151.548C368.673 151.883 368.931 152.348 369.083 152.941C369.199 153.394 369.218 153.813 369.14 154.2C369.062 154.587 368.902 154.938 368.66 155.252C368.417 155.562 368.102 155.835 367.716 156.071L367.302 156.423L364.419 157.161L364.089 155.925L366.25 155.372C366.623 155.276 366.917 155.13 367.132 154.934C367.347 154.737 367.488 154.509 367.554 154.248C367.623 153.983 367.62 153.705 367.546 153.415C367.465 153.099 367.333 152.841 367.149 152.641C366.968 152.435 366.735 152.302 366.45 152.243C366.163 152.179 365.825 152.197 365.435 152.297L363.792 152.718L365.795 160.537L364.232 160.937L361.91 151.873ZM369.406 159.612L366.233 156.086L367.869 155.66L371.053 159.103L371.074 159.184L369.406 159.612ZM375.115 158.282C374.617 158.409 374.146 158.444 373.702 158.385C373.261 158.321 372.861 158.178 372.504 157.956C372.15 157.732 371.848 157.44 371.596 157.08C371.345 156.72 371.16 156.31 371.042 155.849L370.978 155.6C370.843 155.073 370.798 154.576 370.842 154.109C370.886 153.642 371.006 153.223 371.202 152.849C371.397 152.472 371.661 152.155 371.993 151.897C372.325 151.64 372.709 151.455 373.145 151.343C373.626 151.22 374.068 151.193 374.471 151.262C374.873 151.332 375.231 151.483 375.543 151.717C375.858 151.946 376.125 152.247 376.344 152.62C376.568 152.992 376.742 153.42 376.866 153.906L377.03 154.547L371.826 155.88L371.55 154.803L375.273 153.85L375.243 153.731C375.165 153.464 375.046 153.224 374.886 153.013C374.73 152.801 374.534 152.648 374.297 152.554C374.061 152.46 373.777 152.455 373.445 152.54C373.196 152.604 372.988 152.715 372.82 152.873C372.656 153.025 372.535 153.218 372.457 153.45C372.38 153.682 372.342 153.948 372.343 154.249C372.348 154.544 372.395 154.866 372.485 155.214L372.548 155.463C372.624 155.758 372.734 156.022 372.877 156.255C373.024 156.482 373.2 156.669 373.406 156.816C373.611 156.962 373.84 157.06 374.092 157.111C374.342 157.157 374.611 157.144 374.897 157.07C375.258 156.978 375.561 156.823 375.806 156.605C376.051 156.388 376.244 156.12 376.383 155.801L377.37 156.364C377.279 156.613 377.142 156.865 376.96 157.119C376.776 157.37 376.532 157.598 376.226 157.805C375.925 158.01 375.555 158.169 375.115 158.282ZM381.426 155.391C381.671 155.328 381.879 155.224 382.049 155.079C382.223 154.928 382.348 154.75 382.423 154.545C382.503 154.339 382.52 154.12 382.474 153.889L383.887 153.527C383.99 153.965 383.963 154.394 383.806 154.815C383.648 155.235 383.391 155.604 383.034 155.921C382.677 156.234 382.249 156.454 381.751 156.582C381.236 156.713 380.766 156.741 380.339 156.665C379.912 156.584 379.532 156.42 379.199 156.174C378.866 155.928 378.583 155.618 378.35 155.244C378.121 154.869 377.947 154.449 377.828 153.984L377.772 153.767C377.653 153.302 377.604 152.85 377.624 152.411C377.648 151.968 377.746 151.558 377.919 151.181C378.093 150.805 378.348 150.481 378.685 150.209C379.021 149.933 379.445 149.729 379.955 149.599C380.495 149.46 380.995 149.447 381.457 149.559C381.918 149.666 382.314 149.881 382.644 150.203C382.978 150.52 383.213 150.929 383.35 151.429L381.936 151.791C381.86 151.545 381.741 151.337 381.577 151.166C381.417 150.991 381.222 150.868 380.992 150.799C380.767 150.728 380.517 150.728 380.243 150.799C379.94 150.876 379.705 151.003 379.537 151.178C379.369 151.35 379.256 151.556 379.198 151.796C379.139 152.032 379.118 152.287 379.135 152.562C379.156 152.831 379.201 153.104 379.273 153.382L379.329 153.6C379.4 153.878 379.492 154.142 379.604 154.392C379.717 154.642 379.856 154.856 380.021 155.035C380.189 155.208 380.389 155.332 380.62 155.405C380.85 155.474 381.119 155.47 381.426 155.391ZM384.48 152.24L384.443 152.097C384.319 151.612 384.274 151.143 384.309 150.692C384.342 150.237 384.453 149.822 384.64 149.447C384.83 149.066 385.096 148.741 385.438 148.472C385.784 148.198 386.201 147.998 386.691 147.873C387.185 147.746 387.647 147.721 388.078 147.796C388.511 147.866 388.903 148.023 389.252 148.265C389.601 148.503 389.899 148.813 390.148 149.196C390.395 149.575 390.581 150.007 390.706 150.493L390.742 150.636C390.867 151.122 390.911 151.59 390.877 152.041C390.842 152.492 390.729 152.908 390.539 153.288C390.348 153.665 390.082 153.989 389.741 154.263C389.399 154.532 388.982 154.729 388.493 154.854C387.999 154.981 387.535 155.009 387.101 154.939C386.671 154.863 386.281 154.707 385.933 154.469C385.583 154.226 385.285 153.916 385.037 153.537C384.79 153.158 384.604 152.726 384.48 152.24ZM385.943 151.713L385.98 151.856C386.058 152.159 386.162 152.437 386.293 152.691C386.425 152.945 386.583 153.157 386.768 153.326C386.953 153.495 387.164 153.612 387.401 153.675C387.638 153.738 387.9 153.732 388.187 153.659C388.465 153.588 388.69 153.468 388.864 153.3C389.042 153.13 389.171 152.927 389.252 152.69C389.332 152.452 389.369 152.191 389.362 151.905C389.36 151.618 389.32 151.323 389.242 151.02L389.205 150.877C389.129 150.578 389.023 150.305 388.889 150.056C388.757 149.802 388.597 149.589 388.407 149.417C388.221 149.243 388.009 149.125 387.772 149.062C387.537 148.994 387.279 148.996 386.997 149.068C386.715 149.14 386.485 149.263 386.309 149.437C386.135 149.605 386.009 149.81 385.929 150.052C385.849 150.293 385.813 150.557 385.82 150.842C385.826 151.124 385.867 151.414 385.943 151.713ZM392.969 147.856L394.344 153.223L392.843 153.607L391.118 146.871L392.531 146.509L392.969 147.856ZM393.174 149.668L392.662 149.793C392.543 149.328 392.491 148.883 392.506 148.459C392.522 148.035 392.604 147.649 392.754 147.301C392.902 146.949 393.122 146.652 393.414 146.409C393.709 146.161 394.076 145.981 394.516 145.868C394.823 145.789 395.115 145.763 395.391 145.79C395.671 145.811 395.929 145.893 396.164 146.036C396.404 146.178 396.612 146.386 396.788 146.659C396.969 146.931 397.113 147.279 397.221 147.702L398.371 152.191L396.871 152.575L395.755 148.217C395.671 147.89 395.555 147.645 395.408 147.484C395.264 147.321 395.091 147.224 394.888 147.192C394.689 147.155 394.464 147.168 394.215 147.232C393.933 147.304 393.706 147.42 393.535 147.579C393.367 147.737 393.245 147.925 393.168 148.144C393.092 148.362 393.056 148.602 393.06 148.861C393.065 149.121 393.103 149.39 393.174 149.668ZM397.249 148.199L396.586 148.535C396.482 148.128 396.439 147.73 396.459 147.34C396.481 146.945 396.568 146.583 396.717 146.253C396.87 145.917 397.09 145.629 397.378 145.387C397.665 145.145 398.021 144.97 398.444 144.862C398.788 144.773 399.108 144.742 399.402 144.769C399.699 144.79 399.969 144.876 400.211 145.026C400.453 145.176 400.665 145.398 400.846 145.692C401.026 145.982 401.174 146.351 401.289 146.8L402.405 151.157L400.899 151.543L399.781 147.179C399.694 146.839 399.576 146.588 399.429 146.427C399.286 146.265 399.116 146.171 398.919 146.146C398.721 146.117 398.498 146.135 398.249 146.198C398.017 146.258 397.823 146.354 397.666 146.487C397.513 146.615 397.396 146.771 397.315 146.955C397.233 147.135 397.186 147.331 397.174 147.542C397.166 147.752 397.191 147.971 397.249 148.199ZM401.506 141.198L403.006 140.814L405.087 148.938L405.312 150.412L403.955 150.76L401.506 141.198ZM408.972 145.82L409.005 145.95C409.133 146.448 409.194 146.921 409.19 147.369C409.188 147.812 409.115 148.215 408.969 148.58C408.828 148.943 408.615 149.252 408.331 149.506C408.05 149.755 407.695 149.935 407.268 150.044C406.849 150.151 406.463 150.166 406.112 150.088C405.76 150.01 405.441 149.853 405.155 149.617C404.873 149.379 404.616 149.076 404.385 148.706C404.153 148.337 403.948 147.916 403.769 147.444L403.662 147.027C403.591 146.524 403.568 146.056 403.595 145.625C403.621 145.189 403.7 144.8 403.833 144.456C403.969 144.107 404.171 143.815 404.437 143.578C404.708 143.341 405.051 143.169 405.466 143.063C405.898 142.952 406.299 142.938 406.669 143.02C407.044 143.101 407.38 143.266 407.679 143.517C407.976 143.764 408.233 144.083 408.448 144.474C408.668 144.865 408.842 145.313 408.972 145.82ZM407.505 146.335L407.472 146.204C407.394 145.901 407.296 145.623 407.178 145.37C407.059 145.113 406.916 144.898 406.748 144.724C406.583 144.55 406.389 144.429 406.164 144.363C405.942 144.292 405.688 144.293 405.402 144.366C405.136 144.434 404.92 144.538 404.752 144.678C404.585 144.819 404.457 144.984 404.369 145.175C404.28 145.365 404.225 145.574 404.204 145.801C404.187 146.026 404.196 146.263 404.233 146.51L404.522 147.636C404.639 147.938 404.791 148.204 404.978 148.435C405.169 148.66 405.396 148.823 405.661 148.923C405.924 149.02 406.232 149.022 406.585 148.932C406.863 148.861 407.083 148.745 407.245 148.584C407.408 148.423 407.519 148.228 407.58 148C407.644 147.767 407.667 147.509 407.647 147.227C407.632 146.943 407.585 146.646 407.505 146.335ZM411.001 141.777L412.727 148.513L411.22 148.899L409.495 142.163L411.001 141.777ZM408.942 140.421C408.883 140.192 408.91 139.984 409.021 139.797C409.135 139.604 409.327 139.473 409.597 139.404C409.862 139.336 410.092 139.359 410.285 139.473C410.476 139.583 410.602 139.752 410.66 139.98C410.718 140.205 410.689 140.411 410.573 140.6C410.458 140.789 410.268 140.917 410.002 140.985C409.732 141.054 409.501 141.034 409.31 140.924C409.122 140.812 408.999 140.645 408.942 140.421ZM414.501 142.413L415.858 147.711L414.358 148.095L412.632 141.359L414.045 140.997L414.501 142.413ZM414.664 144.162L414.176 144.28C414.058 143.802 414.013 143.347 414.039 142.916C414.07 142.483 414.165 142.094 414.324 141.748C414.487 141.401 414.713 141.109 415.001 140.872C415.289 140.63 415.634 140.458 416.036 140.354C416.36 140.271 416.664 140.242 416.949 140.266C417.237 140.286 417.5 140.371 417.738 140.522C417.98 140.672 418.192 140.895 418.373 141.189C418.553 141.479 418.703 141.854 418.821 142.314L419.935 146.666L418.429 147.052L417.313 142.694C417.23 142.371 417.116 142.128 416.973 141.965C416.833 141.798 416.664 141.697 416.465 141.664C416.269 141.626 416.041 141.64 415.779 141.707C415.522 141.773 415.306 141.886 415.13 142.046C414.954 142.206 414.82 142.398 414.726 142.62C414.637 142.842 414.587 143.085 414.575 143.349C414.563 143.613 414.592 143.884 414.664 144.162ZM424.918 143.95L424.095 140.738C424.034 140.497 423.937 140.301 423.805 140.149C423.673 139.997 423.506 139.896 423.303 139.846C423.104 139.795 422.872 139.804 422.606 139.872C422.361 139.935 422.16 140.03 422.003 140.159C421.846 140.288 421.736 140.435 421.672 140.602C421.609 140.769 421.6 140.941 421.646 141.12L420.152 141.502C420.084 141.237 420.082 140.963 420.147 140.681C420.212 140.399 420.342 140.129 420.536 139.871C420.731 139.614 420.985 139.385 421.296 139.186C421.608 138.987 421.975 138.833 422.399 138.724C422.905 138.595 423.375 138.565 423.809 138.635C424.246 138.704 424.622 138.882 424.934 139.169C425.249 139.451 425.473 139.849 425.605 140.364L426.372 143.358C426.451 143.665 426.542 143.936 426.646 144.17C426.754 144.399 426.872 144.592 427 144.75L427.026 144.849L425.488 145.243C425.376 145.099 425.268 144.908 425.162 144.67C425.06 144.426 424.979 144.186 424.918 143.95ZM424.433 141.149L424.683 142.073L423.606 142.349C423.328 142.42 423.09 142.51 422.892 142.618C422.693 142.722 422.536 142.842 422.42 142.978C422.305 143.113 422.23 143.261 422.195 143.42C422.161 143.579 422.167 143.748 422.212 143.927C422.258 144.105 422.341 144.258 422.463 144.386C422.583 144.51 422.733 144.594 422.912 144.636C423.095 144.678 423.3 144.669 423.529 144.611C423.836 144.532 424.087 144.401 424.284 144.218C424.483 144.03 424.626 143.828 424.712 143.611C424.797 143.39 424.822 143.196 424.788 143.028L425.444 143.57C425.438 143.752 425.4 143.957 425.329 144.183C425.259 144.409 425.149 144.636 425 144.864C424.854 145.087 424.66 145.29 424.419 145.471C424.182 145.651 423.889 145.786 423.541 145.875C423.101 145.988 422.686 146.001 422.297 145.915C421.907 145.825 421.576 145.655 421.304 145.406C421.032 145.153 420.846 144.836 420.749 144.454C420.657 144.097 420.643 143.765 420.705 143.457C420.771 143.144 420.911 142.86 421.124 142.607C421.342 142.352 421.63 142.128 421.987 141.934C422.343 141.737 422.766 141.576 423.256 141.45L424.433 141.149ZM428.47 138.834L429.827 144.132L428.327 144.516L426.601 137.78L428.014 137.418L428.47 138.834ZM428.633 140.583L428.146 140.701C428.028 140.223 427.982 139.768 428.009 139.337C428.039 138.905 428.134 138.515 428.293 138.169C428.456 137.822 428.682 137.53 428.971 137.293C429.258 137.051 429.603 136.879 430.006 136.775C430.329 136.692 430.634 136.663 430.919 136.687C431.207 136.707 431.469 136.792 431.707 136.943C431.949 137.093 432.161 137.316 432.342 137.61C432.523 137.9 432.672 138.275 432.79 138.735L433.905 143.087L432.398 143.473L431.282 139.115C431.199 138.792 431.086 138.549 430.943 138.386C430.802 138.219 430.633 138.118 430.434 138.085C430.239 138.047 430.01 138.061 429.749 138.128C429.491 138.194 429.275 138.307 429.099 138.467C428.923 138.627 428.789 138.819 428.696 139.041C428.607 139.263 428.556 139.506 428.544 139.77C428.532 140.034 428.562 140.305 428.633 140.583ZM436.798 135.168L437.079 136.263L433.282 137.236L433.001 136.141L436.798 135.168ZM433.674 134.21L435.174 133.826L436.846 140.35C436.899 140.557 436.969 140.71 437.056 140.807C437.145 140.899 437.249 140.95 437.367 140.959C437.484 140.969 437.615 140.955 437.761 140.918C437.864 140.892 437.962 140.86 438.055 140.823C438.147 140.786 438.221 140.754 438.275 140.727L438.575 141.87C438.46 141.94 438.323 142.01 438.165 142.082C438.011 142.152 437.827 142.215 437.616 142.269C437.271 142.357 436.951 142.375 436.654 142.323C436.357 142.266 436.098 142.118 435.877 141.878C435.657 141.639 435.487 141.288 435.369 140.828L433.674 134.21ZM441.319 131.529L442.713 131.171L447.125 137.491L447.949 129.83L449.343 129.473L448.204 139.423L447.096 139.707L441.319 131.529ZM440.684 131.691L442.01 131.352L443.79 137.343L444.562 140.356L443.006 140.755L440.684 131.691ZM448.652 129.65L449.984 129.308L452.307 138.372L450.744 138.773L449.972 135.76L448.652 129.65ZM457.658 135.31L456.339 130.161L457.846 129.775L459.571 136.511L458.152 136.875L457.658 135.31ZM457.511 133.855L458.012 133.713C458.128 134.165 458.185 134.595 458.183 135.003C458.18 135.406 458.111 135.775 457.976 136.11C457.84 136.442 457.63 136.728 457.347 136.968C457.062 137.205 456.694 137.381 456.242 137.497C455.914 137.581 455.601 137.61 455.302 137.585C455.004 137.56 454.73 137.473 454.479 137.325C454.233 137.176 454.015 136.955 453.826 136.663C453.636 136.371 453.484 136.003 453.37 135.559L452.255 131.208L453.756 130.823L454.874 135.187C454.936 135.432 455.018 135.63 455.119 135.781C455.218 135.928 455.331 136.039 455.456 136.113C455.581 136.187 455.715 136.228 455.859 136.235C456.002 136.242 456.148 136.227 456.298 136.189C456.725 136.079 457.04 135.91 457.243 135.681C457.448 135.447 457.566 135.174 457.596 134.861C457.631 134.547 457.602 134.212 457.511 133.855ZM462.471 128.59L462.752 129.686L458.954 130.659L458.674 129.563L462.471 128.59ZM459.347 127.633L460.847 127.249L462.518 133.773C462.571 133.98 462.641 134.132 462.728 134.23C462.818 134.321 462.922 134.372 463.039 134.382C463.157 134.392 463.288 134.378 463.433 134.341C463.537 134.314 463.635 134.282 463.727 134.246C463.82 134.209 463.893 134.177 463.948 134.149L464.248 135.293C464.133 135.362 463.996 135.433 463.838 135.504C463.683 135.575 463.5 135.637 463.289 135.691C462.944 135.78 462.624 135.798 462.327 135.745C462.03 135.689 461.771 135.541 461.55 135.301C461.329 135.061 461.16 134.711 461.042 134.25L459.347 127.633ZM468.806 132.706L467.983 129.493C467.921 129.253 467.824 129.056 467.693 128.904C467.561 128.752 467.393 128.652 467.191 128.602C466.992 128.551 466.76 128.56 466.494 128.628C466.249 128.69 466.048 128.786 465.891 128.915C465.734 129.044 465.623 129.191 465.56 129.358C465.496 129.525 465.488 129.697 465.533 129.876L464.039 130.258C463.971 129.993 463.97 129.719 464.035 129.437C464.099 129.155 464.229 128.885 464.424 128.627C464.619 128.37 464.872 128.141 465.184 127.942C465.495 127.743 465.863 127.589 466.286 127.48C466.793 127.35 467.263 127.321 467.696 127.391C468.134 127.46 468.509 127.638 468.822 127.925C469.137 128.207 469.361 128.605 469.493 129.12L470.26 132.114C470.338 132.421 470.43 132.692 470.534 132.926C470.641 133.155 470.759 133.348 470.888 133.506L470.914 133.605L469.376 133.999C469.264 133.855 469.155 133.664 469.05 133.426C468.948 133.182 468.866 132.942 468.806 132.706ZM468.32 129.904L468.57 130.829L467.493 131.105C467.215 131.176 466.977 131.266 466.78 131.374C466.581 131.478 466.423 131.598 466.308 131.734C466.192 131.869 466.117 132.017 466.083 132.176C466.049 132.335 466.054 132.504 466.1 132.682C466.146 132.861 466.229 133.014 466.35 133.142C466.471 133.266 466.62 133.35 466.799 133.392C466.982 133.434 467.188 133.425 467.416 133.367C467.723 133.288 467.975 133.157 468.171 132.974C468.371 132.786 468.514 132.584 468.6 132.367C468.685 132.146 468.71 131.952 468.676 131.784L469.332 132.325C469.326 132.508 469.287 132.713 469.217 132.939C469.147 133.164 469.037 133.392 468.888 133.62C468.741 133.843 468.548 134.045 468.307 134.227C468.07 134.407 467.777 134.541 467.428 134.631C466.988 134.743 466.574 134.757 466.185 134.671C465.795 134.581 465.464 134.411 465.192 134.162C464.919 133.909 464.734 133.592 464.636 133.21C464.545 132.853 464.53 132.521 464.593 132.213C464.659 131.9 464.798 131.616 465.012 131.362C465.23 131.108 465.517 130.884 465.875 130.69C466.231 130.493 466.654 130.331 467.144 130.206L468.32 129.904ZM472.358 127.59L473.715 132.887L472.215 133.272L470.489 126.536L471.902 126.174L472.358 127.59ZM472.521 129.339L472.033 129.457C471.915 128.979 471.87 128.524 471.896 128.093C471.927 127.66 472.022 127.271 472.181 126.925C472.344 126.578 472.57 126.286 472.858 126.048C473.146 125.807 473.491 125.634 473.893 125.531C474.217 125.448 474.521 125.419 474.806 125.443C475.094 125.462 475.357 125.548 475.595 125.699C475.837 125.849 476.049 126.071 476.23 126.366C476.41 126.655 476.56 127.031 476.678 127.491L477.792 131.843L476.286 132.229L475.17 127.871C475.087 127.547 474.974 127.304 474.83 127.142C474.69 126.975 474.521 126.874 474.322 126.841C474.126 126.803 473.898 126.817 473.636 126.884C473.379 126.95 473.163 127.063 472.987 127.223C472.811 127.383 472.677 127.574 472.583 127.797C472.494 128.019 472.444 128.262 472.432 128.526C472.42 128.79 472.449 129.061 472.521 129.339ZM480.686 123.924L480.967 125.019L477.169 125.992L476.889 124.897L480.686 123.924ZM477.561 122.966L479.062 122.582L480.733 129.106C480.786 129.313 480.856 129.466 480.943 129.563C481.033 129.655 481.137 129.706 481.254 129.715C481.372 129.725 481.503 129.711 481.648 129.674C481.752 129.647 481.85 129.616 481.942 129.579C482.035 129.542 482.108 129.51 482.163 129.482L482.463 130.626C482.348 130.696 482.211 130.766 482.053 130.838C481.898 130.908 481.715 130.97 481.503 131.025C481.159 131.113 480.839 131.131 480.542 131.079C480.245 131.022 479.986 130.874 479.765 130.634C479.544 130.394 479.375 130.044 479.257 129.584L477.561 122.966Z" fill="#282753"></path>
  <path d="M215.136 394.265L224.89 391.745L222.371 381.991L212.617 384.51L215.136 394.265ZM219.816 388.754L312.313 231.825L310.187 230.572L217.69 387.501L219.816 388.754Z" fill="#D9D9D9"></path>
  <path d="M495.57 146.378L486.359 142.296L482.278 151.507L491.488 155.588L495.57 146.378ZM338.016 208.495L489.368 150.093L488.479 147.791L337.128 206.193L338.016 208.495Z" fill="#84D8B4"></path>
  <path d="M306.454 238.944H316.529V228.87H306.454V238.944ZM342.851 202.548H332.776V212.622H342.851V202.548ZM312.364 234.779L338.686 208.457L336.941 206.713L310.619 233.035L312.364 234.779Z" fill="#282753"></path>
</svg>
