<?xml version="1.0" encoding="UTF-8"?>
<svg xmlns="http://www.w3.org/2000/svg" id="Iconos" viewBox="0 0 907.09 907.09">
  <defs>
    <style>.cls-1{fill:#2a2853}</style>
  </defs>
  <path class="cls-1" d="M780.72 29.3h-454.8c-23.45 0-42.52 19.07-42.52 42.52v32.42c0 7.83 6.35 14.17 14.17 14.17s14.17-6.34 14.17-14.17V71.82c0-7.82 6.36-14.17 14.17-14.17h454.8c7.82 0 14.17 6.36 14.17 14.17v651.01c0 7.82-6.36 14.17-14.17 14.17H668.55c-7.83 0-14.17 6.34-14.17 14.17s6.35 14.17 14.17 14.17h112.16c23.45 0 42.52-19.07 42.52-42.52v-651c0-23.45-19.07-42.52-42.52-42.52z"></path>
  <path class="cls-1" d="M583.08 143.37h-454.8c-23.45 0-42.52 19.07-42.52 42.52V836.9c0 23.45 19.07 42.52 42.52 42.52h454.8c23.45 0 42.52-19.07 42.52-42.52V185.89c0-23.45-19.07-42.52-42.52-42.52zm-37.16 622.99h-384c-7.83 0-14.17-6.34-14.17-14.17s6.35-14.17 14.17-14.17h384c7.83 0 14.17 6.34 14.17 14.17s-6.35 14.17-14.17 14.17zm0-161.89h-384c-7.83 0-14.17-6.34-14.17-14.17s6.35-14.17 14.17-14.17h384c7.83 0 14.17 6.34 14.17 14.17s-6.35 14.17-14.17 14.17zm0-161.88h-384c-7.83 0-14.17-6.34-14.17-14.17s6.35-14.17 14.17-14.17h384c7.83 0 14.17 6.34 14.17 14.17s-6.35 14.17-14.17 14.17zm0-161.88h-384c-7.83 0-14.17-6.34-14.17-14.17s6.35-14.17 14.17-14.17h384c7.83 0 14.17 6.34 14.17 14.17s-6.35 14.17-14.17 14.17z"></path>
</svg>
