<?xml version="1.0" encoding="UTF-8"?>
<svg xmlns="http://www.w3.org/2000/svg" id="Iconos" viewBox="0 0 907.09 907.09">
  <defs>
    <style>
      .cls-1 {
        fill: #2a2853;
      }
    </style>
  </defs>
  <path class="cls-1" d="M825.72,245.12c-34.53-61.32-84.25-113.63-143.77-151.26-67.83-42.91-146.32-65.6-226.97-65.6-20.19,0-40.48,1.43-60.29,4.25-100.41,14.26-192.68,64.35-259.81,141.07C67.11,251.02,29.78,350.42,29.78,453.45c0,57.39,11.24,113.08,33.42,165.51,21.42,50.63,52.07,96.11,91.12,135.15s84.52,69.7,135.15,91.12c52.43,22.18,108.12,33.42,165.51,33.42s113.08-11.24,165.51-33.42c50.63-21.42,96.1-52.07,135.15-91.12s69.7-84.52,91.12-135.15c22.18-52.43,33.42-108.12,33.42-165.51,0-73.03-18.83-145.07-54.45-208.33ZM666.8,117.81c42.85,27.09,80.25,62.34,109.91,103.29-13.23-1.1-27.22.41-41.87,4.52-21.31,5.98-44.32,17.5-70.35,35.23-4.58,3.12-9.24,6.35-13.75,9.48-35.15,24.41-71.5,49.64-110.82,47.99-24.14-1.01-47.98-15.21-63.78-37.97s-20.76-50.06-13.27-73.03c5.34-16.38,15.58-31.05,25.86-44.46,20.74-27.08,45.93-59.95,38.69-99.64,49.37,9.12,96.65,27.54,139.38,54.57ZM58.13,453.45c0-96.16,34.83-188.93,98.09-261.21,16.63-19.01,34.93-36.25,54.58-51.59,6.46,17.11,1.37,42.25-3.97,68.6-4.5,22.19-9.15,45.14-7.67,66.72,1.5,21.87,9.99,45.33,18.2,68.01,12.3,33.98,25.02,69.11,14.29,97.72-17.73,47.28-45.67,53.19-91.97,62.98-22.28,4.71-47.14,9.98-75.04,20.82-4.32-23.59-6.5-47.65-6.5-72.05ZM820.65,607.92c-19.99,47.26-48.6,89.7-85.05,126.15-36.45,36.45-78.89,65.07-126.15,85.06-48.92,20.69-100.89,31.18-154.47,31.18-44.26,0-87.42-7.17-128.67-21.32-.29-.61-.61-1.21-.99-1.79-13.46-20.29-16.5-48.17-8.13-74.58,8.37-26.41,26.91-47.46,49.59-56.29,15.89-6.19,34.08-7.92,51.66-9.58l128.43-12.2c18.18-1.73,73.49-6.98,85.59-49.18,2.37-8.27,2.44-16.41,2.51-23.6.03-3.11.05-6.04.25-8.81,2.77-38.88,42.64-67.14,79.59-72.02,22.9-3.02,57.51-2.54,122.49,28.2.88.42,1.78.73,2.69.96-4.93,19.67-11.38,38.97-19.35,57.82ZM845.97,521.89c-37.21-17.35-85.47-35.57-134.86-29.06-25.38,3.35-49.89,14.44-69.03,31.24-20.88,18.33-33.36,42.08-35.13,66.86-.26,3.65-.29,7.17-.32,10.57-.05,5.91-.1,11.48-1.41,16.05-4.56,15.89-24.52,25.3-61.02,28.77l-128.43,12.2c-18.61,1.77-39.7,3.77-59.27,11.39-31.06,12.1-55.23,39.12-66.33,74.15-7.51,23.72-8,47.89-1.82,69.65-42.39-19.62-80.7-46.35-113.99-79.64-36.45-36.45-65.07-78.89-85.06-126.15-7.51-17.75-13.66-35.89-18.47-54.38,27.47-11.13,52.45-16.43,74.7-21.13,48-10.15,89.45-18.91,112.64-80.76,14.39-38.39-.79-80.32-14.18-117.32-7.89-21.8-15.35-42.39-16.57-60.29-1.21-17.77,3.05-38.81,7.17-59.16,6.54-32.28,13.26-65.5-.36-91.22,49.13-32.92,105.27-54.68,164.44-63.08,18.5-2.63,37.45-3.97,56.3-3.97,14.05,0,28.03.74,41.88,2.2,10.9,29.27-5.12,53.52-30.64,86.83-11.24,14.67-23.63,32.43-30.31,52.91-10.22,31.35-3.89,67.98,16.94,97.98,20.83,30,52.93,48.74,85.88,50.12,1.63.07,3.25.1,4.87.1,46.79,0,87.37-28.18,123.31-53.13,4.45-3.09,9.06-6.29,13.53-9.34,50.98-34.7,88.89-43.49,119.23-27.62.45.79.91,1.57,1.36,2.37,33.24,59.02,50.81,126.26,50.81,194.43,0,23.15-1.96,46.01-5.86,68.44Z"></path>
</svg>
