<?xml version="1.0" encoding="UTF-8"?>
<svg xmlns="http://www.w3.org/2000/svg" id="Iconos" viewBox="0 0 907.09 907.09">
  <defs>
    <style>
      .cls-1 {
        fill: #2a2853;
      }
    </style>
  </defs>
  <path class="cls-1" d="M765.41,708.6h-99.21c-7.83,0-14.17,6.34-14.17,14.17s6.35,14.17,14.17,14.17h66.46c-34.29,33.64-73.85,60.48-117.83,79.86-50.46,22.23-104.24,33.5-159.84,33.5s-105.55-10.49-154.47-31.18c-47.26-19.99-89.7-48.6-126.15-85.06s-65.07-78.89-85.06-126.15c-20.69-48.92-31.18-100.89-31.18-154.47,0-77.77,22.48-153.07,65.02-217.75,4.3-6.54,2.49-15.33-4.05-19.63-6.54-4.3-15.33-2.49-19.63,4.05-45.59,69.32-69.69,150.01-69.69,233.33,0,57.39,11.24,113.08,33.42,165.51,21.42,50.63,52.07,96.11,91.12,135.15,39.05,39.05,84.52,69.7,135.15,91.12,52.43,22.18,108.12,33.42,165.51,33.42s117.19-12.08,171.27-35.91c46.58-20.52,88.54-48.84,124.98-84.29v63.53c0,7.83,6.35,14.17,14.17,14.17s14.17-6.34,14.17-14.17v-99.21c0-7.83-6.35-14.17-14.17-14.17Z"></path>
  <path class="cls-1" d="M281.79,576.59c0,42.28,34.27,76.55,76.56,76.55,36.51,0,67.33-25.64,74.68-59.75,1.18-5.46,2.61-12.67,3.55-18.12,8.22-47.82,6.81-92.33-4.22-132.56-10.7-39-30.13-73.34-57.73-102.07-39.53-41.14-83.57-57.94-99.7-63.03-10-3.16-17.14-3.75-23.68-3.75-42.28,0-76.56,34.27-76.56,76.56,0,34.94,23.73,63.34,55.4,73.57,2,.65,19.35,7.34,34.14,22.74,9.86,10.26,16.56,22.2,20.48,36.5,5.75,20.95,5.46,46.79-1.09,76.73-1.17,5.35-1.83,10.9-1.83,16.62Z"></path>
  <path class="cls-1" d="M641.37,446.74c14.79-15.39,32.13-22.09,34.14-22.74,31.67-10.23,55.4-38.63,55.4-73.57,0-42.28-34.27-76.56-76.56-76.56-6.54,0-13.68.59-23.68,3.75-16.13,5.09-60.17,21.88-99.7,63.02-27.61,28.73-47.03,63.07-57.73,102.07-11.03,40.22-12.44,84.73-4.22,132.55.93,5.44,2.37,12.66,3.55,18.12,7.36,34.11,38.18,59.75,74.68,59.75,42.28,0,76.56-34.27,76.56-76.55,0-5.71-.66-11.27-1.83-16.62-6.54-29.94-6.83-55.78-1.09-76.73,3.92-14.3,10.62-26.24,20.48-36.5Z"></path>
  <path class="cls-1" d="M825.72,245.12c-34.53-61.32-84.25-113.63-143.77-151.26-67.83-42.91-146.32-65.6-226.97-65.6-20.19,0-40.48,1.43-60.29,4.25-47.38,6.73-92.93,21.32-135.39,43.36-32.31,16.77-62.17,37.54-89.13,61.89v-66.73c0-7.83-6.35-14.17-14.17-14.17s-14.17,6.34-14.17,14.17v99.21c0,7.83,6.35,14.17,14.17,14.17h99.21c7.83,0,14.17-6.34,14.17-14.17s-6.35-14.17-14.17-14.17h-63.02c24.37-21.56,51.23-40.01,80.17-55.04,39.61-20.57,82.11-34.18,126.31-40.45,18.5-2.63,37.45-3.97,56.3-3.97,75.28,0,148.52,21.17,211.82,61.21,55.57,35.14,101.99,83.97,134.22,141.21,33.24,59.03,50.81,126.26,50.81,194.43,0,72.13-19.54,142.75-56.51,204.22-4.03,6.71-1.87,15.42,4.84,19.45,2.29,1.37,4.8,2.03,7.29,2.03,4.81,0,9.5-2.45,12.16-6.87,39.62-65.88,60.56-141.56,60.56-218.83,0-73.03-18.83-145.07-54.45-208.33Z"></path>
</svg>
