<?xml version="1.0" encoding="UTF-8"?>
<svg xmlns="http://www.w3.org/2000/svg" id="Iconos" viewBox="0 0 907.09 907.09">
  <defs>
    <style>
      .cls-1 {
        fill: #2a2853;
      }
    </style>
  </defs>
  <path class="cls-1" d="M815.27,537.14c-17.41-45.23-51.76-79.25-84.98-112.15-11.41-11.3-23.21-22.98-33.93-34.78-34.97-38.51-60.5-80.58-75.88-125.05-.57-1.65-1.12-3.31-1.64-4.97,2.34.69,4.7,1.36,7.07,2.01,60.72,16.71,92.58,9.11,111.26,1.95,18.91-7.26,35.99-21.37,46.85-38.74,12.08-19.31,15.53-40.7,9.7-60.23-4.06-13.62-12.34-26.34-25.31-38.87-18.17-17.56-41.87-29.69-66.74-34.15-26.93-4.84-53.06-.03-73.57,13.54-24.77,16.39-40.3,43.31-44.89,77.87-1.42,10.71-1.77,22.01-1.07,33.57-66.36-27.62-123.24-69.46-176.34-110.76-41.73-32.45-93.69-54.28-146.3-61.45-54.56-7.43-104.73,1.8-141.27,26.01-39.18,25.95-64.91,61.44-72.45,99.93-6.07,31,.05,61.93,17.24,87.1l42.9,62.82c7.55,11.06,20.01,14.73,33.62,14.73s27.58-3.48,39.55-6.99c28.82-8.47,64.42-23.82,98.84-38.67,8.86-3.82,17.81-7.68,26.68-11.43-6.72,6.89-13.57,13.82-20.36,20.68-26.36,26.66-53.62,54.23-71.99,77.99-15.48,20.01-34.33,49.14-19.43,70.97l42.9,62.82c6.62,9.69,17.68,14.67,32.88,14.79.18,0,.37,0,.56,0,10.59,0,23.6-2.31,39.74-7.05,28.82-8.47,64.42-23.82,98.84-38.67,8.86-3.82,17.81-7.68,26.68-11.44-6.72,6.89-13.57,13.82-20.36,20.69-26.36,26.66-53.62,54.23-71.99,77.99-15.48,20.01-34.33,49.14-19.43,70.97l42.9,62.82c7.55,11.06,20.01,14.73,33.62,14.73,13.24,0,27.58-3.48,39.55-6.99,28.82-8.47,64.42-23.82,98.85-38.67,33.65-14.51,68.45-29.52,95.61-37.5,30.24-8.89,39.03-5.44,41.16-3.99,7.61,12.09,13.72,23.98,18.29,35.72-33.32,21.68-64.39,45.27-90.66,79.75-11.96,15.69-20.66,34.1-23.88,50.5-4.41,22.5,1.19,41.95,15.78,54.78,9.82,8.63,23.03,13.03,36.66,13.03,11.29,0,22.87-3.02,33.03-9.16,51.43-31.08,62.75-77.44,67.04-118.69,2.02-19.4.61-38.67-4.29-58.03,4.35-2.72,8.73-5.43,13.13-8.16,14.47-8.97,29.44-18.24,44.28-28.28,9.71-6.57,20.71-14.01,28.57-25.51,13.53-19.79,14.6-47.26,3.02-77.36ZM611.31,187.3c3.53-26.56,14.44-46.06,32.43-57.96,14.4-9.53,33.19-12.82,52.92-9.28,19.11,3.43,38.08,13.14,52.05,26.64,9.24,8.93,15.25,17.87,17.84,26.58,6.23,20.89-8.47,52.48-39.54,64.39-24.08,9.24-52.94,8.37-93.58-2.81-7.37-2.03-14.63-4.25-21.77-6.64-1.91-14.19-2.06-28.1-.35-40.92ZM266.69,263.82c-33.65,14.51-68.45,29.52-95.61,37.5-36.34,10.68-41.72,3.55-41.77,3.47l-22.35-32.73c10.1-1.16,20.31-3.75,29.22-6.37,28.82-8.47,64.42-23.82,98.84-38.67,33.65-14.51,68.45-29.52,95.61-37.5,36.34-10.68,41.72-3.55,41.77-3.47.05.07,4.74,7.68-18.44,37.64-1.77,2.29-3.66,4.63-5.61,7.01-25.08,8.72-53.82,21.11-81.66,33.12ZM396.49,453.91c-33.65,14.51-68.45,29.52-95.61,37.5-29.08,8.55-40.04,6.01-41.77,3.47-.05-.07-4.74-7.68,18.44-37.64,1.77-2.29,3.66-4.63,5.61-7.01,25.08-8.72,53.82-21.11,81.66-33.12,33.65-14.51,68.45-29.52,95.61-37.5,29.08-8.55,40.04-6.01,41.77-3.47.05.07,4.74,7.68-18.44,37.64-1.77,2.29-3.66,4.63-5.61,7.01-25.08,8.72-53.82,21.11-81.66,33.12ZM625.14,605.34c-28.82,8.47-64.42,23.82-98.84,38.67-33.65,14.51-68.45,29.52-95.61,37.5-36.34,10.68-41.72,3.55-41.77,3.47-.05-.07-4.74-7.68,18.44-37.64,1.77-2.29,3.66-4.63,5.61-7.01,25.07-8.72,53.82-21.11,81.66-33.12,33.65-14.51,68.45-29.52,95.61-37.5,36.34-10.68,41.72-3.55,41.77-3.47l22.35,32.73c-10.1,1.16-20.31,3.75-29.22,6.37ZM702.37,731.54c-3.75,36.04-12.82,72.77-53.51,97.36-11.72,7.09-27.67,6.69-36.31-.9-17.13-15.05-2.25-48.2,11.93-66.8,21.74-28.53,47.95-49.38,76.33-68.37,2.39,12.98,2.9,25.85,1.56,38.71ZM788.85,598.5c-4.81,7.04-13.07,12.62-21.05,18.03-14.36,9.72-29.09,18.84-43.32,27.66-2.51,1.56-5.02,3.11-7.51,4.66-4.62-10.97-10.37-22-17.23-33.12-.37-.91-.84-1.8-1.42-2.64l-6.14-8.99s0,0,0-.01c0,0,0,0,0,0l-36.74-53.81c-14.9-21.83-48.9-14.87-73.17-7.74-28.82,8.47-64.42,23.82-98.85,38.67-8.86,3.82-17.8,7.68-26.67,11.43,6.72-6.89,13.57-13.82,20.36-20.68,26.36-26.66,53.62-54.23,71.99-77.99,15.48-20.01,34.33-49.14,19.43-70.97l-42.89-62.82c-6.62-9.69-17.68-14.67-32.88-14.79-10.69-.09-23.87,2.22-40.3,7.05-28.82,8.47-64.42,23.82-98.84,38.67-8.86,3.82-17.8,7.68-26.68,11.43,6.72-6.89,13.57-13.82,20.36-20.68,26.36-26.66,53.62-54.23,71.99-77.99,15.48-20.01,34.33-49.14,19.43-70.97l-42.89-62.82c-14.91-21.83-48.9-14.87-73.17-7.74-28.82,8.47-64.42,23.82-98.84,38.67-33.65,14.51-68.45,29.52-95.61,37.5-36.21,10.64-41.68,3.6-41.77,3.47-12.87-18.85-17.43-42.17-12.83-65.67,6.07-30.98,27.47-60.01,60.28-81.74,30.8-20.4,74.06-28.06,121.79-21.55,47.75,6.51,94.88,26.3,132.73,55.74,58.75,45.69,122.09,92.05,198.27,120.68,1.84,8.39,4.18,16.76,7.03,24.99,16.64,48.12,44.12,93.49,81.69,134.85,11.22,12.36,23.29,24.31,34.97,35.87,32.53,32.21,63.25,62.63,78.47,102.18,11.39,29.58,3.82,45.64.03,51.18Z"></path>
</svg>
