<?xml version="1.0" encoding="UTF-8"?>
<svg xmlns="http://www.w3.org/2000/svg" id="Iconos" viewBox="0 0 907.09 907.09">
  <defs>
    <style>
      .cls-1 {
        fill: #2a2853;
      }
    </style>
  </defs>
  <path class="cls-1" d="M169.38,114.12h227.9c7.83,0,14.17-6.34,14.17-14.17s-6.35-14.17-14.17-14.17h-227.9c-23.45,0-42.52,19.07-42.52,42.52v651.01c0,23.45,19.07,42.52,42.52,42.52h227.9c7.83,0,14.17-6.35,14.17-14.17s-6.35-14.17-14.17-14.17h-227.9c-7.81,0-14.17-6.36-14.17-14.17V128.29c0-7.82,6.36-14.17,14.17-14.17Z"></path>
  <path class="cls-1" d="M748.79,108.84L492.18,39.57c-12.88-3.47-26.34-.82-36.93,7.29-10.59,8.11-16.67,20.42-16.67,33.76v746.78c0,13.37,6.1,25.69,16.73,33.81,7.53,5.75,16.5,8.74,25.68,8.74,3.78,0,7.59-.51,11.35-1.54l256.6-70.3c18.42-5.05,31.28-21.91,31.28-41.01V149.89c0-19.17-12.93-36.05-31.44-41.05ZM580.25,467.72h-70.02c-7.83,0-14.17-6.35-14.17-14.17s6.35-14.17,14.17-14.17h70.02c7.83,0,14.17,6.35,14.17,14.17s-6.35,14.17-14.17,14.17Z"></path>
</svg>
