<?xml version="1.0" encoding="UTF-8"?>
<svg xmlns="http://www.w3.org/2000/svg" id="Iconos" viewBox="0 0 907.09 907.09">
  <defs>
    <style>
      .cls-1 {
        fill: #2a2853;
      }
    </style>
  </defs>
  <path class="cls-1" d="M453.54,156.08c-7.83,0-14.17-6.34-14.17-14.17V42.7c0-7.83,6.35-14.17,14.17-14.17s14.17,6.34,14.17,14.17v99.21c0,7.83-6.35,14.17-14.17,14.17Z"></path>
  <path class="cls-1" d="M453.54,879.12c-7.83,0-14.17-6.34-14.17-14.17v-99.21c0-7.83,6.35-14.17,14.17-14.17s14.17,6.34,14.17,14.17v99.21c0,7.83-6.35,14.17-14.17,14.17Z"></path>
  <path class="cls-1" d="M864.67,467.99h-99.21c-7.83,0-14.17-6.34-14.17-14.17s6.35-14.17,14.17-14.17h99.21c7.83,0,14.17,6.34,14.17,14.17s-6.35,14.17-14.17,14.17Z"></path>
  <path class="cls-1" d="M141.63,467.99H42.42c-7.83,0-14.17-6.34-14.17-14.17s6.35-14.17,14.17-14.17h99.21c7.83,0,14.17,6.34,14.17,14.17s-6.35,14.17-14.17,14.17Z"></path>
  <path class="cls-1" d="M744.25,758.7c-3.63,0-7.25-1.38-10.02-4.15l-70.15-70.15c-5.54-5.53-5.54-14.51,0-20.04s14.51-5.54,20.04,0l70.15,70.15c5.54,5.53,5.54,14.51,0,20.04-2.77,2.77-6.4,4.15-10.02,4.15Z"></path>
  <path class="cls-1" d="M232.99,247.44c-3.63,0-7.25-1.38-10.02-4.15l-70.15-70.15c-5.54-5.54-5.54-14.51,0-20.04,5.54-5.54,14.51-5.53,20.04,0l70.15,70.15c5.54,5.54,5.54,14.51,0,20.04-2.77,2.77-6.39,4.15-10.02,4.15Z"></path>
  <path class="cls-1" d="M162.83,758.7c-3.63,0-7.25-1.38-10.02-4.15-5.54-5.54-5.54-14.51,0-20.04l70.15-70.15c5.54-5.54,14.51-5.53,20.04,0,5.54,5.54,5.54,14.51,0,20.04l-70.15,70.15c-2.77,2.77-6.39,4.15-10.02,4.15Z"></path>
  <path class="cls-1" d="M674.1,247.44c-3.63,0-7.25-1.38-10.02-4.15-5.54-5.53-5.54-14.51,0-20.04l70.15-70.15c5.54-5.53,14.51-5.54,20.04,0,5.54,5.53,5.54,14.51,0,20.04l-70.15,70.15c-2.77,2.77-6.4,4.15-10.02,4.15Z"></path>
  <path class="cls-1" d="M453.54,198.43c-140.9,0-255.12,114.22-255.12,255.12s114.22,255.12,255.12,255.12,255.12-114.22,255.12-255.12-114.22-255.12-255.12-255.12ZM583.95,365.29l-131.77,198.05c-2.46,3.69-6.5,6.02-10.93,6.3-.29.02-.58.03-.87.03-4.11,0-8.04-1.79-10.74-4.93l-105.41-122.58c-5.1-5.94-4.43-14.88,1.51-19.99,5.94-5.1,14.88-4.43,19.99,1.5l93.22,108.41,121.41-182.48c4.34-6.52,13.13-8.29,19.65-3.95s8.29,13.13,3.95,19.65Z"></path>
</svg>
