<?xml version="1.0" encoding="UTF-8"?>
<svg xmlns="http://www.w3.org/2000/svg" width="1223" height="914" viewBox="0 0 1223 914" fill="none">
  <rect width="1222.11" height="914" fill="white"></rect>
  <mask id="path-1-inside-1_97_2" fill="white">
    <path d="M168.01 461.667H999.441V606.701H168.01V461.667Z"></path>
  </mask>
  <path d="M168.01 463.103H999.441V460.231H168.01V463.103Z" fill="#EAEAEA" mask="url(#path-1-inside-1_97_2)"></path>
  <mask id="path-3-inside-2_97_2" fill="white">
    <path d="M168.01 603.829H999.441V748.862H168.01V603.829Z"></path>
  </mask>
  <path d="M168.01 605.265H999.441V602.393H168.01V605.265Z" fill="#EAEAEA" mask="url(#path-3-inside-2_97_2)"></path>
  <mask id="path-5-inside-3_97_2" fill="white">
    <path d="M168.01 318.069H999.441V463.103H168.01V318.069Z"></path>
  </mask>
  <path d="M168.01 319.505H999.441V316.633H168.01V319.505Z" fill="#EAEAEA" mask="url(#path-5-inside-3_97_2)"></path>
  <mask id="path-7-inside-4_97_2" fill="white">
    <path d="M168.01 175.907H999.441V320.941H168.01V175.907Z"></path>
  </mask>
  <path d="M168.01 177.343H999.441V174.471H168.01V177.343Z" fill="#EAEAEA" mask="url(#path-7-inside-4_97_2)"></path>
  <path d="M1000.46 750.596C1001.02 750.035 1001.02 749.126 1000.46 748.565L991.318 739.427C990.757 738.866 989.848 738.866 989.287 739.427C988.726 739.987 988.726 740.897 989.287 741.458L997.41 749.581L989.287 757.704C988.726 758.265 988.726 759.174 989.287 759.734C989.848 760.295 990.757 760.295 991.318 759.734L1000.46 750.596ZM168.01 749.581H166.574V751.017H168.01V749.581ZM169.025 148.326C168.464 147.766 167.555 147.766 166.994 148.326L157.856 157.465C157.295 158.026 157.295 158.935 157.856 159.496C158.416 160.056 159.326 160.056 159.886 159.496L168.01 151.373L176.133 159.496C176.693 160.056 177.603 160.056 178.163 159.496C178.724 158.935 178.724 158.026 178.163 157.465L169.025 148.326ZM999.441 748.145H168.01V751.017H999.441V748.145ZM169.445 749.581V149.342H166.574V749.581H169.445Z" fill="#EAEAEA"></path>
  <path d="M210.448 791.772V793.264H200.121V792.194L206.521 782.29H208.004L206.413 785.156L202.183 791.772H210.448ZM208.455 782.29V796.582H206.639V782.29H208.455Z" fill="#707070"></path>
  <path d="M125.725 753.001V754.493H115.398V753.423L121.799 743.518H123.281L121.691 746.384L117.46 753.001H125.725ZM123.732 743.518V757.811H121.916V743.518H123.732ZM129.671 751.008L128.218 750.635L128.935 743.518H136.268V745.197H130.476L130.044 749.084C130.306 748.933 130.637 748.793 131.036 748.662C131.441 748.531 131.906 748.465 132.43 748.465C133.091 748.465 133.683 748.58 134.206 748.809C134.73 749.032 135.175 749.352 135.541 749.771C135.914 750.19 136.199 750.694 136.395 751.283C136.592 751.872 136.69 752.529 136.69 753.256C136.69 753.943 136.595 754.574 136.405 755.15C136.222 755.726 135.944 756.23 135.571 756.662C135.198 757.087 134.727 757.418 134.157 757.653C133.595 757.889 132.93 758.007 132.165 758.007C131.589 758.007 131.042 757.928 130.525 757.771C130.015 757.608 129.557 757.362 129.151 757.035C128.752 756.701 128.425 756.289 128.169 755.798C127.921 755.301 127.764 754.718 127.698 754.051H129.426C129.504 754.588 129.661 755.039 129.897 755.406C130.133 755.772 130.44 756.05 130.82 756.24C131.206 756.423 131.654 756.515 132.165 756.515C132.597 756.515 132.979 756.44 133.313 756.289C133.647 756.139 133.928 755.923 134.157 755.641C134.386 755.36 134.56 755.019 134.678 754.62C134.802 754.221 134.864 753.773 134.864 753.275C134.864 752.824 134.802 752.405 134.678 752.019C134.553 751.633 134.367 751.296 134.118 751.008C133.876 750.72 133.578 750.497 133.225 750.34C132.871 750.177 132.466 750.095 132.008 750.095C131.399 750.095 130.938 750.177 130.623 750.34C130.316 750.504 129.998 750.726 129.671 751.008Z" fill="#707070"></path>
  <path d="M118.363 605.974L116.91 605.601L117.627 598.484H124.959V600.163H119.168L118.736 604.05C118.998 603.9 119.328 603.759 119.727 603.628C120.133 603.497 120.598 603.432 121.121 603.432C121.782 603.432 122.375 603.546 122.898 603.775C123.422 603.998 123.867 604.319 124.233 604.737C124.606 605.156 124.891 605.66 125.087 606.249C125.283 606.838 125.382 607.496 125.382 608.222C125.382 608.909 125.287 609.541 125.097 610.117C124.914 610.693 124.636 611.196 124.263 611.628C123.889 612.054 123.418 612.384 122.849 612.62C122.286 612.855 121.622 612.973 120.856 612.973C120.28 612.973 119.734 612.895 119.217 612.738C118.707 612.574 118.248 612.329 117.843 612.001C117.443 611.668 117.116 611.255 116.861 610.765C116.612 610.267 116.455 609.685 116.39 609.017H118.118C118.196 609.554 118.353 610.005 118.589 610.372C118.824 610.738 119.132 611.016 119.511 611.206C119.898 611.389 120.346 611.481 120.856 611.481C121.288 611.481 121.671 611.406 122.005 611.255C122.339 611.105 122.62 610.889 122.849 610.607C123.078 610.326 123.251 609.986 123.369 609.587C123.494 609.187 123.556 608.739 123.556 608.242C123.556 607.79 123.494 607.371 123.369 606.985C123.245 606.599 123.058 606.262 122.81 605.974C122.568 605.686 122.27 605.464 121.916 605.307C121.563 605.143 121.157 605.061 120.699 605.061C120.091 605.061 119.629 605.143 119.315 605.307C119.008 605.47 118.69 605.693 118.363 605.974ZM136.346 604.492V606.671C136.346 607.843 136.242 608.831 136.032 609.636C135.823 610.441 135.522 611.088 135.129 611.579C134.736 612.07 134.262 612.427 133.706 612.649C133.156 612.865 132.534 612.973 131.841 612.973C131.291 612.973 130.784 612.904 130.319 612.767C129.855 612.63 129.436 612.41 129.063 612.109C128.696 611.802 128.382 611.403 128.12 610.912C127.859 610.421 127.659 609.825 127.522 609.125C127.384 608.425 127.315 607.607 127.315 606.671V604.492C127.315 603.321 127.42 602.339 127.629 601.547C127.845 600.755 128.15 600.12 128.542 599.643C128.935 599.158 129.406 598.812 129.956 598.602C130.512 598.393 131.134 598.288 131.821 598.288C132.377 598.288 132.888 598.357 133.352 598.494C133.824 598.625 134.242 598.838 134.609 599.132C134.975 599.42 135.286 599.806 135.541 600.291C135.803 600.768 136.003 601.354 136.14 602.048C136.278 602.741 136.346 603.556 136.346 604.492ZM134.521 606.966V604.188C134.521 603.546 134.481 602.984 134.403 602.499C134.331 602.008 134.223 601.59 134.079 601.243C133.935 600.896 133.752 600.615 133.529 600.399C133.313 600.183 133.061 600.026 132.773 599.927C132.492 599.823 132.174 599.77 131.821 599.77C131.389 599.77 131.006 599.852 130.673 600.016C130.339 600.173 130.057 600.425 129.828 600.772C129.606 601.118 129.436 601.573 129.318 602.136C129.2 602.699 129.141 603.383 129.141 604.188V606.966C129.141 607.607 129.177 608.173 129.249 608.664C129.328 609.155 129.442 609.58 129.593 609.94C129.743 610.293 129.926 610.585 130.142 610.814C130.358 611.043 130.607 611.213 130.888 611.324C131.176 611.429 131.494 611.481 131.841 611.481C132.286 611.481 132.675 611.396 133.009 611.226C133.343 611.056 133.621 610.791 133.843 610.431C134.072 610.064 134.242 609.596 134.354 609.027C134.465 608.451 134.521 607.764 134.521 606.966Z" fill="#707070"></path>
  <path d="M118.363 462.377L116.91 462.004L117.627 454.887H124.959V456.565H119.168L118.736 460.453C118.998 460.302 119.328 460.161 119.727 460.03C120.133 459.9 120.598 459.834 121.121 459.834C121.782 459.834 122.375 459.949 122.898 460.178C123.422 460.4 123.867 460.721 124.233 461.14C124.606 461.559 124.891 462.062 125.087 462.651C125.283 463.24 125.382 463.898 125.382 464.624C125.382 465.312 125.287 465.943 125.097 466.519C124.914 467.095 124.636 467.599 124.263 468.031C123.889 468.456 123.418 468.787 122.849 469.022C122.286 469.258 121.622 469.376 120.856 469.376C120.28 469.376 119.734 469.297 119.217 469.14C118.707 468.976 118.248 468.731 117.843 468.404C117.443 468.07 117.116 467.658 116.861 467.167C116.612 466.67 116.455 466.087 116.39 465.42H118.118C118.196 465.956 118.353 466.408 118.589 466.774C118.824 467.141 119.132 467.419 119.511 467.609C119.898 467.792 120.346 467.883 120.856 467.883C121.288 467.883 121.671 467.808 122.005 467.658C122.339 467.507 122.62 467.291 122.849 467.01C123.078 466.728 123.251 466.388 123.369 465.989C123.494 465.59 123.556 465.141 123.556 464.644C123.556 464.193 123.494 463.774 123.369 463.388C123.245 463.002 123.058 462.664 122.81 462.377C122.568 462.089 122.27 461.866 121.916 461.709C121.563 461.545 121.157 461.464 120.699 461.464C120.091 461.464 119.629 461.545 119.315 461.709C119.008 461.873 118.69 462.095 118.363 462.377ZM129.671 462.377L128.218 462.004L128.935 454.887H136.268V456.565H130.476L130.044 460.453C130.306 460.302 130.637 460.161 131.036 460.03C131.441 459.9 131.906 459.834 132.43 459.834C133.091 459.834 133.683 459.949 134.206 460.178C134.73 460.4 135.175 460.721 135.541 461.14C135.914 461.559 136.199 462.062 136.395 462.651C136.592 463.24 136.69 463.898 136.69 464.624C136.69 465.312 136.595 465.943 136.405 466.519C136.222 467.095 135.944 467.599 135.571 468.031C135.198 468.456 134.727 468.787 134.157 469.022C133.595 469.258 132.93 469.376 132.165 469.376C131.589 469.376 131.042 469.297 130.525 469.14C130.015 468.976 129.557 468.731 129.151 468.404C128.752 468.07 128.425 467.658 128.169 467.167C127.921 466.67 127.764 466.087 127.698 465.42H129.426C129.504 465.956 129.661 466.408 129.897 466.774C130.133 467.141 130.44 467.419 130.82 467.609C131.206 467.792 131.654 467.883 132.165 467.883C132.597 467.883 132.979 467.808 133.313 467.658C133.647 467.507 133.928 467.291 134.157 467.01C134.386 466.728 134.56 466.388 134.678 465.989C134.802 465.59 134.864 465.141 134.864 464.644C134.864 464.193 134.802 463.774 134.678 463.388C134.553 463.002 134.367 462.664 134.118 462.377C133.876 462.089 133.578 461.866 133.225 461.709C132.871 461.545 132.466 461.464 132.008 461.464C131.399 461.464 130.938 461.545 130.623 461.709C130.316 461.873 129.998 462.095 129.671 462.377Z" fill="#707070"></path>
  <path d="M123.035 311.269H123.193V312.81H123.035C122.073 312.81 121.269 312.967 120.621 313.281C119.973 313.589 119.459 314.004 119.08 314.528C118.7 315.045 118.425 315.627 118.255 316.275C118.091 316.923 118.01 317.581 118.01 318.248V320.349C118.01 320.984 118.085 321.547 118.235 322.037C118.386 322.522 118.592 322.931 118.854 323.264C119.116 323.598 119.41 323.85 119.737 324.02C120.071 324.19 120.418 324.275 120.778 324.275C121.197 324.275 121.57 324.197 121.897 324.04C122.224 323.876 122.499 323.651 122.721 323.363C122.95 323.068 123.124 322.721 123.242 322.322C123.359 321.923 123.418 321.484 123.418 321.007C123.418 320.581 123.366 320.172 123.261 319.78C123.157 319.38 122.996 319.027 122.78 318.719C122.564 318.405 122.293 318.16 121.966 317.983C121.645 317.8 121.262 317.708 120.817 317.708C120.313 317.708 119.842 317.833 119.403 318.081C118.972 318.324 118.615 318.644 118.333 319.043C118.059 319.436 117.902 319.865 117.862 320.329L116.9 320.32C116.992 319.587 117.162 318.962 117.411 318.445C117.666 317.921 117.98 317.496 118.353 317.169C118.733 316.835 119.155 316.593 119.619 316.442C120.091 316.285 120.588 316.207 121.111 316.207C121.825 316.207 122.44 316.341 122.957 316.609C123.474 316.877 123.899 317.237 124.233 317.689C124.567 318.134 124.812 318.638 124.969 319.2C125.133 319.757 125.215 320.329 125.215 320.918C125.215 321.592 125.12 322.224 124.93 322.813C124.74 323.402 124.456 323.919 124.076 324.364C123.703 324.809 123.242 325.156 122.692 325.404C122.142 325.653 121.504 325.777 120.778 325.777C120.006 325.777 119.331 325.62 118.756 325.306C118.18 324.986 117.702 324.56 117.322 324.03C116.943 323.5 116.658 322.911 116.468 322.263C116.279 321.615 116.184 320.958 116.184 320.29V319.436C116.184 318.428 116.285 317.44 116.488 316.472C116.691 315.503 117.041 314.626 117.538 313.841C118.042 313.056 118.739 312.431 119.629 311.966C120.519 311.501 121.655 311.269 123.035 311.269ZM136.346 317.296V319.475C136.346 320.647 136.242 321.635 136.032 322.44C135.823 323.245 135.522 323.893 135.129 324.383C134.736 324.874 134.262 325.231 133.706 325.453C133.156 325.669 132.534 325.777 131.841 325.777C131.291 325.777 130.784 325.709 130.319 325.571C129.855 325.434 129.436 325.215 129.063 324.914C128.696 324.606 128.382 324.207 128.12 323.716C127.859 323.225 127.659 322.63 127.522 321.929C127.384 321.229 127.315 320.411 127.315 319.475V317.296C127.315 316.125 127.42 315.143 127.629 314.351C127.845 313.559 128.15 312.925 128.542 312.447C128.935 311.963 129.406 311.616 129.956 311.406C130.512 311.197 131.134 311.092 131.821 311.092C132.377 311.092 132.888 311.161 133.352 311.298C133.824 311.429 134.242 311.642 134.609 311.936C134.975 312.224 135.286 312.611 135.541 313.095C135.803 313.573 136.003 314.158 136.14 314.852C136.278 315.546 136.346 316.36 136.346 317.296ZM134.521 319.77V316.992C134.521 316.351 134.481 315.788 134.403 315.303C134.331 314.813 134.223 314.394 134.079 314.047C133.935 313.7 133.752 313.419 133.529 313.203C133.313 312.987 133.061 312.83 132.773 312.732C132.492 312.627 132.174 312.575 131.821 312.575C131.389 312.575 131.006 312.656 130.673 312.82C130.339 312.977 130.057 313.229 129.828 313.576C129.606 313.923 129.436 314.377 129.318 314.94C129.2 315.503 129.141 316.187 129.141 316.992V319.77C129.141 320.411 129.177 320.977 129.249 321.468C129.328 321.959 129.442 322.384 129.593 322.744C129.743 323.098 129.926 323.389 130.142 323.618C130.358 323.847 130.607 324.017 130.888 324.128C131.176 324.233 131.494 324.285 131.841 324.285C132.286 324.285 132.675 324.2 133.009 324.03C133.343 323.86 133.621 323.595 133.843 323.235C134.072 322.868 134.242 322.401 134.354 321.831C134.465 321.255 134.521 320.568 134.521 319.77Z" fill="#707070"></path>
  <path d="M123.035 171.979H123.193V173.521H123.035C122.073 173.521 121.269 173.678 120.621 173.992C119.973 174.299 119.459 174.715 119.08 175.238C118.7 175.755 118.425 176.338 118.255 176.986C118.091 177.634 118.01 178.291 118.01 178.959V181.059C118.01 181.694 118.085 182.257 118.235 182.748C118.386 183.232 118.592 183.641 118.854 183.975C119.116 184.309 119.41 184.561 119.737 184.731C120.071 184.901 120.418 184.986 120.778 184.986C121.197 184.986 121.57 184.907 121.897 184.75C122.224 184.587 122.499 184.361 122.721 184.073C122.95 183.779 123.124 183.432 123.242 183.033C123.359 182.633 123.418 182.195 123.418 181.717C123.418 181.292 123.366 180.883 123.261 180.49C123.157 180.091 122.996 179.738 122.78 179.43C122.564 179.116 122.293 178.87 121.966 178.694C121.645 178.51 121.262 178.419 120.817 178.419C120.313 178.419 119.842 178.543 119.403 178.792C118.972 179.034 118.615 179.355 118.333 179.754C118.059 180.147 117.902 180.575 117.862 181.04L116.9 181.03C116.992 180.297 117.162 179.672 117.411 179.155C117.666 178.632 117.98 178.206 118.353 177.879C118.733 177.545 119.155 177.303 119.619 177.153C120.091 176.996 120.588 176.917 121.111 176.917C121.825 176.917 122.44 177.051 122.957 177.319C123.474 177.588 123.899 177.948 124.233 178.399C124.567 178.844 124.812 179.348 124.969 179.911C125.133 180.467 125.215 181.04 125.215 181.629C125.215 182.303 125.12 182.934 124.93 183.523C124.74 184.112 124.456 184.629 124.076 185.074C123.703 185.519 123.242 185.866 122.692 186.115C122.142 186.363 121.504 186.488 120.778 186.488C120.006 186.488 119.331 186.331 118.756 186.017C118.18 185.696 117.702 185.271 117.322 184.741C116.943 184.21 116.658 183.621 116.468 182.974C116.279 182.326 116.184 181.668 116.184 181.001V180.147C116.184 179.139 116.285 178.151 116.488 177.182C116.691 176.213 117.041 175.337 117.538 174.551C118.042 173.766 118.739 173.141 119.629 172.676C120.519 172.212 121.655 171.979 123.035 171.979ZM129.671 179.489L128.218 179.116L128.935 171.999H136.268V173.678H130.476L130.044 177.565C130.306 177.414 130.637 177.274 131.036 177.143C131.441 177.012 131.906 176.946 132.43 176.946C133.091 176.946 133.683 177.061 134.206 177.29C134.73 177.512 135.175 177.833 135.541 178.252C135.914 178.671 136.199 179.175 136.395 179.764C136.592 180.353 136.69 181.01 136.69 181.737C136.69 182.424 136.595 183.055 136.405 183.631C136.222 184.207 135.944 184.711 135.571 185.143C135.198 185.568 134.727 185.899 134.157 186.134C133.595 186.37 132.93 186.488 132.165 186.488C131.589 186.488 131.042 186.409 130.525 186.252C130.015 186.089 129.557 185.843 129.151 185.516C128.752 185.182 128.425 184.77 128.169 184.279C127.921 183.782 127.764 183.199 127.698 182.532H129.426C129.504 183.068 129.661 183.52 129.897 183.887C130.133 184.253 130.44 184.531 130.82 184.721C131.206 184.904 131.654 184.996 132.165 184.996C132.597 184.996 132.979 184.921 133.313 184.77C133.647 184.619 133.928 184.404 134.157 184.122C134.386 183.841 134.56 183.5 134.678 183.101C134.802 182.702 134.864 182.254 134.864 181.756C134.864 181.305 134.802 180.886 134.678 180.5C134.553 180.114 134.367 179.777 134.118 179.489C133.876 179.201 133.578 178.978 133.225 178.821C132.871 178.658 132.466 178.576 132.008 178.576C131.399 178.576 130.938 178.658 130.623 178.821C130.316 178.985 129.998 179.207 129.671 179.489Z" fill="#707070"></path>
  <path d="M349.556 789.779L348.103 789.406L348.819 782.29H356.152V783.968H350.361L349.929 787.855C350.19 787.705 350.521 787.564 350.92 787.433C351.326 787.302 351.79 787.237 352.314 787.237C352.975 787.237 353.567 787.351 354.091 787.581C354.614 787.803 355.059 788.124 355.426 788.543C355.799 788.961 356.083 789.465 356.28 790.054C356.476 790.643 356.574 791.301 356.574 792.027C356.574 792.714 356.479 793.346 356.29 793.922C356.106 794.498 355.828 795.002 355.455 795.434C355.082 795.859 354.611 796.189 354.042 796.425C353.479 796.661 352.815 796.778 352.049 796.778C351.473 796.778 350.927 796.7 350.41 796.543C349.899 796.379 349.441 796.134 349.035 795.807C348.636 795.473 348.309 795.061 348.054 794.57C347.805 794.072 347.648 793.49 347.583 792.822H349.31C349.389 793.359 349.546 793.811 349.781 794.177C350.017 794.544 350.325 794.822 350.704 795.011C351.09 795.195 351.538 795.286 352.049 795.286C352.481 795.286 352.864 795.211 353.197 795.061C353.531 794.91 353.813 794.694 354.042 794.413C354.271 794.131 354.444 793.791 354.562 793.392C354.686 792.993 354.748 792.544 354.748 792.047C354.748 791.595 354.686 791.177 354.562 790.79C354.438 790.404 354.251 790.067 354.002 789.779C353.76 789.491 353.462 789.269 353.109 789.112C352.756 788.948 352.35 788.866 351.892 788.866C351.283 788.866 350.822 788.948 350.508 789.112C350.2 789.275 349.883 789.498 349.556 789.779Z" fill="#707070"></path>
  <path d="M500.698 782.27H500.855V783.811H500.698C499.736 783.811 498.931 783.968 498.283 784.282C497.635 784.59 497.121 785.005 496.742 785.529C496.362 786.046 496.087 786.628 495.917 787.276C495.754 787.924 495.672 788.582 495.672 789.249V791.35C495.672 791.985 495.747 792.548 495.898 793.038C496.048 793.523 496.254 793.932 496.516 794.265C496.778 794.599 497.072 794.851 497.4 795.021C497.733 795.191 498.08 795.276 498.44 795.276C498.859 795.276 499.232 795.198 499.559 795.041C499.886 794.877 500.161 794.652 500.384 794.364C500.613 794.069 500.786 793.722 500.904 793.323C501.022 792.924 501.081 792.485 501.081 792.008C501.081 791.582 501.028 791.173 500.924 790.781C500.819 790.381 500.659 790.028 500.443 789.72C500.227 789.406 499.955 789.161 499.628 788.984C499.307 788.801 498.924 788.709 498.479 788.709C497.975 788.709 497.504 788.834 497.066 789.082C496.634 789.325 496.277 789.645 495.996 790.044C495.721 790.437 495.564 790.866 495.525 791.33L494.563 791.321C494.654 790.588 494.824 789.963 495.073 789.446C495.328 788.922 495.642 788.497 496.015 788.169C496.395 787.836 496.817 787.594 497.282 787.443C497.753 787.286 498.25 787.208 498.774 787.208C499.487 787.208 500.102 787.342 500.619 787.61C501.136 787.878 501.562 788.238 501.895 788.69C502.229 789.135 502.475 789.639 502.632 790.201C502.795 790.758 502.877 791.33 502.877 791.919C502.877 792.593 502.782 793.225 502.592 793.814C502.403 794.403 502.118 794.92 501.738 795.365C501.365 795.81 500.904 796.157 500.354 796.405C499.805 796.654 499.167 796.778 498.44 796.778C497.668 796.778 496.994 796.621 496.418 796.307C495.842 795.987 495.364 795.561 494.985 795.031C494.605 794.501 494.321 793.912 494.131 793.264C493.941 792.616 493.846 791.959 493.846 791.291V790.437C493.846 789.429 493.948 788.441 494.15 787.473C494.353 786.504 494.703 785.627 495.201 784.842C495.705 784.056 496.402 783.432 497.292 782.967C498.182 782.502 499.317 782.27 500.698 782.27Z" fill="#707070"></path>
  <path d="M649.435 782.29V783.31L643.516 796.582H641.602L647.511 783.782H639.776V782.29H649.435Z" fill="#707070"></path>
  <path d="M795.679 792.714C795.679 793.585 795.476 794.324 795.07 794.933C794.671 795.535 794.128 795.993 793.441 796.307C792.76 796.621 791.991 796.778 791.134 796.778C790.277 796.778 789.505 796.621 788.818 796.307C788.13 795.993 787.587 795.535 787.188 794.933C786.789 794.324 786.589 793.585 786.589 792.714C786.589 792.145 786.697 791.625 786.913 791.154C787.136 790.676 787.447 790.26 787.846 789.907C788.251 789.554 788.729 789.282 789.279 789.092C789.835 788.896 790.447 788.798 791.115 788.798C791.991 788.798 792.773 788.968 793.461 789.308C794.148 789.642 794.688 790.103 795.08 790.692C795.479 791.281 795.679 791.955 795.679 792.714ZM793.853 792.675C793.853 792.145 793.739 791.677 793.51 791.271C793.281 790.859 792.96 790.538 792.548 790.309C792.135 790.08 791.658 789.966 791.115 789.966C790.558 789.966 790.077 790.08 789.672 790.309C789.272 790.538 788.961 790.859 788.739 791.271C788.516 791.677 788.405 792.145 788.405 792.675C788.405 793.225 788.513 793.696 788.729 794.089C788.952 794.475 789.266 794.773 789.672 794.982C790.084 795.185 790.571 795.286 791.134 795.286C791.697 795.286 792.181 795.185 792.587 794.982C792.993 794.773 793.304 794.475 793.519 794.089C793.742 793.696 793.853 793.225 793.853 792.675ZM795.345 786.01C795.345 786.704 795.162 787.329 794.796 787.885C794.429 788.441 793.929 788.88 793.294 789.2C792.659 789.521 791.939 789.681 791.134 789.681C790.316 789.681 789.586 789.521 788.945 789.2C788.31 788.88 787.813 788.441 787.453 787.885C787.093 787.329 786.913 786.704 786.913 786.01C786.913 785.179 787.093 784.472 787.453 783.89C787.82 783.307 788.32 782.862 788.955 782.555C789.59 782.247 790.313 782.093 791.124 782.093C791.942 782.093 792.669 782.247 793.304 782.555C793.938 782.862 794.436 783.307 794.796 783.89C795.162 784.472 795.345 785.179 795.345 786.01ZM793.529 786.039C793.529 785.562 793.428 785.14 793.225 784.773C793.022 784.407 792.741 784.119 792.381 783.909C792.021 783.693 791.602 783.585 791.124 783.585C790.647 783.585 790.228 783.687 789.868 783.89C789.514 784.086 789.236 784.367 789.033 784.734C788.837 785.1 788.739 785.535 788.739 786.039C788.739 786.53 788.837 786.959 789.033 787.325C789.236 787.692 789.518 787.976 789.878 788.179C790.238 788.382 790.656 788.484 791.134 788.484C791.612 788.484 792.027 788.382 792.381 788.179C792.741 787.976 793.022 787.692 793.225 787.325C793.428 786.959 793.529 786.53 793.529 786.039Z" fill="#707070"></path>
  <path d="M934.944 795.061H935.13C936.177 795.061 937.028 794.913 937.682 794.619C938.337 794.324 938.841 793.928 939.194 793.431C939.547 792.934 939.79 792.374 939.921 791.752C940.051 791.124 940.117 790.48 940.117 789.819V787.63C940.117 786.982 940.042 786.406 939.891 785.902C939.747 785.398 939.544 784.976 939.282 784.636C939.027 784.295 938.736 784.037 938.409 783.86C938.082 783.683 937.735 783.595 937.368 783.595C936.949 783.595 936.573 783.68 936.239 783.85C935.912 784.014 935.634 784.246 935.405 784.547C935.183 784.848 935.012 785.202 934.895 785.607C934.777 786.013 934.718 786.455 934.718 786.933C934.718 787.358 934.77 787.77 934.875 788.169C934.98 788.569 935.14 788.929 935.356 789.249C935.572 789.57 935.84 789.825 936.161 790.015C936.488 790.198 936.871 790.29 937.309 790.29C937.715 790.29 938.095 790.211 938.448 790.054C938.808 789.891 939.125 789.671 939.4 789.397C939.682 789.115 939.904 788.798 940.068 788.444C940.238 788.091 940.336 787.721 940.362 787.335H941.226C941.226 787.878 941.118 788.415 940.902 788.945C940.693 789.469 940.398 789.946 940.019 790.378C939.639 790.81 939.194 791.157 938.684 791.419C938.173 791.674 937.617 791.802 937.015 791.802C936.308 791.802 935.696 791.664 935.179 791.389C934.662 791.114 934.237 790.748 933.903 790.29C933.576 789.832 933.331 789.321 933.167 788.758C933.01 788.189 932.931 787.613 932.931 787.031C932.931 786.35 933.026 785.712 933.216 785.117C933.406 784.521 933.687 783.998 934.06 783.546C934.433 783.088 934.895 782.731 935.444 782.476C936.001 782.221 936.642 782.093 937.368 782.093C938.186 782.093 938.883 782.257 939.459 782.584C940.035 782.911 940.503 783.35 940.863 783.899C941.229 784.449 941.498 785.068 941.668 785.755C941.838 786.442 941.923 787.149 941.923 787.875V788.533C941.923 789.272 941.874 790.025 941.776 790.79C941.684 791.55 941.504 792.276 941.236 792.97C940.974 793.663 940.591 794.285 940.087 794.835C939.583 795.378 938.926 795.81 938.114 796.13C937.309 796.445 936.315 796.602 935.13 796.602H934.944V795.061Z" fill="#707070"></path>
  <rect width="110.57" height="34.4635" transform="translate(257.04 662.842) rotate(-18.2364)" fill="#D9D9D9"></rect>
  <path d="M290.715 671.898L286.677 673.229L285.978 671.109L290.016 669.778C290.72 669.546 291.25 669.245 291.609 668.875C291.967 668.505 292.18 668.089 292.248 667.625C292.321 667.152 292.272 666.657 292.101 666.138C291.939 665.648 291.685 665.224 291.339 664.866C290.997 664.498 290.566 664.254 290.047 664.134C289.527 664.014 288.915 664.07 288.212 664.301L284.994 665.362L289.403 678.744L286.729 679.626L281.617 664.112L287.51 662.17C288.71 661.775 289.8 661.652 290.778 661.802C291.762 661.943 292.596 662.313 293.283 662.914C293.966 663.508 294.465 664.28 294.779 665.232C295.109 666.234 295.172 667.166 294.968 668.028C294.764 668.891 294.302 669.653 293.583 670.315C292.872 670.975 291.915 671.503 290.715 671.898ZM306.02 670.706L304.209 665.208C304.073 664.796 303.881 664.466 303.634 664.216C303.386 663.967 303.083 663.811 302.724 663.748C302.371 663.683 301.968 663.726 301.513 663.876C301.094 664.014 300.755 664.204 300.497 664.447C300.238 664.689 300.063 664.96 299.972 665.257C299.882 665.555 299.886 665.857 299.987 666.162L297.43 667.005C297.28 666.55 297.245 666.073 297.325 665.575C297.405 665.076 297.599 664.59 297.908 664.118C298.217 663.647 298.631 663.219 299.151 662.835C299.67 662.451 300.292 662.14 301.016 661.901C301.883 661.616 302.698 661.509 303.462 661.58C304.233 661.649 304.907 661.915 305.485 662.378C306.067 662.832 306.504 663.499 306.794 664.38L308.483 669.505C308.656 670.031 308.847 670.491 309.056 670.887C309.27 671.273 309.498 671.596 309.741 671.854L309.797 672.025L307.165 672.892C306.953 672.655 306.742 672.335 306.53 671.932C306.324 671.52 306.153 671.111 306.02 670.706ZM304.845 665.884L305.389 667.465L303.546 668.072C303.07 668.229 302.666 668.413 302.334 668.625C302 668.83 301.74 669.057 301.555 669.307C301.37 669.557 301.256 669.823 301.215 670.104C301.174 670.385 301.204 670.679 301.304 670.984C301.405 671.29 301.568 671.547 301.795 671.756C302.019 671.958 302.289 672.085 302.606 672.138C302.93 672.189 303.287 672.15 303.678 672.021C304.203 671.848 304.626 671.591 304.947 671.249C305.272 670.898 305.497 670.528 305.621 670.141C305.743 669.746 305.764 669.404 305.685 669.116L306.892 669.982C306.902 670.301 306.86 670.662 306.764 671.064C306.668 671.465 306.503 671.874 306.27 672.289C306.042 672.695 305.728 673.07 305.33 673.414C304.938 673.756 304.444 674.025 303.847 674.221C303.094 674.47 302.374 674.542 301.686 674.437C300.996 674.326 300.4 674.07 299.897 673.669C299.392 673.26 299.032 672.729 298.817 672.075C298.616 671.465 298.552 670.887 298.624 670.344C298.702 669.79 298.912 669.28 299.254 668.813C299.603 668.344 300.078 667.92 300.678 667.541C301.275 667.155 301.993 666.824 302.831 666.548L304.845 665.884ZM311.549 661.101L314.624 670.434L312.056 671.281L308.258 659.752L310.708 658.944L311.549 661.101ZM314.328 657.669L315.093 660.063C314.927 660.086 314.75 660.121 314.56 660.167C314.378 660.212 314.198 660.263 314.021 660.322C313.58 660.467 313.214 660.658 312.922 660.896C312.628 661.127 312.406 661.397 312.256 661.706C312.111 662.006 312.032 662.339 312.018 662.706C312.005 663.072 312.055 663.462 312.167 663.873L311.595 664.109C311.356 663.385 311.206 662.69 311.145 662.025C311.083 661.36 311.117 660.747 311.247 660.184C311.384 659.619 311.625 659.134 311.972 658.729C312.326 658.321 312.79 658.022 313.366 657.832C313.522 657.781 313.694 657.74 313.881 657.71C314.075 657.678 314.224 657.664 314.328 657.669ZM324.699 667.351C323.847 667.632 323.031 667.747 322.25 667.697C321.475 667.638 320.762 667.435 320.113 667.09C319.471 666.743 318.91 666.27 318.429 665.672C317.949 665.075 317.579 664.382 317.319 663.593L317.179 663.167C316.881 662.265 316.744 661.405 316.765 660.586C316.787 659.768 316.947 659.023 317.245 658.35C317.541 657.669 317.963 657.086 318.511 656.598C319.059 656.11 319.706 655.744 320.451 655.498C321.275 655.226 322.042 655.127 322.751 655.201C323.461 655.274 324.101 655.496 324.672 655.867C325.248 656.229 325.749 656.721 326.174 657.345C326.607 657.966 326.961 658.692 327.235 659.523L327.596 660.62L318.689 663.555L318.081 661.712L324.453 659.613L324.386 659.41C324.22 658.953 323.985 658.55 323.681 658.202C323.384 657.851 323.024 657.607 322.602 657.471C322.179 657.334 321.683 657.36 321.115 657.547C320.689 657.687 320.339 657.905 320.066 658.2C319.798 658.485 319.61 658.834 319.502 659.248C319.394 659.661 319.359 660.13 319.398 660.652C319.441 661.166 319.561 661.721 319.757 662.317L319.898 662.744C320.064 663.248 320.286 663.695 320.564 664.083C320.846 664.463 321.175 664.768 321.55 664.999C321.925 665.229 322.335 665.374 322.78 665.432C323.222 665.483 323.688 665.428 324.178 665.267C324.796 665.063 325.306 664.757 325.707 664.35C326.108 663.942 326.411 663.452 326.616 662.88L328.401 663.745C328.272 664.189 328.064 664.644 327.776 665.109C327.486 665.567 327.087 665.993 326.579 666.389C326.079 666.782 325.452 667.103 324.699 667.351ZM330.805 655.051L333.793 664.119L331.225 664.965L327.426 653.436L329.845 652.639L330.805 655.051ZM331.295 658.079L330.46 658.342C330.198 657.523 330.065 656.736 330.06 655.982C330.063 655.225 330.182 654.536 330.419 653.915C330.662 653.291 331.021 652.755 331.496 652.308C331.968 651.853 332.548 651.512 333.238 651.285C333.792 651.102 334.318 651.015 334.817 651.024C335.321 651.024 335.789 651.141 336.221 651.377C336.66 651.61 337.055 651.972 337.405 652.463C337.754 652.947 338.058 653.583 338.318 654.371L340.772 661.819L338.193 662.669L335.736 655.21C335.553 654.656 335.327 654.246 335.059 653.98C334.795 653.705 334.488 653.55 334.138 653.516C333.793 653.472 333.397 653.524 332.949 653.671C332.509 653.817 332.145 654.039 331.858 654.338C331.57 654.638 331.359 654.987 331.222 655.386C331.093 655.783 331.034 656.212 331.044 656.673C331.054 657.134 331.138 657.603 331.295 658.079ZM344.879 647.685L345.497 649.561L338.997 651.702L338.38 649.827L344.879 647.685ZM339.325 646.385L341.892 645.539L345.572 656.706C345.689 657.061 345.828 657.318 345.991 657.477C346.159 657.627 346.345 657.703 346.551 657.706C346.757 657.709 346.984 657.67 347.232 657.588C347.41 657.529 347.577 657.463 347.733 657.387C347.89 657.312 348.014 657.248 348.107 657.194L348.763 659.151C348.571 659.285 348.341 659.423 348.073 659.567C347.813 659.708 347.501 659.838 347.139 659.957C346.549 660.152 345.993 660.221 345.471 660.164C344.946 660.101 344.477 659.874 344.065 659.482C343.652 659.09 343.316 658.5 343.056 657.712L339.325 646.385Z" fill="#707070"></path>
  <path d="M1023.62 739.195V755.529H1020.82V739.195H1023.62ZM1028.74 739.195V741.438H1015.74V739.195H1028.74ZM1036.99 752.668V743.39H1039.7V755.529H1037.15L1036.99 752.668ZM1037.37 750.144L1038.28 750.121C1038.28 750.937 1038.19 751.688 1038.01 752.376C1037.83 753.057 1037.55 753.652 1037.18 754.16C1036.81 754.661 1036.33 755.054 1035.74 755.338C1035.16 755.615 1034.46 755.753 1033.65 755.753C1033.06 755.753 1032.51 755.667 1032.02 755.495C1031.53 755.323 1031.1 755.058 1030.74 754.699C1030.39 754.34 1030.12 753.872 1029.92 753.296C1029.73 752.72 1029.63 752.032 1029.63 751.232V743.39H1032.33V751.255C1032.33 751.696 1032.39 752.066 1032.49 752.365C1032.6 752.657 1032.74 752.892 1032.92 753.072C1033.1 753.251 1033.31 753.379 1033.55 753.453C1033.78 753.528 1034.04 753.566 1034.31 753.566C1035.08 753.566 1035.68 753.416 1036.13 753.117C1036.57 752.81 1036.89 752.399 1037.08 751.883C1037.27 751.367 1037.37 750.787 1037.37 750.144ZM1045.19 745.701V755.529H1042.49V743.39H1045.07L1045.19 745.701ZM1048.9 743.312L1048.88 745.825C1048.72 745.795 1048.54 745.772 1048.34 745.757C1048.16 745.742 1047.97 745.735 1047.78 745.735C1047.32 745.735 1046.91 745.802 1046.56 745.937C1046.21 746.064 1045.91 746.251 1045.67 746.498C1045.44 746.737 1045.26 747.029 1045.13 747.373C1045.01 747.717 1044.93 748.102 1044.91 748.528L1044.29 748.573C1044.29 747.81 1044.37 747.104 1044.52 746.453C1044.67 745.802 1044.89 745.23 1045.19 744.737C1045.5 744.243 1045.88 743.858 1046.33 743.581C1046.8 743.304 1047.33 743.166 1047.94 743.166C1048.1 743.166 1048.28 743.181 1048.47 743.211C1048.66 743.241 1048.81 743.274 1048.9 743.312ZM1053.28 745.982V755.529H1050.57V743.39H1053.12L1053.28 745.982ZM1052.8 749.011L1051.92 749C1051.93 748.14 1052.05 747.35 1052.28 746.632C1052.52 745.914 1052.85 745.297 1053.27 744.781C1053.69 744.265 1054.2 743.869 1054.79 743.592C1055.38 743.308 1056.04 743.166 1056.77 743.166C1057.35 743.166 1057.88 743.248 1058.35 743.413C1058.83 743.57 1059.24 743.828 1059.57 744.187C1059.92 744.546 1060.18 745.013 1060.36 745.589C1060.54 746.158 1060.63 746.857 1060.63 747.687V755.529H1057.91V747.676C1057.91 747.092 1057.83 746.632 1057.65 746.296C1057.49 745.952 1057.25 745.709 1056.92 745.567C1056.61 745.417 1056.22 745.342 1055.75 745.342C1055.28 745.342 1054.87 745.44 1054.5 745.634C1054.13 745.828 1053.82 746.094 1053.57 746.431C1053.32 746.767 1053.13 747.156 1053 747.597C1052.86 748.039 1052.8 748.51 1052.8 749.011ZM1062.87 749.594V749.336C1062.87 748.461 1063 747.65 1063.25 746.902C1063.51 746.146 1063.87 745.492 1064.35 744.938C1064.84 744.378 1065.43 743.944 1066.12 743.637C1066.83 743.323 1067.62 743.166 1068.5 743.166C1069.39 743.166 1070.18 743.323 1070.88 743.637C1071.58 743.944 1072.18 744.378 1072.66 744.938C1073.15 745.492 1073.52 746.146 1073.77 746.902C1074.03 747.65 1074.16 748.461 1074.16 749.336V749.594C1074.16 750.469 1074.03 751.281 1073.77 752.029C1073.52 752.777 1073.15 753.431 1072.66 753.992C1072.18 754.545 1071.59 754.979 1070.89 755.293C1070.2 755.6 1069.41 755.753 1068.52 755.753C1067.63 755.753 1066.84 755.6 1066.14 755.293C1065.44 754.979 1064.85 754.545 1064.36 753.992C1063.88 753.431 1063.51 752.777 1063.25 752.029C1063 751.281 1062.87 750.469 1062.87 749.594ZM1065.57 749.336V749.594C1065.57 750.14 1065.63 750.656 1065.74 751.142C1065.85 751.628 1066.03 752.055 1066.27 752.421C1066.51 752.788 1066.82 753.076 1067.19 753.285C1067.56 753.495 1068.01 753.599 1068.52 753.599C1069.03 753.599 1069.46 753.495 1069.83 753.285C1070.2 753.076 1070.51 752.788 1070.75 752.421C1070.99 752.055 1071.16 751.628 1071.27 751.142C1071.39 750.656 1071.45 750.14 1071.45 749.594V749.336C1071.45 748.798 1071.39 748.289 1071.27 747.81C1071.16 747.324 1070.98 746.894 1070.73 746.52C1070.5 746.146 1070.19 745.855 1069.81 745.645C1069.45 745.428 1069.01 745.32 1068.5 745.32C1067.99 745.32 1067.55 745.428 1067.18 745.645C1066.81 745.855 1066.51 746.146 1066.27 746.52C1066.03 746.894 1065.85 747.324 1065.74 747.81C1065.63 748.289 1065.57 748.798 1065.57 749.336ZM1080.19 753.386L1083.16 743.39H1085.97L1081.75 755.529H1080L1080.19 753.386ZM1077.91 743.39L1080.94 753.431L1081.09 755.529H1079.34L1075.1 743.39H1077.91ZM1092.84 755.753C1091.94 755.753 1091.13 755.607 1090.4 755.316C1089.68 755.016 1089.07 754.601 1088.56 754.07C1088.06 753.539 1087.67 752.915 1087.41 752.197C1087.14 751.479 1087 750.705 1087 749.875V749.426C1087 748.476 1087.14 747.616 1087.42 746.846C1087.69 746.075 1088.08 745.417 1088.57 744.871C1089.07 744.318 1089.65 743.895 1090.32 743.603C1091 743.312 1091.72 743.166 1092.51 743.166C1093.38 743.166 1094.14 743.312 1094.79 743.603C1095.44 743.895 1095.98 744.306 1096.4 744.838C1096.84 745.361 1097.16 745.986 1097.37 746.711C1097.58 747.436 1097.69 748.237 1097.69 749.112V750.267H1088.31V748.326H1095.02V748.113C1095.01 747.627 1094.91 747.171 1094.73 746.745C1094.56 746.318 1094.29 745.974 1093.93 745.713C1093.58 745.451 1093.1 745.32 1092.5 745.32C1092.05 745.32 1091.65 745.417 1091.3 745.612C1090.95 745.799 1090.67 746.072 1090.43 746.431C1090.2 746.79 1090.02 747.223 1089.9 747.732C1089.78 748.233 1089.72 748.798 1089.72 749.426V749.875C1089.72 750.406 1089.79 750.899 1089.93 751.355C1090.08 751.804 1090.3 752.197 1090.58 752.533C1090.86 752.87 1091.21 753.136 1091.61 753.33C1092.02 753.517 1092.48 753.61 1092.99 753.61C1093.64 753.61 1094.22 753.48 1094.73 753.218C1095.24 752.956 1095.68 752.586 1096.05 752.107L1097.48 753.487C1097.22 753.868 1096.88 754.235 1096.46 754.586C1096.04 754.93 1095.53 755.211 1094.92 755.428C1094.32 755.645 1093.63 755.753 1092.84 755.753ZM1102.52 745.701V755.529H1099.81V743.39H1102.39L1102.52 745.701ZM1106.23 743.312L1106.21 745.825C1106.04 745.795 1105.86 745.772 1105.67 745.757C1105.48 745.742 1105.3 745.735 1105.11 745.735C1104.64 745.735 1104.24 745.802 1103.89 745.937C1103.53 746.064 1103.24 746.251 1103 746.498C1102.77 746.737 1102.59 747.029 1102.46 747.373C1102.33 747.717 1102.26 748.102 1102.24 748.528L1101.62 748.573C1101.62 747.81 1101.69 747.104 1101.84 746.453C1101.99 745.802 1102.22 745.23 1102.52 744.737C1102.82 744.243 1103.2 743.858 1103.66 743.581C1104.12 743.304 1104.66 743.166 1105.27 743.166C1105.43 743.166 1105.61 743.181 1105.79 743.211C1105.99 743.241 1106.13 743.274 1106.23 743.312Z" fill="#707070"></path>
  <path d="M123.258 114.544V130.878H120.465V114.544H123.258ZM128.385 114.544V116.788H115.383V114.544H128.385ZM134.544 131.103C133.647 131.103 132.835 130.957 132.11 130.665C131.392 130.366 130.779 129.951 130.27 129.42C129.769 128.889 129.384 128.264 129.115 127.547C128.845 126.829 128.711 126.054 128.711 125.224V124.776C128.711 123.826 128.849 122.966 129.126 122.195C129.402 121.425 129.788 120.767 130.281 120.221C130.775 119.667 131.358 119.245 132.031 118.953C132.704 118.661 133.434 118.516 134.219 118.516C135.087 118.516 135.846 118.661 136.496 118.953C137.147 119.245 137.686 119.656 138.112 120.187C138.546 120.711 138.867 121.335 139.077 122.061C139.294 122.786 139.402 123.586 139.402 124.461V125.617H130.023V123.676H136.732V123.463C136.717 122.977 136.62 122.521 136.44 122.094C136.268 121.668 136.003 121.324 135.644 121.062C135.285 120.8 134.806 120.67 134.208 120.67C133.759 120.67 133.359 120.767 133.007 120.961C132.663 121.148 132.375 121.421 132.144 121.78C131.912 122.139 131.732 122.573 131.605 123.082C131.485 123.583 131.426 124.147 131.426 124.776V125.224C131.426 125.755 131.497 126.249 131.639 126.705C131.788 127.154 132.005 127.547 132.289 127.883C132.574 128.22 132.918 128.485 133.322 128.68C133.725 128.867 134.185 128.96 134.701 128.96C135.352 128.96 135.932 128.829 136.44 128.567C136.949 128.306 137.39 127.935 137.764 127.457L139.189 128.837C138.927 129.218 138.587 129.585 138.168 129.936C137.749 130.28 137.237 130.561 136.631 130.777C136.033 130.994 135.337 131.103 134.544 131.103ZM144.215 121.208V130.878H141.511V118.74H144.058L144.215 121.208ZM143.777 124.36L142.857 124.349C142.857 123.512 142.962 122.737 143.171 122.027C143.381 121.316 143.687 120.699 144.091 120.176C144.495 119.645 144.996 119.237 145.595 118.953C146.2 118.661 146.9 118.516 147.693 118.516C148.246 118.516 148.751 118.598 149.207 118.762C149.671 118.919 150.071 119.17 150.407 119.514C150.751 119.858 151.013 120.299 151.193 120.838C151.38 121.376 151.473 122.027 151.473 122.79V130.878H148.77V123.025C148.77 122.435 148.68 121.971 148.5 121.634C148.328 121.298 148.078 121.058 147.749 120.916C147.427 120.767 147.042 120.692 146.593 120.692C146.085 120.692 145.651 120.789 145.292 120.984C144.94 121.178 144.652 121.444 144.428 121.78C144.204 122.117 144.039 122.506 143.934 122.947C143.83 123.388 143.777 123.859 143.777 124.36ZM151.305 123.642L150.037 123.923C150.037 123.19 150.138 122.498 150.34 121.847C150.55 121.189 150.852 120.613 151.249 120.12C151.653 119.619 152.15 119.226 152.741 118.942C153.332 118.658 154.009 118.516 154.771 118.516C155.392 118.516 155.946 118.602 156.432 118.774C156.925 118.938 157.344 119.2 157.688 119.559C158.032 119.918 158.294 120.385 158.474 120.961C158.653 121.53 158.743 122.218 158.743 123.025V130.878H156.028V123.014C156.028 122.401 155.938 121.926 155.759 121.589C155.587 121.253 155.34 121.021 155.018 120.894C154.697 120.759 154.311 120.692 153.863 120.692C153.444 120.692 153.074 120.77 152.752 120.928C152.438 121.077 152.172 121.29 151.956 121.567C151.739 121.836 151.574 122.147 151.462 122.498C151.357 122.85 151.305 123.231 151.305 123.642ZM164.24 121.073V135.545H161.536V118.74H164.027L164.24 121.073ZM172.149 124.697V124.933C172.149 125.815 172.044 126.634 171.835 127.389C171.633 128.137 171.33 128.792 170.926 129.353C170.53 129.906 170.04 130.336 169.457 130.643C168.873 130.949 168.2 131.103 167.437 131.103C166.682 131.103 166.02 130.964 165.452 130.688C164.891 130.403 164.416 130.003 164.027 129.487C163.638 128.971 163.324 128.365 163.084 127.67C162.853 126.967 162.688 126.197 162.591 125.359V124.45C162.688 123.56 162.853 122.752 163.084 122.027C163.324 121.301 163.638 120.677 164.027 120.153C164.416 119.63 164.891 119.226 165.452 118.942C166.012 118.658 166.667 118.516 167.415 118.516C168.178 118.516 168.854 118.665 169.445 118.964C170.036 119.256 170.534 119.675 170.937 120.221C171.341 120.759 171.644 121.41 171.846 122.173C172.048 122.928 172.149 123.77 172.149 124.697ZM169.445 124.933V124.697C169.445 124.136 169.393 123.616 169.288 123.138C169.184 122.651 169.019 122.225 168.795 121.859C168.57 121.492 168.282 121.208 167.931 121.006C167.587 120.797 167.172 120.692 166.686 120.692C166.207 120.692 165.796 120.774 165.452 120.939C165.107 121.096 164.82 121.316 164.588 121.601C164.356 121.885 164.176 122.218 164.049 122.599C163.922 122.973 163.832 123.381 163.78 123.822V125.998C163.87 126.537 164.023 127.03 164.24 127.479C164.457 127.928 164.763 128.287 165.16 128.556C165.564 128.818 166.08 128.949 166.708 128.949C167.194 128.949 167.609 128.844 167.953 128.635C168.297 128.425 168.578 128.137 168.795 127.771C169.019 127.397 169.184 126.967 169.288 126.481C169.393 125.995 169.445 125.479 169.445 124.933ZM179.8 131.103C178.903 131.103 178.091 130.957 177.366 130.665C176.648 130.366 176.034 129.951 175.526 129.42C175.025 128.889 174.64 128.264 174.37 127.547C174.101 126.829 173.966 126.054 173.966 125.224V124.776C173.966 123.826 174.105 122.966 174.382 122.195C174.658 121.425 175.043 120.767 175.537 120.221C176.031 119.667 176.614 119.245 177.287 118.953C177.96 118.661 178.689 118.516 179.475 118.516C180.342 118.516 181.101 118.661 181.752 118.953C182.403 119.245 182.941 119.656 183.368 120.187C183.801 120.711 184.123 121.335 184.332 122.061C184.549 122.786 184.658 123.586 184.658 124.461V125.617H175.279V123.676H181.988V123.463C181.973 122.977 181.876 122.521 181.696 122.094C181.524 121.668 181.259 121.324 180.9 121.062C180.541 120.8 180.062 120.67 179.464 120.67C179.015 120.67 178.615 120.767 178.263 120.961C177.919 121.148 177.631 121.421 177.399 121.78C177.167 122.139 176.988 122.573 176.861 123.082C176.741 123.583 176.681 124.147 176.681 124.776V125.224C176.681 125.755 176.752 126.249 176.894 126.705C177.044 127.154 177.261 127.547 177.545 127.883C177.829 128.22 178.173 128.485 178.577 128.68C178.981 128.867 179.441 128.96 179.957 128.96C180.608 128.96 181.187 128.829 181.696 128.567C182.205 128.306 182.646 127.935 183.02 127.457L184.445 128.837C184.183 129.218 183.843 129.585 183.424 129.936C183.005 130.28 182.493 130.561 181.887 130.777C181.288 130.994 180.593 131.103 179.8 131.103ZM189.482 121.051V130.878H186.778V118.74H189.358L189.482 121.051ZM193.195 118.661L193.173 121.174C193.008 121.144 192.829 121.122 192.634 121.107C192.447 121.092 192.26 121.085 192.073 121.085C191.61 121.085 191.202 121.152 190.85 121.287C190.499 121.414 190.203 121.601 189.964 121.847C189.732 122.087 189.553 122.378 189.426 122.723C189.298 123.067 189.224 123.452 189.201 123.878L188.584 123.923C188.584 123.16 188.659 122.453 188.809 121.803C188.958 121.152 189.183 120.58 189.482 120.086C189.788 119.593 190.17 119.207 190.626 118.931C191.09 118.654 191.624 118.516 192.23 118.516C192.395 118.516 192.571 118.531 192.758 118.56C192.952 118.59 193.098 118.624 193.195 118.661ZM201.329 128.444V122.655C201.329 122.221 201.25 121.847 201.093 121.533C200.936 121.219 200.697 120.976 200.375 120.804C200.061 120.632 199.664 120.546 199.186 120.546C198.745 120.546 198.363 120.621 198.041 120.77C197.72 120.92 197.469 121.122 197.29 121.376C197.11 121.631 197.021 121.919 197.021 122.24H194.328C194.328 121.761 194.444 121.298 194.676 120.849C194.908 120.4 195.244 120 195.686 119.649C196.127 119.297 196.654 119.02 197.267 118.818C197.881 118.617 198.569 118.516 199.332 118.516C200.244 118.516 201.052 118.669 201.755 118.976C202.465 119.282 203.023 119.746 203.426 120.367C203.838 120.98 204.043 121.75 204.043 122.678V128.074C204.043 128.627 204.081 129.125 204.156 129.566C204.238 130 204.354 130.377 204.503 130.699V130.878H201.732C201.605 130.587 201.504 130.217 201.43 129.768C201.362 129.312 201.329 128.87 201.329 128.444ZM201.721 123.497L201.744 125.168H199.803C199.302 125.168 198.86 125.217 198.479 125.314C198.098 125.404 197.78 125.538 197.525 125.718C197.271 125.897 197.08 126.114 196.953 126.369C196.826 126.623 196.763 126.911 196.763 127.232C196.763 127.554 196.837 127.849 196.987 128.119C197.137 128.38 197.353 128.586 197.638 128.736C197.929 128.885 198.281 128.96 198.692 128.96C199.246 128.96 199.728 128.848 200.139 128.623C200.558 128.392 200.887 128.111 201.127 127.782C201.366 127.446 201.493 127.128 201.508 126.829L202.383 128.029C202.293 128.336 202.14 128.665 201.923 129.016C201.706 129.368 201.422 129.704 201.071 130.026C200.726 130.34 200.311 130.598 199.825 130.8C199.347 131.002 198.793 131.103 198.165 131.103C197.372 131.103 196.665 130.946 196.045 130.632C195.424 130.31 194.938 129.88 194.586 129.341C194.235 128.796 194.059 128.178 194.059 127.49C194.059 126.847 194.179 126.279 194.418 125.785C194.665 125.284 195.024 124.865 195.495 124.529C195.974 124.192 196.557 123.938 197.245 123.766C197.933 123.586 198.718 123.497 199.601 123.497H201.721ZM212.435 118.74V120.714H205.592V118.74H212.435ZM207.566 115.767H210.27V127.524C210.27 127.898 210.322 128.186 210.427 128.388C210.539 128.582 210.692 128.713 210.887 128.781C211.081 128.848 211.309 128.882 211.571 128.882C211.758 128.882 211.938 128.87 212.11 128.848C212.282 128.825 212.42 128.803 212.525 128.781L212.536 130.845C212.312 130.912 212.05 130.972 211.751 131.024C211.459 131.077 211.122 131.103 210.741 131.103C210.12 131.103 209.57 130.994 209.092 130.777C208.613 130.553 208.239 130.19 207.97 129.689C207.701 129.188 207.566 128.523 207.566 127.692V115.767ZM221.825 128.018V118.74H224.54V130.878H221.982L221.825 128.018ZM222.206 125.494L223.115 125.471C223.115 126.286 223.025 127.038 222.846 127.726C222.666 128.407 222.39 129.001 222.016 129.51C221.642 130.011 221.163 130.403 220.58 130.688C219.996 130.964 219.297 131.103 218.482 131.103C217.891 131.103 217.349 131.017 216.855 130.845C216.361 130.673 215.935 130.407 215.576 130.048C215.225 129.689 214.952 129.222 214.757 128.646C214.563 128.07 214.465 127.382 214.465 126.582V118.74H217.169V126.604C217.169 127.045 217.222 127.416 217.326 127.715C217.431 128.006 217.573 128.242 217.753 128.422C217.932 128.601 218.141 128.728 218.381 128.803C218.62 128.878 218.874 128.915 219.144 128.915C219.914 128.915 220.52 128.766 220.961 128.466C221.41 128.16 221.728 127.748 221.915 127.232C222.109 126.716 222.206 126.137 222.206 125.494ZM230.026 121.051V130.878H227.322V118.74H229.902L230.026 121.051ZM233.739 118.661L233.717 121.174C233.552 121.144 233.373 121.122 233.178 121.107C232.991 121.092 232.804 121.085 232.617 121.085C232.153 121.085 231.746 121.152 231.394 121.287C231.043 121.414 230.747 121.601 230.508 121.847C230.276 122.087 230.097 122.378 229.97 122.723C229.842 123.067 229.768 123.452 229.745 123.878L229.128 123.923C229.128 123.16 229.203 122.453 229.353 121.803C229.502 121.152 229.727 120.58 230.026 120.086C230.332 119.593 230.714 119.207 231.17 118.931C231.634 118.654 232.168 118.516 232.774 118.516C232.939 118.516 233.115 118.531 233.301 118.56C233.496 118.59 233.642 118.624 233.739 118.661ZM240.56 131.103C239.662 131.103 238.851 130.957 238.125 130.665C237.407 130.366 236.794 129.951 236.286 129.42C235.785 128.889 235.399 128.264 235.13 127.547C234.861 126.829 234.726 126.054 234.726 125.224V124.776C234.726 123.826 234.865 122.966 235.141 122.195C235.418 121.425 235.803 120.767 236.297 120.221C236.79 119.667 237.374 119.245 238.047 118.953C238.72 118.661 239.449 118.516 240.235 118.516C241.102 118.516 241.861 118.661 242.512 118.953C243.163 119.245 243.701 119.656 244.127 120.187C244.561 120.711 244.883 121.335 245.092 122.061C245.309 122.786 245.418 123.586 245.418 124.461V125.617L236.039 125.617V123.676L242.748 123.676V123.463C242.733 122.977 242.635 122.521 242.456 122.094C242.284 121.668 242.018 121.324 241.659 121.062C241.3 120.8 240.822 120.67 240.223 120.67C239.775 120.67 239.374 120.767 239.023 120.961C238.679 121.148 238.391 121.421 238.159 121.78C237.927 122.139 237.748 122.573 237.621 123.082C237.501 123.583 237.441 124.147 237.441 124.776V125.224C237.441 125.755 237.512 126.249 237.654 126.705C237.804 127.154 238.021 127.547 238.305 127.883C238.589 128.22 238.933 128.485 239.337 128.68C239.741 128.867 240.201 128.96 240.717 128.96C241.368 128.96 241.947 128.829 242.456 128.567C242.964 128.306 243.406 127.935 243.78 127.457L245.204 128.837C244.943 129.218 244.602 129.585 244.184 129.936C243.765 130.28 243.252 130.561 242.647 130.777C242.048 130.994 241.353 131.103 240.56 131.103Z" fill="#707070"></path>
  <rect width="133.207" height="34.4635" transform="translate(384.842 431.258) rotate(-20.7219)" fill="#A1BBAB"></rect>
  <path d="M409.417 431.474L411.767 430.585L420.642 440.697L420.591 427.246L422.942 426.357L422.887 443.842L421.02 444.548L409.417 431.474ZM408.346 431.879L410.581 431.033L414.828 441.085L416.749 446.164L414.126 447.156L408.346 431.879ZM421.777 426.798L424.023 425.948L429.802 441.226L427.168 442.222L425.247 437.144L421.777 426.798ZM438.496 434.878L435.213 426.201L437.752 425.24L442.047 436.593L439.655 437.498L438.496 434.878ZM437.959 432.383L438.801 432.04C439.09 432.802 439.272 433.537 439.347 434.244C439.42 434.944 439.372 435.598 439.202 436.206C439.03 436.807 438.721 437.344 438.276 437.816C437.828 438.282 437.223 438.658 436.461 438.947C435.908 439.156 435.37 439.267 434.848 439.281C434.325 439.295 433.833 439.197 433.37 438.989C432.914 438.777 432.493 438.437 432.108 437.967C431.722 437.497 431.388 436.888 431.104 436.139L428.33 428.805L430.859 427.848L433.641 435.204C433.797 435.616 433.977 435.944 434.181 436.187C434.382 436.423 434.598 436.593 434.83 436.697C435.061 436.801 435.302 436.846 435.552 436.832C435.803 436.817 436.054 436.762 436.306 436.667C437.026 436.394 437.54 436.04 437.847 435.604C438.158 435.158 438.31 434.661 438.302 434.112C438.301 433.561 438.187 432.984 437.959 432.383ZM445.548 422.291L446.247 424.138L439.846 426.559L439.148 424.712L445.548 422.291ZM439.943 421.233L442.471 420.276L446.631 431.273C446.764 431.623 446.915 431.873 447.084 432.025C447.258 432.167 447.447 432.236 447.653 432.23C447.859 432.224 448.084 432.175 448.329 432.082C448.504 432.016 448.668 431.942 448.821 431.86C448.974 431.778 449.095 431.708 449.185 431.65L449.926 433.577C449.74 433.719 449.516 433.868 449.255 434.023C449.001 434.175 448.695 434.318 448.338 434.453C447.758 434.673 447.205 434.766 446.681 434.733C446.154 434.692 445.676 434.485 445.247 434.112C444.817 433.738 444.456 433.163 444.162 432.387L439.943 421.233ZM457.334 428.207L455.286 422.793C455.133 422.387 454.927 422.065 454.669 421.827C454.411 421.589 454.101 421.446 453.739 421.399C453.385 421.349 452.983 421.409 452.536 421.579C452.123 421.735 451.793 421.94 451.545 422.193C451.297 422.447 451.134 422.725 451.056 423.026C450.978 423.327 450.996 423.628 451.11 423.929L448.592 424.882C448.422 424.434 448.367 423.959 448.425 423.458C448.483 422.956 448.656 422.463 448.944 421.978C449.233 421.493 449.628 421.047 450.13 420.642C450.632 420.236 451.24 419.898 451.954 419.628C452.807 419.305 453.617 419.163 454.383 419.201C455.156 419.236 455.841 419.473 456.439 419.91C457.04 420.338 457.505 420.986 457.833 421.853L459.743 426.901C459.939 427.418 460.149 427.87 460.376 428.256C460.606 428.633 460.848 428.945 461.102 429.193L461.165 429.361L458.574 430.341C458.351 430.114 458.126 429.803 457.897 429.41C457.673 429.007 457.485 428.606 457.334 428.207ZM455.951 423.441L456.564 424.997L454.748 425.683C454.28 425.861 453.884 426.062 453.562 426.288C453.237 426.507 452.987 426.745 452.813 427.003C452.638 427.261 452.537 427.532 452.508 427.814C452.479 428.097 452.521 428.389 452.635 428.69C452.749 428.991 452.923 429.24 453.159 429.439C453.391 429.631 453.667 429.747 453.985 429.786C454.311 429.823 454.666 429.768 455.051 429.623C455.569 429.427 455.98 429.151 456.286 428.796C456.595 428.431 456.804 428.052 456.911 427.66C457.016 427.26 457.023 426.918 456.931 426.633L458.174 427.446C458.198 427.765 458.171 428.127 458.093 428.532C458.014 428.938 457.868 429.353 457.653 429.778C457.442 430.194 457.145 430.582 456.762 430.943C456.386 431.301 455.904 431.591 455.316 431.814C454.575 432.094 453.858 432.197 453.166 432.123C452.472 432.042 451.865 431.812 451.346 431.433C450.824 431.046 450.441 430.531 450.198 429.888C449.97 429.286 449.881 428.712 449.93 428.166C449.984 427.61 450.171 427.091 450.493 426.61C450.821 426.125 451.277 425.681 451.86 425.277C452.44 424.865 453.143 424.504 453.968 424.191L455.951 423.441ZM462.509 418.645L465.887 427.575L463.358 428.531L459.063 417.178L461.445 416.277L462.509 418.645ZM463.13 421.649L462.307 421.948C462.01 421.141 461.843 420.361 461.805 419.607C461.775 418.851 461.865 418.157 462.074 417.527C462.29 416.893 462.625 416.342 463.08 415.874C463.532 415.4 464.097 415.034 464.776 414.777C465.322 414.571 465.844 414.461 466.343 414.448C466.846 414.426 467.319 414.523 467.76 414.74C468.209 414.954 468.619 415.298 468.991 415.773C469.36 416.241 469.691 416.864 469.985 417.64L472.76 424.975L470.221 425.935L467.442 418.59C467.236 418.045 466.992 417.645 466.712 417.391C466.437 417.127 466.123 416.986 465.772 416.967C465.426 416.938 465.032 417.007 464.591 417.174C464.157 417.338 463.804 417.576 463.53 417.887C463.256 418.199 463.059 418.557 462.941 418.962C462.829 419.364 462.788 419.795 462.818 420.256C462.848 420.716 462.952 421.18 463.13 421.649ZM476.251 410.676L476.949 412.523L470.549 414.944L469.85 413.097L476.251 410.676ZM470.645 409.618L473.173 408.662L477.334 419.658C477.466 420.008 477.617 420.259 477.786 420.41C477.96 420.553 478.15 420.621 478.355 420.615C478.561 420.609 478.786 420.56 479.031 420.467C479.206 420.401 479.37 420.327 479.523 420.245C479.676 420.163 479.797 420.093 479.887 420.035L480.628 421.962C480.442 422.104 480.218 422.253 479.957 422.408C479.703 422.56 479.397 422.704 479.041 422.839C478.46 423.058 477.907 423.151 477.383 423.118C476.856 423.077 476.378 422.87 475.949 422.497C475.519 422.124 475.158 421.549 474.864 420.772L470.645 409.618ZM488.806 401.38L494.606 416.71L492.077 417.667L487.413 405.338L484.147 408.025L483.357 405.936L488.502 401.495L488.806 401.38Z" fill="#F6F6F6"></path>
  <rect width="133.207" height="34.4635" transform="translate(459.513 351.771) rotate(-21.149)" fill="#A1BBAB"></rect>
  <path d="M484.088 351.803L486.432 350.897L495.382 360.943L495.231 347.493L497.575 346.586L497.651 364.07L495.789 364.791L484.088 351.803ZM483.021 352.216L485.25 351.354L489.571 361.374L491.53 366.438L488.914 367.45L483.021 352.216ZM496.414 347.035L498.653 346.169L504.546 361.403L501.92 362.419L499.961 357.355L496.414 347.035ZM513.192 354.991L509.845 346.338L512.377 345.359L516.756 356.68L514.371 357.602L513.192 354.991ZM512.637 352.499L513.477 352.15C513.771 352.911 513.958 353.644 514.039 354.351C514.117 355.05 514.074 355.705 513.908 356.314C513.74 356.916 513.436 357.455 512.994 357.93C512.55 358.399 511.948 358.78 511.187 359.075C510.636 359.288 510.1 359.403 509.577 359.421C509.055 359.438 508.561 359.345 508.097 359.139C507.64 358.931 507.216 358.594 506.827 358.127C506.438 357.66 506.099 357.053 505.81 356.307L502.981 348.993L505.503 348.018L508.34 355.352C508.499 355.764 508.682 356.09 508.887 356.332C509.09 356.566 509.308 356.734 509.54 356.837C509.772 356.94 510.013 356.983 510.263 356.966C510.514 356.949 510.764 356.893 511.015 356.795C511.734 356.517 512.245 356.159 512.548 355.721C512.856 355.273 513.004 354.775 512.993 354.226C512.988 353.675 512.869 353.099 512.637 352.499ZM520.151 342.351L520.863 344.193L514.481 346.662L513.768 344.82L520.151 342.351ZM514.537 341.335L517.059 340.36L521.301 351.325C521.436 351.674 521.588 351.923 521.759 352.074C521.934 352.215 522.124 352.282 522.33 352.274C522.535 352.267 522.76 352.216 523.004 352.121C523.179 352.054 523.342 351.979 523.494 351.896C523.647 351.813 523.768 351.742 523.857 351.683L524.612 353.604C524.427 353.748 524.205 353.898 523.945 354.055C523.692 354.209 523.387 354.355 523.031 354.493C522.452 354.717 521.901 354.814 521.376 354.784C520.849 354.748 520.369 354.544 519.937 354.174C519.505 353.804 519.139 353.232 518.84 352.457L514.537 341.335ZM531.981 348.18L529.892 342.781C529.735 342.376 529.527 342.056 529.268 341.82C529.008 341.583 528.697 341.443 528.335 341.399C527.98 341.351 527.579 341.414 527.133 341.587C526.721 341.746 526.392 341.954 526.146 342.209C525.9 342.465 525.74 342.743 525.664 343.045C525.588 343.347 525.608 343.648 525.724 343.948L523.213 344.92C523.041 344.473 522.981 343.999 523.036 343.497C523.09 342.994 523.26 342.5 523.544 342.013C523.829 341.526 524.221 341.077 524.72 340.668C525.219 340.258 525.825 339.916 526.536 339.641C527.387 339.311 528.196 339.163 528.962 339.195C529.735 339.225 530.422 339.456 531.023 339.89C531.628 340.313 532.098 340.957 532.432 341.822L534.379 346.855C534.579 347.371 534.793 347.822 535.022 348.206C535.255 348.581 535.5 348.891 535.755 349.137L535.82 349.305L533.236 350.305C533.012 350.078 532.784 349.77 532.552 349.378C532.325 348.977 532.134 348.577 531.981 348.18ZM530.562 343.424L531.186 344.975L529.376 345.675C528.908 345.856 528.514 346.06 528.194 346.289C527.87 346.51 527.622 346.75 527.45 347.009C527.278 347.269 527.178 347.54 527.151 347.823C527.124 348.106 527.169 348.397 527.285 348.697C527.401 348.997 527.577 349.246 527.814 349.443C528.048 349.633 528.324 349.747 528.643 349.784C528.97 349.818 529.324 349.761 529.708 349.612C530.224 349.413 530.634 349.134 530.936 348.776C531.243 348.409 531.449 348.029 531.553 347.635C531.655 347.235 531.659 346.893 531.565 346.608L532.814 347.412C532.841 347.731 532.817 348.093 532.742 348.499C532.666 348.905 532.522 349.321 532.311 349.748C532.103 350.165 531.809 350.556 531.429 350.919C531.055 351.28 530.575 351.574 529.989 351.801C529.25 352.087 528.534 352.196 527.842 352.127C527.147 352.051 526.538 351.825 526.016 351.449C525.491 351.067 525.105 350.555 524.857 349.913C524.624 349.313 524.531 348.74 524.576 348.193C524.626 347.637 524.809 347.117 525.127 346.633C525.452 346.146 525.905 345.699 526.484 345.29C527.061 344.874 527.761 344.507 528.584 344.189L530.562 343.424ZM537.084 338.579L540.528 347.483L538.007 348.459L533.627 337.138L536.002 336.219L537.084 338.579ZM537.727 341.578L536.907 341.884C536.603 341.079 536.43 340.3 536.387 339.547C536.351 338.791 536.436 338.096 536.64 337.464C536.852 336.829 537.183 336.276 537.634 335.804C538.083 335.326 538.645 334.956 539.322 334.694C539.866 334.484 540.387 334.37 540.886 334.354C541.389 334.328 541.862 334.421 542.306 334.635C542.756 334.845 543.169 335.187 543.544 335.659C543.917 336.125 544.253 336.744 544.552 337.519L547.381 344.832L544.849 345.812L542.016 338.488C541.806 337.944 541.559 337.546 541.278 337.294C541 337.032 540.686 336.893 540.334 336.877C539.987 336.851 539.594 336.923 539.155 337.093C538.722 337.26 538.37 337.5 538.099 337.814C537.827 338.127 537.633 338.487 537.518 338.893C537.409 339.296 537.371 339.727 537.405 340.187C537.439 340.647 537.546 341.111 537.727 341.578ZM550.765 330.508L551.478 332.349L545.095 334.818L544.383 332.977L550.765 330.508ZM545.152 329.492L547.674 328.516L551.915 339.482C552.05 339.83 552.203 340.08 552.374 340.231C552.548 340.372 552.739 340.438 552.944 340.431C553.15 340.423 553.375 340.373 553.619 340.278C553.793 340.211 553.957 340.135 554.109 340.052C554.261 339.969 554.382 339.899 554.472 339.84L555.227 341.761C555.042 341.905 554.819 342.055 554.559 342.212C554.306 342.366 554.002 342.512 553.646 342.649C553.067 342.873 552.515 342.97 551.991 342.941C551.463 342.904 550.984 342.701 550.552 342.331C550.12 341.961 549.754 341.388 549.455 340.614L545.152 329.492ZM571.715 333.109L572.493 335.118L562.281 339.068L561.613 337.342L564.48 330.014C564.786 329.19 565.01 328.494 565.151 327.926C565.293 327.358 565.357 326.872 565.345 326.468C565.337 326.054 565.267 325.676 565.135 325.334C564.949 324.853 564.695 324.466 564.373 324.173C564.056 323.871 563.686 323.681 563.263 323.604C562.838 323.52 562.381 323.573 561.893 323.762C561.328 323.98 560.9 324.286 560.611 324.678C560.322 325.071 560.163 325.521 560.135 326.029C560.105 326.53 560.196 327.056 560.409 327.607L557.888 328.583C557.545 327.697 557.434 326.81 557.555 325.921C557.674 325.025 558.033 324.212 558.633 323.483C559.23 322.747 560.07 322.169 561.151 321.751C562.169 321.357 563.1 321.193 563.944 321.26C564.788 321.326 565.516 321.602 566.128 322.087C566.748 322.569 567.224 323.239 567.555 324.097C567.739 324.571 567.844 325.072 567.872 325.598C567.899 326.125 567.86 326.678 567.755 327.256C567.654 327.824 567.502 328.416 567.299 329.032C567.094 329.64 566.853 330.271 566.576 330.923L564.684 335.829L571.715 333.109Z" fill="#F6F6F6"></path>
  <rect width="256.207" height="34.4635" transform="translate(607.983 261.116) rotate(-14.3703)" fill="#4B528F"></rect>
  <path d="M631.274 264.334L636.871 262.9C638.074 262.592 639.145 262.51 640.086 262.655C641.026 262.801 641.812 263.171 642.443 263.765C643.08 264.351 643.531 265.162 643.796 266.198C643.998 266.988 644.032 267.721 643.896 268.396C643.76 269.072 643.481 269.684 643.058 270.232C642.633 270.774 642.083 271.25 641.409 271.662L640.686 272.276L635.654 273.565L635.079 271.408L638.85 270.442C639.502 270.275 640.015 270.02 640.391 269.676C640.766 269.333 641.011 268.935 641.126 268.48C641.247 268.017 641.242 267.532 641.113 267.025C640.971 266.474 640.74 266.024 640.419 265.674C640.103 265.315 639.696 265.083 639.199 264.979C638.699 264.868 638.109 264.899 637.428 265.074L634.559 265.809L638.056 279.458L635.328 280.157L631.274 264.334ZM644.359 277.843L638.821 271.688L641.677 270.945L647.235 276.956L647.272 277.097L644.359 277.843ZM654.326 275.521C653.457 275.744 652.634 275.804 651.859 275.702C651.089 275.59 650.392 275.34 649.768 274.952C649.151 274.562 648.623 274.053 648.184 273.424C647.744 272.795 647.422 272.079 647.216 271.275L647.105 270.84C646.869 269.92 646.789 269.052 646.866 268.237C646.943 267.422 647.153 266.689 647.496 266.038C647.836 265.379 648.297 264.825 648.876 264.376C649.456 263.926 650.126 263.604 650.887 263.409C651.727 263.193 652.499 263.146 653.202 263.267C653.904 263.388 654.528 263.653 655.073 264.062C655.623 264.461 656.089 264.987 656.472 265.637C656.863 266.286 657.166 267.035 657.383 267.882L657.67 269.002L648.585 271.329L648.103 269.449L654.602 267.784L654.549 267.578C654.414 267.11 654.207 266.693 653.927 266.324C653.654 265.954 653.312 265.687 652.899 265.522C652.486 265.358 651.99 265.35 651.411 265.498C650.976 265.61 650.612 265.803 650.32 266.079C650.033 266.345 649.822 266.681 649.687 267.086C649.551 267.492 649.485 267.956 649.488 268.481C649.496 268.996 649.579 269.558 649.735 270.166L649.846 270.601C649.978 271.115 650.169 271.576 650.42 271.982C650.676 272.38 650.984 272.707 651.343 272.962C651.701 273.218 652.101 273.389 652.54 273.478C652.978 273.558 653.446 273.535 653.946 273.407C654.577 273.245 655.106 272.975 655.533 272.595C655.961 272.215 656.297 271.747 656.54 271.19L658.263 272.173C658.104 272.608 657.865 273.047 657.547 273.492C657.226 273.929 656.8 274.328 656.267 274.688C655.741 275.047 655.094 275.325 654.326 275.521ZM665.344 270.475C665.771 270.366 666.134 270.184 666.432 269.93C666.735 269.667 666.953 269.357 667.085 268.998C667.224 268.638 667.254 268.256 667.173 267.852L669.64 267.22C669.821 267.985 669.773 268.734 669.498 269.469C669.223 270.203 668.774 270.847 668.152 271.4C667.527 271.946 666.78 272.331 665.911 272.553C665.012 272.784 664.191 272.832 663.447 272.698C662.7 272.558 662.036 272.272 661.455 271.842C660.874 271.412 660.38 270.871 659.974 270.218C659.574 269.564 659.271 268.831 659.063 268.019L658.966 267.639C658.758 266.828 658.671 266.039 658.707 265.273C658.748 264.498 658.92 263.783 659.222 263.126C659.525 262.47 659.971 261.904 660.559 261.429C661.146 260.946 661.885 260.591 662.776 260.363C663.718 260.121 664.592 260.098 665.399 260.293C666.203 260.481 666.894 260.856 667.47 261.418C668.052 261.972 668.463 262.685 668.702 263.558L666.235 264.19C666.102 263.761 665.893 263.397 665.608 263.1C665.329 262.793 664.988 262.579 664.587 262.458C664.192 262.335 663.756 262.335 663.278 262.458C662.749 262.593 662.339 262.814 662.047 263.121C661.753 263.42 661.555 263.779 661.454 264.199C661.351 264.611 661.315 265.057 661.345 265.535C661.38 266.005 661.46 266.483 661.585 266.968L661.682 267.348C661.806 267.834 661.967 268.294 662.164 268.731C662.36 269.167 662.603 269.541 662.891 269.853C663.185 270.156 663.534 270.371 663.937 270.5C664.339 270.621 664.808 270.613 665.344 270.475ZM670.675 264.975L670.611 264.725C670.393 263.877 670.315 263.06 670.376 262.272C670.435 261.477 670.627 260.752 670.954 260.097C671.285 259.433 671.75 258.867 672.348 258.397C672.951 257.918 673.68 257.569 674.535 257.35C675.397 257.129 676.204 257.085 676.956 257.216C677.713 257.339 678.396 257.611 679.007 258.034C679.615 258.45 680.136 258.992 680.57 259.66C681.002 260.322 681.326 261.076 681.543 261.924L681.607 262.174C681.825 263.022 681.903 263.839 681.842 264.627C681.781 265.415 681.585 266.14 681.253 266.804C680.92 267.461 680.455 268.028 679.859 268.505C679.262 268.975 678.535 269.319 677.68 269.538C676.818 269.759 676.009 269.808 675.252 269.685C674.5 269.554 673.82 269.28 673.211 268.865C672.601 268.442 672.08 267.9 671.648 267.239C671.216 266.577 670.892 265.823 670.675 264.975ZM673.23 264.054L673.294 264.304C673.429 264.833 673.612 265.319 673.841 265.762C674.07 266.205 674.346 266.574 674.669 266.87C674.992 267.166 675.36 267.368 675.775 267.478C676.189 267.588 676.646 267.579 677.146 267.451C677.631 267.327 678.026 267.118 678.329 266.824C678.639 266.528 678.864 266.173 679.005 265.759C679.146 265.345 679.211 264.888 679.199 264.389C679.194 263.889 679.124 263.374 678.988 262.845L678.924 262.595C678.791 262.073 678.606 261.596 678.372 261.162C678.142 260.718 677.862 260.346 677.53 260.045C677.205 259.743 676.836 259.536 676.422 259.426C676.013 259.307 675.562 259.31 675.069 259.437C674.577 259.563 674.176 259.777 673.868 260.08C673.565 260.374 673.344 260.732 673.205 261.154C673.066 261.575 673.002 262.035 673.014 262.534C673.024 263.026 673.096 263.532 673.23 264.054ZM685.495 257.322L687.895 266.689L685.276 267.36L682.263 255.602L684.73 254.97L685.495 257.322ZM685.853 260.484L684.959 260.701C684.751 259.89 684.661 259.114 684.687 258.374C684.714 257.634 684.858 256.96 685.119 256.352C685.378 255.738 685.763 255.219 686.272 254.795C686.786 254.362 687.427 254.047 688.195 253.85C688.731 253.713 689.241 253.667 689.724 253.713C690.212 253.751 690.662 253.894 691.073 254.144C691.492 254.392 691.855 254.754 692.162 255.231C692.477 255.706 692.729 256.313 692.918 257.052L694.926 264.888L692.307 265.559L690.358 257.952C690.211 257.379 690.009 256.952 689.752 256.671C689.502 256.388 689.199 256.218 688.845 256.162C688.497 256.097 688.105 256.12 687.67 256.231C687.178 256.358 686.782 256.559 686.482 256.837C686.19 257.113 685.977 257.441 685.843 257.823C685.709 258.205 685.646 258.622 685.654 259.076C685.663 259.529 685.729 259.999 685.853 260.484ZM692.967 257.92L691.809 258.507C691.627 257.796 691.553 257.101 691.587 256.421C691.626 255.731 691.777 255.098 692.038 254.522C692.305 253.936 692.69 253.432 693.191 253.01C693.693 252.588 694.314 252.283 695.053 252.093C695.654 251.939 696.212 251.885 696.725 251.931C697.244 251.968 697.715 252.118 698.137 252.38C698.56 252.642 698.929 253.03 699.246 253.544C699.561 254.05 699.819 254.694 700.019 255.476L701.968 263.084L699.338 263.758L697.386 256.139C697.234 255.545 697.029 255.108 696.772 254.826C696.522 254.543 696.225 254.379 695.882 254.336C695.537 254.285 695.147 254.316 694.713 254.427C694.307 254.531 693.968 254.699 693.695 254.931C693.428 255.154 693.224 255.426 693.082 255.748C692.939 256.063 692.857 256.404 692.835 256.773C692.821 257.139 692.865 257.522 692.967 257.92ZM700.397 245.698L703.017 245.027L706.65 259.209L707.043 261.784L704.674 262.39L700.397 245.698ZM713.432 253.766L713.49 253.994C713.713 254.863 713.82 255.689 713.812 256.471C713.809 257.244 713.681 257.948 713.427 258.585C713.18 259.219 712.809 259.758 712.313 260.202C711.822 260.636 711.203 260.949 710.457 261.141C709.725 261.328 709.052 261.354 708.439 261.218C707.825 261.081 707.268 260.807 706.769 260.395C706.276 259.98 705.828 259.451 705.423 258.805C705.019 258.16 704.661 257.426 704.349 256.602L704.163 255.874C704.038 254.995 703.999 254.179 704.045 253.426C704.09 252.666 704.228 251.985 704.46 251.385C704.698 250.776 705.05 250.266 705.515 249.853C705.988 249.438 706.587 249.138 707.311 248.953C708.065 248.76 708.765 248.735 709.411 248.878C710.065 249.019 710.653 249.309 711.174 249.746C711.694 250.177 712.141 250.734 712.517 251.417C712.9 252.099 713.205 252.882 713.432 253.766ZM710.871 254.665L710.813 254.437C710.677 253.908 710.506 253.423 710.301 252.981C710.093 252.533 709.842 252.157 709.549 251.854C709.262 251.549 708.922 251.339 708.53 251.223C708.143 251.098 707.699 251.1 707.199 251.228C706.736 251.347 706.358 251.529 706.065 251.773C705.773 252.018 705.55 252.307 705.396 252.64C705.241 252.973 705.146 253.337 705.108 253.733C705.078 254.126 705.095 254.539 705.159 254.97L705.663 256.937C705.867 257.464 706.133 257.929 706.46 258.331C706.792 258.725 707.189 259.009 707.651 259.184C708.111 259.352 708.649 259.357 709.265 259.199C709.75 259.075 710.135 258.872 710.418 258.591C710.701 258.31 710.896 257.971 711.002 257.573C711.114 257.166 711.153 256.716 711.12 256.223C711.093 255.728 711.01 255.208 710.871 254.665ZM716.974 246.709L719.987 258.467L717.357 259.141L714.344 247.382L716.974 246.709ZM713.379 244.341C713.277 243.942 713.323 243.579 713.517 243.251C713.717 242.915 714.052 242.686 714.523 242.565C714.986 242.447 715.387 242.487 715.723 242.686C716.058 242.878 716.277 243.174 716.379 243.572C716.479 243.963 716.429 244.324 716.227 244.653C716.026 244.983 715.694 245.207 715.23 245.326C714.759 245.446 714.356 245.411 714.021 245.218C713.694 245.024 713.48 244.732 713.379 244.341ZM723.084 247.819L725.453 257.067L722.834 257.738L719.821 245.979L722.288 245.347L723.084 247.819ZM723.368 250.873L722.518 251.079C722.311 250.244 722.231 249.45 722.278 248.697C722.331 247.942 722.497 247.262 722.775 246.659C723.06 246.053 723.454 245.543 723.958 245.128C724.459 244.706 725.062 244.405 725.764 244.225C726.33 244.08 726.861 244.029 727.358 244.071C727.861 244.105 728.32 244.254 728.735 244.518C729.157 244.78 729.527 245.168 729.844 245.681C730.158 246.187 730.419 246.843 730.625 247.647L732.571 255.243L729.941 255.917L727.992 248.31C727.847 247.745 727.65 247.32 727.4 247.037C727.155 246.745 726.859 246.569 726.512 246.512C726.171 246.445 725.772 246.47 725.316 246.587C724.866 246.702 724.489 246.899 724.182 247.178C723.875 247.458 723.64 247.792 723.477 248.181C723.322 248.568 723.234 248.992 723.213 249.453C723.192 249.914 723.244 250.387 723.368 250.873ZM741.27 250.502L739.833 244.894C739.725 244.474 739.556 244.131 739.326 243.866C739.096 243.6 738.804 243.424 738.45 243.337C738.103 243.249 737.697 243.264 737.234 243.383C736.806 243.492 736.455 243.659 736.181 243.884C735.907 244.109 735.714 244.366 735.603 244.657C735.492 244.948 735.477 245.249 735.557 245.561L732.949 246.229C732.83 245.765 732.827 245.288 732.94 244.795C733.053 244.303 733.28 243.832 733.62 243.382C733.961 242.932 734.403 242.533 734.947 242.185C735.491 241.837 736.132 241.569 736.871 241.379C737.755 241.153 738.576 241.101 739.333 241.224C740.097 241.344 740.752 241.655 741.297 242.156C741.848 242.648 742.238 243.343 742.468 244.242L743.808 249.469C743.945 250.005 744.105 250.478 744.287 250.887C744.474 251.286 744.68 251.624 744.905 251.898L744.949 252.072L742.265 252.76C742.07 252.509 741.88 252.175 741.696 251.759C741.518 251.334 741.375 250.915 741.27 250.502ZM740.422 245.611L740.859 247.225L738.979 247.707C738.493 247.831 738.078 247.988 737.732 248.177C737.385 248.358 737.111 248.568 736.909 248.805C736.707 249.042 736.576 249.299 736.516 249.577C736.456 249.855 736.466 250.15 736.546 250.461C736.626 250.773 736.771 251.04 736.983 251.264C737.193 251.48 737.454 251.626 737.767 251.7C738.086 251.773 738.445 251.758 738.844 251.656C739.38 251.518 739.819 251.29 740.162 250.971C740.51 250.642 740.76 250.289 740.91 249.91C741.058 249.525 741.102 249.186 741.043 248.892L742.188 249.838C742.177 250.157 742.111 250.514 741.988 250.908C741.865 251.303 741.673 251.699 741.412 252.098C741.157 252.488 740.819 252.841 740.398 253.157C739.985 253.471 739.473 253.706 738.865 253.862C738.097 254.059 737.373 254.082 736.694 253.932C736.013 253.775 735.435 253.479 734.961 253.044C734.485 252.603 734.162 252.049 733.991 251.382C733.831 250.759 733.806 250.179 733.915 249.641C734.03 249.094 734.274 248.6 734.647 248.157C735.027 247.712 735.529 247.321 736.153 246.983C736.775 246.639 737.513 246.357 738.368 246.138L740.422 245.611ZM747.47 241.571L749.84 250.819L747.221 251.49L744.208 239.731L746.675 239.099L747.47 241.571ZM747.755 244.625L746.904 244.831C746.698 243.996 746.618 243.202 746.665 242.449C746.718 241.694 746.884 241.014 747.162 240.411C747.446 239.805 747.841 239.295 748.344 238.88C748.846 238.458 749.449 238.157 750.151 237.977C750.716 237.832 751.248 237.781 751.745 237.823C752.248 237.857 752.706 238.006 753.122 238.27C753.544 238.532 753.914 238.92 754.23 239.433C754.545 239.939 754.806 240.595 755.012 241.399L756.958 248.995L754.328 249.669L752.379 242.062C752.234 241.497 752.037 241.072 751.787 240.789C751.542 240.497 751.246 240.321 750.899 240.264C750.558 240.197 750.159 240.222 749.703 240.339C749.253 240.454 748.875 240.651 748.569 240.93C748.262 241.21 748.027 241.544 747.864 241.933C747.709 242.32 747.62 242.744 747.6 243.205C747.579 243.666 747.63 244.139 747.755 244.625ZM762.009 235.171L762.499 237.083L755.87 238.782L755.38 236.869L762.009 235.171ZM756.555 233.499L759.174 232.828L762.092 244.217C762.185 244.579 762.307 244.845 762.458 245.015C762.615 245.176 762.796 245.264 763.001 245.281C763.206 245.298 763.436 245.274 763.689 245.209C763.871 245.163 764.042 245.107 764.203 245.043C764.364 244.979 764.492 244.922 764.588 244.875L765.111 246.872C764.911 246.992 764.672 247.115 764.395 247.24C764.125 247.363 763.806 247.472 763.436 247.567C762.835 247.721 762.276 247.752 761.758 247.661C761.239 247.563 760.787 247.304 760.401 246.885C760.016 246.467 759.721 245.855 759.515 245.051L756.555 233.499ZM769.901 228.817L772.335 228.194L780.037 239.226L781.475 225.852L783.909 225.228L781.921 242.6L779.986 243.095L769.901 228.817ZM768.793 229.101L771.107 228.508L774.216 238.969L775.563 244.228L772.846 244.925L768.793 229.101ZM782.703 225.537L785.029 224.942L789.083 240.765L786.355 241.464L785.007 236.204L782.703 225.537ZM798.425 235.418L796.122 226.431L798.752 225.757L801.765 237.515L799.287 238.15L798.425 235.418ZM798.168 232.878L799.043 232.631C799.245 233.421 799.345 234.171 799.342 234.882C799.337 235.586 799.216 236.231 798.98 236.816C798.742 237.394 798.376 237.894 797.881 238.314C797.385 238.726 796.742 239.034 795.952 239.236C795.38 239.383 794.833 239.434 794.312 239.39C793.792 239.346 793.313 239.195 792.876 238.936C792.446 238.675 792.066 238.29 791.734 237.781C791.403 237.271 791.138 236.629 790.94 235.854L788.993 228.257L791.612 227.586L793.564 235.204C793.674 235.632 793.816 235.977 793.992 236.241C794.166 236.498 794.362 236.691 794.58 236.82C794.799 236.949 795.033 237.021 795.284 237.034C795.534 237.047 795.79 237.02 796.051 236.953C796.797 236.762 797.346 236.466 797.7 236.067C798.058 235.659 798.264 235.181 798.317 234.635C798.377 234.087 798.328 233.501 798.168 232.878ZM806.827 223.688L807.317 225.601L800.688 227.299L800.198 225.386L806.827 223.688ZM801.373 222.017L803.992 221.346L806.91 232.735C807.003 233.097 807.125 233.363 807.276 233.533C807.433 233.693 807.614 233.782 807.819 233.799C808.024 233.816 808.254 233.792 808.507 233.727C808.688 233.68 808.859 233.625 809.021 233.56C809.182 233.496 809.31 233.44 809.406 233.392L809.929 235.389C809.728 235.51 809.49 235.633 809.213 235.758C808.943 235.881 808.624 235.99 808.254 236.085C807.653 236.239 807.094 236.27 806.576 236.179C806.057 236.08 805.604 235.822 805.219 235.403C804.834 234.984 804.538 234.373 804.332 233.569L801.373 222.017ZM817.886 230.872L816.449 225.265C816.342 224.844 816.173 224.502 815.943 224.236C815.713 223.971 815.42 223.795 815.066 223.708C814.719 223.619 814.314 223.634 813.85 223.753C813.423 223.863 813.072 224.03 812.797 224.255C812.523 224.479 812.33 224.737 812.22 225.028C812.109 225.319 812.093 225.62 812.173 225.932L809.565 226.6C809.446 226.136 809.443 225.658 809.557 225.166C809.67 224.674 809.897 224.203 810.237 223.753C810.577 223.302 811.019 222.904 811.563 222.556C812.107 222.208 812.749 221.939 813.488 221.75C814.371 221.524 815.192 221.472 815.949 221.594C816.713 221.715 817.368 222.026 817.914 222.527C818.464 223.019 818.855 223.714 819.085 224.612L820.424 229.84C820.561 230.376 820.721 230.848 820.903 231.257C821.09 231.657 821.297 231.994 821.521 232.269L821.566 232.442L818.881 233.13C818.686 232.879 818.496 232.546 818.312 232.13C818.134 231.704 817.992 231.285 817.886 230.872ZM817.039 225.982L817.475 227.596L815.595 228.078C815.11 228.202 814.694 228.358 814.349 228.547C814.002 228.729 813.727 228.938 813.525 229.175C813.324 229.412 813.193 229.67 813.133 229.948C813.073 230.225 813.082 230.52 813.162 230.832C813.242 231.143 813.388 231.411 813.6 231.635C813.809 231.851 814.071 231.996 814.383 232.071C814.703 232.143 815.062 232.128 815.46 232.026C815.996 231.889 816.436 231.661 816.779 231.341C817.127 231.013 817.376 230.659 817.526 230.281C817.674 229.896 817.719 229.556 817.659 229.263L818.805 230.208C818.794 230.528 818.727 230.885 818.604 231.279C818.481 231.673 818.289 232.07 818.029 232.469C817.773 232.858 817.435 233.211 817.015 233.527C816.601 233.842 816.09 234.077 815.481 234.233C814.713 234.43 813.99 234.453 813.31 234.303C812.629 234.145 812.052 233.849 811.577 233.415C811.101 232.973 810.778 232.419 810.607 231.753C810.448 231.13 810.422 230.549 810.532 230.012C810.646 229.465 810.89 228.97 811.263 228.527C811.643 228.082 812.145 227.691 812.769 227.354C813.391 227.009 814.13 226.727 814.985 226.508L817.039 225.982ZM824.087 221.941L826.456 231.19L823.837 231.861L820.824 220.102L823.291 219.47L824.087 221.941ZM824.371 224.995L823.521 225.202C823.315 224.366 823.235 223.572 823.281 222.819C823.335 222.064 823.5 221.385 823.778 220.781C824.063 220.175 824.457 219.665 824.961 219.251C825.463 218.829 826.065 218.528 826.768 218.348C827.333 218.203 827.864 218.152 828.361 218.194C828.864 218.227 829.323 218.376 829.738 218.64C830.16 218.903 830.53 219.291 830.847 219.804C831.162 220.31 831.422 220.965 831.628 221.769L833.574 229.366L830.944 230.04L828.995 222.432C828.851 221.867 828.653 221.443 828.403 221.16C828.158 220.867 827.862 220.692 827.516 220.634C827.174 220.567 826.775 220.592 826.319 220.709C825.87 220.824 825.492 221.022 825.185 221.301C824.878 221.58 824.643 221.914 824.481 222.304C824.325 222.691 824.237 223.115 824.216 223.576C824.195 224.037 824.247 224.51 824.371 224.995ZM838.626 215.541L839.116 217.454L832.486 219.152L831.996 217.24L838.626 215.541ZM833.171 213.87L835.79 213.199L838.708 224.588C838.801 224.95 838.923 225.216 839.075 225.386C839.232 225.546 839.413 225.635 839.618 225.652C839.823 225.669 840.052 225.645 840.306 225.58C840.487 225.533 840.658 225.478 840.819 225.414C840.98 225.349 841.109 225.293 841.204 225.245L841.728 227.242C841.527 227.363 841.288 227.486 841.011 227.611C840.742 227.734 840.422 227.843 840.053 227.938C839.452 228.092 838.892 228.123 838.375 228.032C837.855 227.933 837.403 227.675 837.018 227.256C836.633 226.837 836.337 226.226 836.131 225.422L833.171 213.87Z" fill="#F7F7F7"></path>
  <path d="M375.01 687.463L392.038 683.064L387.639 666.036L370.611 670.435L375.01 687.463ZM383.18 677.843L544.655 403.886L540.944 401.698L379.469 675.656L383.18 677.843Z" fill="#D9D9D9"></path>
  <path d="M864.573 254.717L848.494 247.592L841.369 263.671L857.448 270.796L864.573 254.717ZM589.526 363.158L853.746 261.204L852.196 257.184L587.976 359.139L589.526 363.158Z" fill="#4B528F"></path>
  <path d="M534.427 416.314H552.014V398.727H534.427V416.314ZM597.965 352.776L580.378 352.776L580.378 370.363L597.965 370.363L597.965 352.776ZM544.744 409.044L590.695 363.092L587.649 360.046L541.697 405.997L544.744 409.044Z" fill="#A1BBAB"></path>
</svg>
