<svg width="40" height="40" fill="none" xmlns="http://www.w3.org/2000/svg"><path d="M31.852 15.916c.278-1.036.428-2.104.428-3.193C32.28 5.953 26.77.444 20 .444S7.722 5.954 7.722 12.724c0 1.088.15 2.156.428 3.192C3.56 17.765.445 22.232.445 27.276c0 6.77 5.51 12.28 12.28 12.28 2.642 0 5.187-.851 7.278-2.406a12.178 12.178 0 007.274 2.405c6.77 0 12.28-5.508 12.28-12.279 0-5.044-3.115-9.511-7.705-11.36zM20 3.173c5.265 0 9.55 4.285 9.55 9.55 0 1.217-.224 2.4-.668 3.518a9.607 9.607 0 01-6.375 5.7c-1.575.441-3.43.443-5.023-.001a9.606 9.606 0 01-6.367-5.7 9.479 9.479 0 01-.668-3.517c0-5.265 4.285-9.55 9.55-9.55zm-.195 30.495a9.2 9.2 0 01-.71.7c-.003.003-.006.008-.01.01a9.469 9.469 0 01-6.362 2.449c-5.265 0-9.55-4.285-9.55-9.55a9.572 9.572 0 015.95-8.851c.011.023.026.043.038.066.064.119.14.23.207.346.157.273.318.544.496.803.097.142.204.276.308.414.166.222.334.44.514.65.12.139.245.271.37.405a12.462 12.462 0 00.976.934c.204.175.415.342.63.503.144.108.287.215.436.317.231.158.47.303.712.445.145.085.287.174.436.253.274.147.557.275.842.4.128.057.251.12.381.173.42.167.849.316 1.289.436.461.129.943.22 1.431.292.176.026.356.038.535.056.326.033.651.056.98.064.1.002.196.02.296.02.097 0 .189-.017.285-.02a12.62 12.62 0 001.03-.067c.156-.016.314-.026.469-.048.046-.006.094-.007.14-.014.036.137.09.27.12.41.03.14.058.281.082.424a9.64 9.64 0 01.148 1.588 9.484 9.484 0 01-2.468 6.392zm7.471 3.159a9.46 9.46 0 01-5.231-1.572c.044-.052.074-.113.118-.165.4-.48.768-.984 1.088-1.517.021-.036.047-.069.069-.105.323-.551.59-1.133.823-1.728.045-.115.091-.227.133-.343.21-.588.376-1.19.495-1.807.022-.113.036-.227.055-.342.105-.648.176-1.305.176-1.972 0-.482-.037-.96-.092-1.433-.016-.135-.037-.267-.057-.4a12.144 12.144 0 00-.212-1.082c-.02-.082-.027-.166-.049-.247l.034-.017a12.257 12.257 0 001.674-.858c.137-.082.27-.165.403-.252a12.39 12.39 0 001.511-1.146c.033-.03.06-.063.093-.093.442-.406.845-.85 1.224-1.317a12.347 12.347 0 001.316-1.958c.009-.017.021-.03.03-.047a9.572 9.572 0 015.95 8.85c0 5.266-4.285 9.55-9.55 9.55z" fill="#282753"/></svg>