<svg width="32" height="30" fill="none" xmlns="http://www.w3.org/2000/svg"><path d="M31.969 17.94a2.665 2.665 0 00-1.964-2.23 3.905 3.905 0 00-2.766.281l-3.844 1.92a3.54 3.54 0 00-3.24-2.138h-5.077c-1.87-1.027-3.76-1.28-5.623-.753-1.501.426-3.001 1.375-4.468 2.827a1.697 1.697 0 00-2.082.262L.5 20.544a1.723 1.723 0 00-.5 1.22c0 .461.177.894.499 1.22l6.441 6.514a1.696 1.696 0 002.413-.002l2.408-2.435a1.723 1.723 0 00.479-1.489h4.455c1.311 0 2.352-.138 3.48-.464l3.614-1.041c1.31-.377 2.348-.881 3.502-1.522l3.39-1.881c.948-.526 1.453-1.597 1.288-2.725zM8.145 27.95L2.03 21.764l2.084-2.108 6.118 6.185-2.086 2.108zm21.605-9.002l-3.39 1.882c-1.039.578-1.964 1.029-3.1 1.356l-3.615 1.04c-.945.274-1.827.39-2.949.39h-4.91c-.303 0-.597.066-.862.16l-4.531-4.582c2.706-2.668 5.249-3.171 7.95-1.594l.224.131h5.59c.811 0 1.49.613 1.59 1.412h-6.093a.973.973 0 00-.968.979c0 .54.433.978.967.978h6.215c.508 0 .98-.206 1.324-.577.14-.15.252-.315.334-.493l4.573-2.284a1.99 1.99 0 011.409-.144.724.724 0 01.547.622c.036.249-.024.57-.304.726zM17.35 7.974a.983.983 0 01-.284-.692V3.65c0-.54.434-.978.968-.978s.968.438.968.978v3.227l1.51 1.527a.986.986 0 010 1.384.96.96 0 01-1.369 0L17.35 7.974zm.684 6.59c3.971 0 7.202-3.266 7.202-7.282 0-4.015-3.23-7.282-7.202-7.282-3.971 0-7.202 3.267-7.202 7.282 0 4.016 3.23 7.282 7.202 7.282zm0-12.607c2.904 0 5.266 2.389 5.266 5.325 0 2.937-2.362 5.326-5.266 5.326s-5.267-2.39-5.267-5.326c0-2.936 2.363-5.325 5.267-5.325z" fill="#fff"/></svg>