<svg width="30" height="29" fill="none" xmlns="http://www.w3.org/2000/svg"><path d="M15.01 13.9a1.473 1.473 0 00-.813.242l-3.887 2.544a1.453 1.453 0 00-.65 1.041l-.01.178v3.621a1.432 1.432 0 00.66 1.223v-.001l3.856 2.543v.001a1.474 1.474 0 001.637.002l3.888-2.546h0a1.43 1.43 0 00.676-1.21V17.91a1.431 1.431 0 00-.66-1.22h0l-3.888-2.544a1.47 1.47 0 00-.808-.247zM8.349 2.944c-.291 0-.576.086-.818.247L3.643 5.736a1.451 1.451 0 00-.66 1.22v3.62a1.433 1.433 0 00.66 1.222L7.5 14.34v0a1.473 1.473 0 001.639 0l3.885-2.544a1.434 1.434 0 00.687-1.215V6.955a1.432 1.432 0 00-.66-1.219h0L9.164 3.191a1.472 1.472 0 00-.816-.247zm13.333 0a1.47 1.47 0 00-.728.192l-.093.057-3.885 2.544a1.451 1.451 0 00-.659 1.218v3.621a1.432 1.432 0 00.658 1.22v0l3.859 2.545v0a1.474 1.474 0 001.637.003l3.887-2.547a1.434 1.434 0 00.687-1.215V6.955a1.432 1.432 0 00-.66-1.219h0l-3.887-2.545a1.473 1.473 0 00-.816-.247zm7.968 7.663l.001.002a3.93 3.93 0 01-.472 1.894 4.003 4.003 0 01-1.331 1.446l-4.705 3.071-.159.104v5.186l.158.103 5.922 3.904h0a1.303 1.303 0 01.566.856 1.27 1.27 0 01-.236.981 1.425 1.425 0 01-1.888.243l-.007-.003-5.64-3.707-.191-.127-.192.127-4.228 2.775h0a4.091 4.091 0 01-2.25.673 4.091 4.091 0 01-2.249-.672v-.001l-4.223-2.776-.191-.125-.192.125-5.64 3.696-.007.005a1.426 1.426 0 01-1.889-.243 1.283 1.283 0 01-.235-.983 1.305 1.305 0 01.565-.855l5.922-3.887.159-.104v-5.191l-.159-.104-4.706-3.07h.001a4.005 4.005 0 01-1.33-1.445 3.932 3.932 0 01-.473-1.89h0v-3.69c-.005-.66.158-1.31.472-1.894a4.005 4.005 0 011.33-1.446l3.934-2.563h0a4.091 4.091 0 014.499 0h0l4.223 2.775.192.127.191-.126 4.229-2.77v-.002A4.091 4.091 0 0121.67.354c.801 0 1.585.234 2.25.672v.002l3.929 2.557a4.004 4.004 0 011.33 1.446c.314.583.477 1.234.472 1.894h0v3.681z" fill="#fff" stroke="#282753" stroke-width=".7"/></svg>