<svg width="34" height="39" fill="none" xmlns="http://www.w3.org/2000/svg"><path d="M28.725.444H9.711c-.088 0-.173.01-.254.025H9.45a1.243 1.243 0 00-.326.117c-.025.012-.045.024-.07.037a1.28 1.28 0 00-.282.21L.769 8.834a1.37 1.37 0 00-.212.284l-.037.069a1.299 1.299 0 00-.116.326v.01a1.214 1.214 0 00-.025.251v9.888h2.656v-8.56h4.441a3.569 3.569 0 003.565-3.565v-4.44h17.687c1.185 0 2.15.887 2.15 1.977v29.172c0 1.092-.963 1.978-2.15 1.978l-23.833.006a1.862 1.862 0 01-1.86-1.859v-.151H.38v.151a4.52 4.52 0 004.516 4.516h23.83c2.65 0 4.807-2.08 4.807-4.634V5.08c0-2.556-2.156-4.634-4.806-4.634V.444z" fill="#282753"/><path d="M3.831 28.218H2.553v3.038H.493v-8.462H3.83c2.073 0 3.11 1.17 3.11 2.724 0 1.399-.952 2.7-3.11 2.7zm-.156-1.639c.82 0 1.17-.41 1.17-1.06 0-.652-.348-1.06-1.17-1.06h-1.12v2.12h1.12zm11.948.446c0 2.507-1.735 4.231-4.436 4.231H8.016v-8.462h3.17c2.7 0 4.437 1.712 4.437 4.231zm-4.567 2.447c1.554 0 2.471-.893 2.471-2.447 0-1.556-.917-2.471-2.471-2.471h-.975v4.918h.975zm5.725-6.678h5.508v1.652h-3.447v1.784h2.58v1.602h-2.58v3.424h-2.06v-8.462z" fill="#282753"/></svg>