<svg width="30" height="30" fill="none" xmlns="http://www.w3.org/2000/svg"><path d="M1.481 13.657h1.39c.371 0 .718.141.96.378l.047.057.003.003c.115.124.205.256.263.388a1.326 1.326 0 01-.293 1.477c-.262.257-.61.396-.98.396H1.48a1.38 1.38 0 01-1.276-.825h.003A1.325 1.325 0 01.5 14.055a1.39 1.39 0 01.98-.398zM5.32 3.972c.36 0 .698.14.955.397l.968.968a1.352 1.352 0 010 1.911c-.508.507-1.402.507-1.91 0l-.969-.969a1.352 1.352 0 01.956-2.307zm21.815 9.68h1.388c.717 0 1.304.537 1.375 1.215l.001.038v.1c0 .102-.014.208-.047.322l-.038.117v.001a1.3 1.3 0 01-.315.51v0a1.39 1.39 0 01-.98.397h-1.39c-.764 0-1.38-.61-1.381-1.352 0-.135.031-.278.087-.441.063-.18.162-.343.287-.472v-.001l.03-.031.006-.01a1.39 1.39 0 01.977-.393zM15.005.1c.355 0 .693.14.95.401.257.262.397.61.397.98v1.49c-.051.717-.638 1.28-1.347 1.28-.36 0-.698-.139-.955-.4a1.388 1.388 0 01-.398-.98V1.48c0-.764.611-1.381 1.353-1.381zm10.22 3.422h.002c.37.01.702.158.934.413a1.343 1.343 0 01-.045 1.86l-6.59 6.59.032.064.15.31a5.18 5.18 0 01.418 3.249c-.408 2.117-2.181 3.828-4.303 4.155-1.682.257-3.325-.276-4.517-1.468h0a5.218 5.218 0 01-1.467-4.517l.03-.19-.007.001c.395-2.035 2.065-3.712 4.122-4.108a5.177 5.177 0 013.248.418l.31.15.064.03.05-.05 6.467-6.466a1.47 1.47 0 011.102-.44zM15 12.48a2.52 2.52 0 10.002 5.041 2.52 2.52 0 00-.002-5.04zM5.415 23.236c.36 0 .698.14.955.398 4.758 4.758 12.499 4.758 17.257 0 .508-.508 1.403-.508 1.911 0 .257.257.397.594.397.955 0 .36-.14.698-.397.955A14.816 14.816 0 0115 29.9a14.796 14.796 0 01-10.54-4.356 1.339 1.339 0 01-.397-.955c0-.36.14-.698.397-.955s.594-.398.955-.398z" fill="#fff" stroke="#282753" stroke-width=".2"/></svg>