<svg width="31" height="29" fill="none" xmlns="http://www.w3.org/2000/svg"><path d="M5.25 22a3.25 3.25 0 006.5 0v-9.25h-6.5V22zM24.5 8.75a2.75 2.75 0 100 5.5 2.75 2.75 0 000-5.5zm-19.25 1.5h6.5v-6.5h-6.5v6.5zm18.005 6.374l-.166-.06-.335-.12a5.252 5.252 0 01-3.088-2.92l-.105-.273-.12-.335-.06-.166H14.25V22a5.752 5.752 0 01-6.043 5.75 5.845 5.845 0 01-5.455-5.654l-.002-.282V3.75H1.5A1.25 1.25 0 01.25 2.5l.006-.124A1.25 1.25 0 011.5 1.25h14a1.25 1.25 0 010 2.5h-1.25v6.505h5.126l.06-.166.12-.335a5.251 5.251 0 012.92-3.088l.273-.105.335-.12.166-.06V1.5a1.25 1.25 0 012.5 0v4.884l.169.057.332.114v0a5.25 5.25 0 010 9.884l-.335.12-.166.06v9.631h3.75a1.25 1.25 0 010 2.5h-10a1.25 1.25 0 010-2.5h3.755v-9.626z" fill="#fff" stroke="#282753" stroke-width=".5"/></svg>