<svg width="28" height="28" fill="none" xmlns="http://www.w3.org/2000/svg"><path d="M28 1.355A1.36 1.36 0 0026.645 0h-5.42a4.07 4.07 0 00-4.064 4.065v5.42c0 .744.61 1.354 1.355 1.354a1.36 1.36 0 001.355-1.355V4.81a11.269 11.269 0 015.42 9.643c0 4.99-2.832 9.18-7.213 10.68a1.364 1.364 0 00-.845 1.72 1.362 1.362 0 001.72.845C24.451 25.813 28 20.616 28 14.452c0-4.806-2.45-9.192-6.387-11.742h5.032A1.36 1.36 0 0028 1.355z" fill="#fff"/><path d="M27.653 14.452c0-4.687-2.388-8.963-6.228-11.451l-.986-.638h6.206v.346h-5.031A13.978 13.978 0 0128 14.452l-.01.575c-.213 5.91-3.711 10.845-9.037 12.67-.139.05-.289.072-.437.073v-.348a.968.968 0 00.321-.052l.004-.001c5.345-1.833 8.812-6.89 8.812-12.917zm-8.13-4.968V4.192l.528.32a11.616 11.616 0 015.586 9.94c0 5.124-2.912 9.455-7.446 11.007v.001a1.017 1.017 0 00-.63 1.278l.064.147c.175.327.516.537.891.537v.348l-.107-.005a1.362 1.362 0 01-1.136-.813l-.04-.1a1.365 1.365 0 01.845-1.72c4.244-1.452 7.034-5.43 7.204-10.214l.009-.466c0-3.984-2.082-7.616-5.42-9.643v4.675l-.007.138a1.36 1.36 0 01-1.348 1.217v-.348c.553 0 1.008-.454 1.008-1.007zm8.13-8.129c0-.553-.455-1.008-1.008-1.008h-5.42a3.723 3.723 0 00-3.716 3.717v5.42c0 .553.454 1.008 1.007 1.008v.347l-.138-.007a1.361 1.361 0 01-1.217-1.348v-5.42A4.07 4.07 0 0121.225 0h5.42C27.39 0 28 .61 28 1.355l-.007.137a1.362 1.362 0 01-1.21 1.21l-.138.007v-.346c.553 0 1.008-.455 1.008-1.008z" fill="#282753"/><path d="M8.653 23.837a2.25 2.25 0 01-.623.623c-.57.38-1.774.38-3.965.38h-2.71A1.36 1.36 0 000 26.193c0 .745.61 1.355 1.355 1.355h2.71c2.718 0 4.218 0 5.468-.836a4.936 4.936 0 001.373-1.373c.84-1.25.84-2.75.84-5.468V8.129c0-2.718 0-4.218-.837-5.468a4.936 4.936 0 00-1.372-1.373C8.28.448 6.787.448 4.068.448h-2.71A1.36 1.36 0 00.004 1.803c0 .745.61 1.355 1.354 1.355h2.71c2.191 0 3.396 0 3.966.38.243.162.457.373.623.622.379.57.379 1.775.379 3.966v.451H1.358A1.36 1.36 0 00.003 9.932c0 .745.61 1.355 1.355 1.355h7.678v5.42H1.358a1.36 1.36 0 00-1.355 1.355c0 .744.61 1.354 1.355 1.354h7.678v.452c0 2.191 0 3.396-.38 3.966l-.003.003z" fill="#fff"/><path d="M4.064 27.202v.347H1.355v-.347h2.71zM0 26.194a1.36 1.36 0 011.217-1.348l.138-.007h2.71c2.053 0 3.241 0 3.851-.312l.114-.067a2.25 2.25 0 00.492-.446l.131-.177.004-.003c.284-.428.356-1.212.373-2.502l.006-1.464v-.451H1.358v-.348h8.025v.799c0 1.09 0 1.955-.048 2.617-.048.649-.145 1.174-.39 1.541l-.021.034-.013.011a2.597 2.597 0 01-.48.524l-.208.154c-.367.244-.893.341-1.543.389-.662.048-1.526.048-2.616.048H1.355c-.553 0-1.007.455-1.008 1.008 0 .553.455 1.008 1.008 1.008v.347l-.138-.007A1.361 1.361 0 010 26.194zm.003-8.132c0-.698.537-1.279 1.217-1.349l.138-.006h7.678v-5.42H1.358v-.347h8.025v6.114H1.358c-.552 0-1.007.455-1.007 1.008 0 .552.455 1.007 1.007 1.007v.348l-.138-.008A1.362 1.362 0 01.01 18.2l-.007-.137zm0-8.13A1.36 1.36 0 011.22 8.585l.138-.007h7.678v-.452c0-2.054 0-3.242-.312-3.851l-.067-.115a2.251 2.251 0 00-.623-.623c-.428-.284-1.212-.355-2.502-.373l-1.464-.006v-.347c1.09 0 1.955 0 2.617.048.649.048 1.174.145 1.541.39a2.6 2.6 0 01.72.719c.244.367.341.892.389 1.541.048.662.048 1.527.048 2.617v.798H1.358c-.552 0-1.007.455-1.007 1.008 0 .553.455 1.008 1.007 1.008v.347l-.138-.007A1.361 1.361 0 01.003 9.932zm4.065-7.121v.347h-2.71v-.347h2.71zM.003 1.803C.003 1.105.54.525 1.22.455l.138-.007h2.71c2.718 0 4.213 0 5.47.84a4.936 4.936 0 011.371 1.373c.836 1.25.837 2.75.837 5.469v11.742l-.002.963c-.011 2.126-.103 3.411-.838 4.505a4.935 4.935 0 01-1.373 1.373c-1.25.836-2.75.836-5.469.836v-.347c1.367 0 2.399 0 3.244-.102.836-.1 1.467-.297 2.033-.676.508-.34.936-.768 1.276-1.277.38-.567.578-1.197.679-2.033.102-.845.102-1.876.102-3.242V8.13c0-1.367 0-2.399-.101-3.244-.1-.836-.297-1.467-.676-2.033a4.586 4.586 0 00-1.277-1.276c-.57-.381-1.2-.578-2.035-.679C6.464.796 5.435.796 4.068.796h-2.71C.806.796.351 1.25.351 1.803c0 .553.455 1.008 1.007 1.008v.347l-.138-.007A1.362 1.362 0 01.01 1.94l-.007-.138z" fill="#282753"/></svg>