<svg width="29" height="29" fill="none" xmlns="http://www.w3.org/2000/svg"><path d="M26.982.907a.997.997 0 011.113 1.107l-.775 6.752a1 1 0 01-1.005.885l-.102-.006a1 1 0 01-.88-1.108l.442-3.86-5.31 5.415-.066.065-.07-.06c-.47-.397-.962-.747-1.473-1.044l-.11-.066.089-.091 5.56-5.667-3.8.453h-.001a1 1 0 01-1.11-.874v-.001a1 1 0 01.874-1.112l6.624-.788zM1.9.9a1 1 0 011 1v22.5c0 .219.042.427.117.618l5.782-5.893.063-.064.07.055c.484.386.992.72 1.517 1.001l.117.063-.092.095-5.716 5.826H27.1a1 1 0 110 2H4.6a3.7 3.7 0 01-3.7-3.7V1.9a1 1 0 011-1z" fill="#fff" stroke="#fff" stroke-width=".2"/><path d="M14.499 11.701a2.8 2.8 0 11-.001 5.6 2.8 2.8 0 01.001-5.6zm0 2a.8.8 0 100 1.599.8.8 0 000-1.599z" fill="#fff" stroke="#fff" stroke-width=".2"/><path d="M14.499 9c2.612 0 5.114 1.424 6.956 4.05l.613.876a1 1 0 010 1.147l-.613.876C19.613 18.576 17.111 20 14.5 20s-5.113-1.425-6.955-4.05l-.613-.877a1 1 0 010-1.147l.613-.875C9.386 10.424 11.887 9 14.499 9zm0 2c-1.83 0-3.77.992-5.317 3.2l-.211.299.21.3C10.73 17.008 12.669 18 14.5 18c1.83 0 3.77-.992 5.318-3.2l.21-.301-.21-.3C18.27 11.992 16.33 11 14.5 11z" fill="#fff" stroke="#fff" stroke-width=".2"/></svg>