<svg width="40" height="40" fill="none" xmlns="http://www.w3.org/2000/svg"><path d="M32.462.444H27.55c-4.84 0-7.094 2.255-7.094 7.095v1.31h-3.402c-5.674 0-8.204 2.53-8.204 8.204v3.402H7.54c-4.84 0-7.095 2.254-7.095 7.094v4.912c0 4.84 2.255 7.094 7.095 7.094h4.912c4.84 0 7.094-2.254 7.094-7.094v-1.31h3.402c5.674 0 8.204-2.53 8.204-8.204v-3.402h1.31c4.84 0 7.094-2.254 7.094-7.094V7.539c0-4.84-2.254-7.095-7.094-7.095zM16.817 29.787v2.674c0 3.346-1.02 4.366-4.365 4.366H7.54c-3.346 0-4.366-1.02-4.366-4.366V27.55c0-3.346 1.02-4.366 4.366-4.366h4.912c3.346 0 4.365 1.02 4.365 4.366v2.238zm11.606-6.84c0 4.145-1.33 5.475-5.475 5.475h-3.402v-.873c0-4.84-2.254-7.094-7.094-7.094h-.873v-3.402c0-4.145 1.33-5.475 5.475-5.475h3.402v.873c0 4.84 2.254 7.094 7.094 7.094h.873v3.402zm8.405-10.496c0 3.346-1.02 4.365-4.366 4.365H27.55c-3.346 0-4.366-1.02-4.366-4.365V7.539c0-3.346 1.02-4.366 4.366-4.366h4.912c3.346 0 4.366 1.02 4.366 4.366v4.912z" fill="#282753"/></svg>