<svg width="28" height="29" fill="none" xmlns="http://www.w3.org/2000/svg"><path d="M14 .2c1.68 0 3.29.669 4.479 1.86a6.359 6.359 0 011.854 4.49v.919l.229-.033.527-.075h0c.479-.069.96-.114 1.441-.132l.483-.011h.787a3.995 3.995 0 013.695 2.475c.201.487.305 1.009.305 1.536v11.697a4.022 4.022 0 01-1.172 2.836 4 4 0 01-2.828 1.174h-2.655c-1.851 0-3.673.447-5.312 1.3l-.324.175a3.118 3.118 0 01-3.014 0 11.508 11.508 0 00-5.64-1.475H4.2a3.995 3.995 0 01-2.828-1.174A4.016 4.016 0 01.2 22.926V11.229c0-1.064.422-2.084 1.172-2.836A3.995 3.995 0 014.2 7.218h.787c.642.003 1.284.051 1.92.143h0l.531.075.229.032V6.55c0-1.684.667-3.3 1.854-4.49A6.325 6.325 0 0114 .2zm9.01 9.425a11.557 11.557 0 00-6.73 2.172l-.386.288a3.04 3.04 0 01-.359.237l-.002.002-.233.136-.1.058V25.83l.274-.11.609-.242h.001a13.862 13.862 0 014.736-.947l.325-.003H23.8a1.599 1.599 0 001.6-1.603V11.229a1.599 1.599 0 00-1.6-1.604h-.79zM14 2.607a3.928 3.928 0 00-2.781 1.156 3.947 3.947 0 00-1.153 2.787v1.629l.12.051.28.123h.002a13.9 13.9 0 013.119 1.845h0l.29.225.124.096.123-.097.283-.225.001.001a13.9 13.9 0 013.12-1.845l.284-.122.122-.051V6.55a3.947 3.947 0 00-1.153-2.787A3.928 3.928 0 0014 2.607zm-1.2 9.91l-.1-.058-.23-.13v-.002l-.184-.112a3.06 3.06 0 01-.177-.125 11.554 11.554 0 00-7.12-2.465H4.2a1.6 1.6 0 00-1.6 1.604V22.92a1.606 1.606 0 001.6 1.603h2.632a13.865 13.865 0 014.757.836l.304.115.634.248.273.106V12.517z" fill="#fff" stroke="#282753" stroke-width=".4"/></svg>