<svg width="41" height="31" fill="none" xmlns="http://www.w3.org/2000/svg"><path fill-rule="evenodd" clip-rule="evenodd" d="M23.256 29.37c-.823.63-1.236.946-1.675 1.107a3.11 3.11 0 01-2.14 0c-.439-.161-.851-.478-1.674-1.107a11.983 11.983 0 00-14.556 0c-1.121.857-2.744.062-2.744-1.345V5.158c0-.665.31-1.29.84-1.697a15.125 15.125 0 0118.364 0l.84.643.84-.643a15.125 15.125 0 0118.364 0c.53.407.84 1.032.84 1.697v22.867c0 1.407-1.622 2.203-2.744 1.346a11.984 11.984 0 00-14.555 0zM18.969 6.796l-1.177-.902A12.03 12.03 0 003.55 5.625v19.903a15.092 15.092 0 0115.418.92V6.795zm3.084 0l1.178-.902a12.03 12.03 0 0114.24-.267V25.53a15.092 15.092 0 00-15.418.92V6.795z" fill="#282753"/></svg>