<svg width="78" height="124" fill="none" xmlns="http://www.w3.org/2000/svg"><path d="M58.374 21.832c-11.54-13.45-24.4-18.941-29.11-20.605C26.345.194 24.262 0 22.35 0 10.006 0 0 11.207 0 25.03c0 11.422 6.93 20.71 16.176 24.055.586.213 5.648 2.401 9.966 7.434 2.88 3.353 4.835 7.258 5.98 11.933 1.68 6.851 1.594 15.297-.317 25.085a28.26 28.26 0 00-.535 5.433c0 13.823 10.008 25.03 22.352 25.03 10.658 0 19.657-8.383 21.805-19.535a171.27 171.27 0 001.036-5.923c2.4-15.634 1.99-30.187-1.232-43.338-3.124-12.75-8.794-23.979-16.854-33.37l-.003-.002z" fill="#C2D5A6"/></svg>