<svg width="67" height="125" fill="none" xmlns="http://www.w3.org/2000/svg"><path d="M46.623 0H19.377C8.95 0 .5 8.283.5 18.5S8.951 37 19.377 37h27.246C57.048 37 65.5 28.717 65.5 18.5S57.048 0 46.623 0z" fill="#CAB1D1"/><path d="M6.74 88.326c-.255 12.739 4.058 22.346 5.805 25.697 1.082 2.078 2.118 3.299 3.154 4.332 6.69 6.677 17.538 6.675 24.228-.001 5.529-5.517 6.268-13.75 2.876-20.367-.215-.42-1.9-4.214-1.804-8.981.063-3.176.892-6.12 2.534-8.998 2.406-4.217 6.54-8.25 12.314-11.944a17.349 17.349 0 002.92-2.335c6.69-6.676 6.69-17.502 0-24.178-5.777-5.765-14.713-6.583-21.275-2.358-1.05.675-2.419 1.588-3.427 2.3-8.868 6.253-15.69 13.504-20.309 21.598-4.478 7.848-6.84 16.338-7.016 25.233v.002z" fill="#CAB1D1"/></svg>