<svg xmlns="http://www.w3.org/2000/svg" viewBox="0 0 144.3 40"><path d="M35 36v2.5h-.8v-6.1h1.7c.4 0 .7 0 1 .1.3.1.5.2.7.3.2.1.3.3.4.5.1.2.1.4.1.7 0 .2 0 .4-.1.6-.1.2-.2.4-.3.5-.1.1-.3.3-.5.4-.2.1-.4.2-.6.2.1.1.2.1.3.3l1.7 2.4h-.7c-.1 0-.3-.1-.3-.2L36.1 36c0-.1-.1-.1-.2-.1h-.3l-.6.1zm0-.6h.8c.2 0 .4 0 .6-.1.2-.1.3-.1.4-.2.1-.1.2-.2.3-.4.1-.1.1-.3.1-.5 0-.4-.1-.6-.4-.8-.2-.2-.6-.3-1-.3H35v2.3zm6.1-1.2c.3 0 .5 0 .7.1.2.1.4.2.6.4.2.2.3.4.4.6.1.2.1.5.1.8v.2l-.1.1H40c0 .3 0 .5.1.7.1.2.2.4.3.5.1.1.3.2.4.3 0 .1.2.1.4.1s.3 0 .5-.1c.1 0 .3-.1.3-.1.1-.1.2-.1.2-.1.1 0 .1-.1.2-.1s.1 0 .1.1l.2.3-.3.3c-.1.1-.3.2-.4.2-.1.1-.3.1-.5.1H41c-.3 0-.6-.1-.8-.2-.2-.1-.5-.2-.6-.4-.2-.2-.3-.4-.4-.7-.1-.3-.2-.6-.2-1 0-.3 0-.6.1-.8.1-.3.2-.5.4-.7.2-.2.4-.3.6-.5.4-.1.7-.1 1-.1zm0 .5c-.4 0-.6.1-.8.3-.2.2-.3.5-.4.9h2.3c0-.2 0-.3-.1-.5 0-.1-.1-.3-.2-.4-.1-.1-.2-.2-.3-.2-.2 0-.4-.1-.5-.1zm3.5-2.4v6.3h-.7v-6.3h.7zm2.3.6v.2c0 .1-.1.1-.1.2 0 0-.1.1-.2.1h-.4c-.1 0-.1-.1-.2-.1 0 0-.1-.1-.1-.2v-.4c0-.1.1-.1.1-.2 0 0 .1-.1.2-.1h.4c.1 0 .1.1.2.1 0 0 .1.1.1.2v.2zm-.2 1.3v4.3H46v-4.3h.7zm4.4 4.3h-.5l-.1-.1-.1-.4-.3.3c-.1.1-.2.1-.3.2-.1.1-.2.1-.4.1H49c-.1 0-.3 0-.5-.1-.1 0-.3-.1-.4-.2-.1-.1-.2-.2-.3-.4-.1-.1-.1-.3-.1-.5s0-.3.1-.5.2-.3.4-.4c.2-.1.5-.2.8-.3.3-.1.7-.1 1.2-.1v-.3c0-.3-.1-.6-.2-.8-.1-.2-.3-.3-.6-.3-.2 0-.3 0-.5.1-.1 0-.2.1-.3.2-.1.1-.2.1-.2.2-.1 0-.1.1-.2.1h-.1l-.1-.1v-.4c.2-.2.5-.4.8-.5.3-.1.6-.2.9-.2.2 0 .4 0 .6.1.2.1.3.2.5.3.1.1.2.3.3.5.1.2.1.4.1.7l-.1 2.8zm-1.9-.4h.4c.1 0 .2-.1.3-.1.1 0 .2-.1.3-.2.1-.1.2-.2.3-.2v-.9c-.3 0-.6 0-.9.1s-.4.1-.6.2c-.2.1-.3.2-.3.3-.1.1-.1.2-.1.3 0 .1 0 .2.1.3 0 .1.1.2.1.2.1.1.1.1.2.1 0-.1.1-.1.2-.1zm3.1.4v-6.3h.7v2.6c.2-.2.4-.4.6-.5.2-.1.5-.2.8-.2.2 0 .5 0 .7.1.2.1.4.2.5.4.1.2.2.4.3.7.1.3.1.6.1.9 0 .3 0 .6-.1.9-.1.3-.2.5-.4.7-.2.2-.3.4-.6.5s-.5.2-.8.2c-.3 0-.5-.1-.7-.2-.2-.1-.4-.3-.5-.5v.4c0 .1-.1.2-.2.2h-.4v.1zm1.8-3.7c-.2 0-.5.1-.6.2-.2.1-.3.3-.5.5v2.1c.1.2.3.3.4.4h.6c.4 0 .7-.1.9-.4.2-.3.3-.7.3-1.2 0-.3 0-.5-.1-.7 0-.2-.1-.4-.2-.5l-.3-.3c-.1-.1-.3-.1-.5-.1zm3.6-2.5v6.3H57v-6.3h.7zm3 1.9c.3 0 .5 0 .7.1.2.1.4.2.6.4.2.2.3.4.4.6.1.2.1.5.1.8v.2l-.1.1h-2.8c0 .3 0 .5.1.7.1.2.2.4.3.5.1.1.3.2.4.3.2.1.3.1.5.1s.3 0 .5-.1c.1 0 .3-.1.3-.1.1-.1.2-.1.2-.1.1 0 .1-.1.2-.1s.1 0 .1.1l.2.3-.3.3c-.1.1-.3.2-.4.2-.1.1-.3.1-.5.1h-.5c-.3 0-.6-.1-.8-.2-.2-.1-.5-.2-.6-.4-.2-.2-.3-.4-.4-.7-.1-.3-.2-.6-.2-1 0-.3 0-.6.1-.8.1-.3.2-.5.4-.7.2-.2.4-.3.6-.5.3-.1.6-.1.9-.1zm0 .5c-.4 0-.6.1-.8.3-.2.2-.3.5-.4.9h2.3c0-.2 0-.3-.1-.5 0-.1-.1-.3-.2-.4-.1-.1-.2-.2-.3-.2-.2 0-.3-.1-.5-.1zm8.1-2.2v.7h-2.9v2h2.3v.6h-2.3v2.1h2.9v.7h-3.7v-6.1h3.7zm1 6v-4.3h.4c.1 0 .2.1.2.2l.1.5c.2-.2.4-.4.6-.5.2-.1.5-.2.8-.2.2 0 .4 0 .6.1.2.1.3.2.4.3.1.1.2.3.3.5.1.2.1.4.1.7v2.7h-.7v-2.7c0-.3-.1-.6-.2-.8-.1-.2-.4-.3-.7-.3-.2 0-.4.1-.6.2-.2.1-.4.3-.5.4v3.2h-.8zm7.6-3.9v.2s0 .1-.1.1L75 38h2.3v.6h-3.2v-.4s0-.1.1-.1l2.3-3.1h-2.3v-.6h3.1l.1.2zm2.1 5.2c0 .1-.1.1-.1.1s-.1.1-.2.1h-.5l.8-1.7-1.7-4.1h.8l.1.1 1.1 2.7c0 .1 0 .1.1.2v.2c0-.1 0-.1.1-.2 0-.1 0-.1.1-.2l1.1-2.7s0-.1.1-.1h.7l-2.5 5.6zm3-1.3v-4.3h.5c.1 0 .2.1.2.2l.1.4c.2-.2.3-.4.5-.5.2-.1.4-.2.7-.2.3 0 .5.1.7.2.2.2.3.4.4.7.1-.2.1-.3.2-.4l.3-.3c.1-.1.2-.1.4-.2.1 0 .3-.1.4-.1.2 0 .4 0 .6.1.2.1.3.2.4.3.1.1.2.3.3.5.1.2.1.4.1.7v2.7h-.7v-2.7c0-.3-.1-.6-.2-.8-.1-.2-.4-.3-.6-.3-.1 0-.2 0-.3.1s-.4.3-.5.4c-.1.1-.1.2-.2.3 0 .1-.1.3-.1.4v2.7H85v-2.7c0-.3-.1-.6-.2-.8-.1-.2-.3-.3-.6-.3-.2 0-.4.1-.5.2-.2.1-.3.2-.4.4v3.2l-.8.1zm8.5-4.3c.3 0 .5 0 .7.1.2.1.4.2.6.4.2.2.3.4.4.6.1.2.1.5.1.8v.2l-.1.1h-2.8c0 .3 0 .5.1.7.1.2.2.4.3.5.1.1.3.2.4.3.2.1.3.1.5.1s.3 0 .5-.1c.1 0 .3-.1.3-.1.1-.1.2-.1.2-.1.1 0 .1-.1.2-.1s.1 0 .1.1l.2.3-.3.3c-.1.1-.3.2-.4.2-.1.1-.3.1-.5.1H91c-.3 0-.6-.1-.8-.2-.2-.1-.5-.2-.6-.4-.2-.2-.3-.4-.4-.7-.1-.3-.2-.6-.2-1 0-.3 0-.6.1-.8.1-.3.2-.5.4-.7s.4-.3.6-.5c.4-.1.6-.1.9-.1zm.1.5c-.4 0-.6.1-.8.3-.2.2-.3.5-.4.9h2.3c0-.2 0-.3-.1-.5 0-.1-.1-.3-.2-.4-.1-.1-.2-.2-.3-.2-.2 0-.4-.1-.5-.1zm5.3 3.8h-.8v-6.1h.8v6.1zm1.5 0v-4.3h.4c.1 0 .2.1.2.2l.1.5c.2-.2.4-.4.6-.5.2-.1.5-.2.8-.2.2 0 .4 0 .6.1.2.1.3.2.4.3.1.1.2.3.3.5.1.2.1.4.1.7v2.7h-.7v-2.7c0-.3-.1-.6-.2-.8-.1-.2-.4-.3-.7-.3-.2 0-.4.1-.6.2-.2.1-.4.3-.5.4v3.2h-.8zm4.6 0v-4.3h.4c.1 0 .2.1.2.2l.1.5c.2-.2.4-.4.6-.5.2-.1.5-.2.8-.2.2 0 .4 0 .6.1.2.1.3.2.4.3.1.1.2.3.3.5.1.2.1.4.1.7v2.7h-.7v-2.7c0-.3-.1-.6-.2-.8-.1-.2-.4-.3-.7-.3-.2 0-.4.1-.6.2-.2.1-.4.3-.5.4v3.2h-.8zm6.3-4.3c.3 0 .6.1.8.2.2.1.5.3.6.4.2.2.3.4.4.7.1.3.1.6.1.9 0 .3 0 .6-.1.9-.1.3-.2.5-.4.7-.2.2-.4.3-.6.4-.2.1-.5.2-.8.2-.3 0-.6-.1-.8-.2-.2-.1-.5-.3-.6-.4-.2-.2-.3-.4-.4-.7-.1-.3-.1-.6-.1-.9 0-.3 0-.6.1-.9.1-.3.2-.5.4-.7.2-.2.4-.3.6-.4.3-.2.5-.2.8-.2zm0 3.8c.4 0 .7-.1.9-.4.2-.3.3-.7.3-1.2s-.1-.9-.3-1.2c-.2-.3-.5-.4-.9-.4-.2 0-.4 0-.5.1-.2.1-.3.2-.4.3-.1.1-.2.3-.2.5s-.1.4-.1.7c0 .3 0 .5.1.7.1.2.1.4.2.5.1.1.2.2.4.3.1.1.3.1.5.1zm2.3-3.8h.7l.1.1 1.1 2.8c0 .1.1.2.1.3 0 .1 0 .2.1.3 0-.1 0-.2.1-.3 0-.1.1-.2.1-.3l1.1-2.8s0-.1.1-.1h.7l-1.7 4.3h-.7l-1.8-4.3zm7.9 4.3h-.5l-.1-.1-.1-.4-.3.3c-.1.1-.2.1-.3.2-.1.1-.2.1-.4.1h-.4c-.2 0-.3 0-.5-.1-.1 0-.3-.1-.4-.2-.1-.1-.2-.2-.3-.4-.1-.1-.1-.3-.1-.5s0-.3.1-.5.2-.3.4-.4c.2-.1.5-.2.8-.3.3-.1.7-.1 1.2-.1v-.3c0-.3-.1-.6-.2-.8-.1-.2-.3-.3-.6-.3-.2 0-.3 0-.5.1-.1 0-.2.1-.3.2-.1.1-.2.1-.2.2-.1 0-.1.1-.2.1h-.1l-.1-.1-.1-.2c.2-.2.5-.4.8-.5.3-.1.6-.2.9-.2.2 0 .4 0 .6.1.2.1.3.2.5.3.1.1.2.3.3.5.1.2.1.4.1.7v2.6zm-1.9-.4h.4c.1 0 .2-.1.3-.1.1 0 .2-.1.3-.2.1-.1.2-.2.3-.2v-.9c-.3 0-.6 0-.9.1s-.4.1-.6.2c-.2.1-.3.2-.3.3-.1.1-.1.2-.1.3 0 .1 0 .2.1.3 0 .1.1.2.1.2.1.1.1.1.2.1 0-.1.1-.1.2-.1zm4.3.5c-.3 0-.6-.1-.8-.3s-.3-.5-.3-.8v-2.6h-.6v-.4l.7-.1.2-1.3s0-.1.1-.1h.5v1.5h1.2v.5h-1.2v2.6c0 .2 0 .3.1.4.1.1.2.1.3.1h.2c.1 0 .1 0 .1-.1 0 0 .1 0 .1-.1h.1s.1 0 .1.1l.2.4c-.1.1-.3.2-.5.3-.1-.1-.3-.1-.5-.1zm2.8-5.7v.2c0 .1-.1.1-.1.2 0 0-.1.1-.2.1h-.4c-.1 0-.1-.1-.2-.1 0-.1-.1-.1-.1-.2v-.4c0-.1.1-.1.1-.2 0 0 .1-.1.2-.1h.4c.1 0 .1.1.2.1 0 0 .1.1.1.2v.2zm-.1 1.3v4.3h-.7v-4.3h.7zm3 0c.3 0 .6.1.8.2.2.1.5.3.6.4.2.2.3.4.4.7.1.3.1.6.1.9 0 .3 0 .6-.1.9-.1.3-.2.5-.4.7-.2.2-.4.3-.6.4-.2.1-.5.2-.8.2s-.6-.1-.8-.2c-.2-.1-.5-.3-.6-.4-.2-.2-.3-.4-.4-.7-.1-.3-.1-.6-.1-.9 0-.3 0-.6.1-.9.1-.3.2-.5.4-.7.2-.2.4-.3.6-.4.2-.2.5-.2.8-.2zm0 3.8c.4 0 .7-.1.9-.4.2-.3.3-.7.3-1.2s-.1-.9-.3-1.2c-.2-.3-.5-.4-.9-.4-.2 0-.4 0-.5.1-.2.1-.3.2-.4.3-.1.1-.2.3-.2.5-.1.2-.1.4-.1.7 0 .3 0 .5.1.7.1.2.1.4.2.5.1.1.2.2.4.3.1.1.3.1.5.1zm2.9.5v-4.3h.4c.1 0 .2.1.2.2l.1.5c.2-.2.4-.4.6-.5.2-.1.5-.2.8-.2.2 0 .4 0 .6.1.2.1.3.2.4.3.1.1.2.3.3.5.1.2.1.4.1.7v2.7h-.7v-2.7c0-.3-.1-.6-.2-.8-.1-.2-.4-.3-.7-.3-.2 0-.4.1-.6.2-.2.1-.4.3-.5.4v3.2h-.8zM46.6 22.3h-6.1l6.9-10.8c.3-.5.5-1 .6-1.4.1-.5 0-.9-.1-1.3s-.4-.7-.7-.9c-.3-.2-.8-.3-1.3-.3H35c-.7 0-1.2.2-1.6.6-.4.4-.6.9-.6 1.6 0 .7.2 1.2.6 1.6.4.4.9.6 1.6.6h6l-6.9 10.7c-.3.5-.5 1-.6 1.4-.1.5 0 .9.1 1.3s.4.7.7.9c.3.2.8.3 1.3.3h11c.7 0 1.2-.2 1.6-.6.4-.4.6-.9.6-1.6 0-.7-.2-1.2-.6-1.6-.4-.4-.9-.5-1.6-.5zM91.7 7.1c-.8 0-1.5.2-2.2.5-.6.3-1.1.7-1.5 1.2-.4.5-.8 1.1-1 1.8-.3.7-.5 1.4-.6 2.1-.1-1.7-.6-3-1.4-4-.8-1-2.1-1.5-3.7-1.5-.8 0-1.5.2-2.1.5-.6.3-1.1.7-1.5 1.2-.4.5-.7 1.1-1 1.8-.3.7-.5 1.4-.6 2.1V10c0-.9-.3-1.6-.8-2.1s-1.2-.8-2.1-.8c-.9 0-1.6.3-2.1.8s-.8 1.2-.8 2.1v14c0 .9.3 1.6.8 2.1s1.2.8 2.1.8c.9 0 1.5-.3 2.1-.8.5-.5.8-1.2.8-2.1V13.2c.3-.4.7-.7 1.1-1.1.5-.4 1-.6 1.7-.6s1.2.2 1.5.6c.4.4.5.9.5 1.6V24c0 .9.3 1.6.8 2.1s1.2.8 2.1.8 1.5-.3 2-.8.8-1.2.8-2.1V13.2c.3-.4.7-.7 1.1-1.1.5-.4 1-.6 1.7-.6s1.2.2 1.5.6c.4.4.5.9.5 1.6V24c0 .9.3 1.6.8 2.1s1.2.8 2.1.8 1.5-.3 2.1-.8c.5-.5.8-1.2.8-2.1V12.6c0-1.7-.5-3.1-1.4-4-1.1-1-2.4-1.5-4.1-1.5zm22.2.1c-.9 0-1.5.2-2 .6-.5.4-.8 1.1-.9 1.9l-3 15.2-2.9-15.2c-.1-.8-.4-1.4-.9-1.9-.5-.4-1.2-.6-2.1-.6-1.1 0-1.9.3-2.4 1s-.6 1.5-.4 2.4l2.9 12.7c.2 1 .7 1.9 1.4 2.6.7.7 1.8 1 3.2 1h2.1c1.4 0 2.5-.3 3.2-1 .7-.7 1.2-1.5 1.4-2.6l3-12.7c.2-1 .1-1.8-.4-2.4-.3-.7-1.1-1-2.2-1zm19.6 2.6c-.8-.9-1.7-1.6-2.8-2-1.1-.5-2.3-.7-3.7-.7-1.4 0-2.6.2-3.7.7-1.1.5-2 1.2-2.8 2-.8.9-1.4 1.9-1.8 3.1-.4 1.2-.6 2.6-.6 4.1s.2 2.8.6 4.1c.4 1.2 1 2.3 1.8 3.2.8.9 1.7 1.6 2.8 2 1.1.5 2.3.7 3.7.7 1.4 0 2.6-.2 3.7-.7 1.1-.5 2-1.2 2.8-2 .8-.9 1.4-1.9 1.8-3.2.4-1.2.6-2.6.6-4.1 0-1.5-.2-2.9-.6-4.1-.4-1.1-1-2.2-1.8-3.1zM129.4 21c-.6 1-1.4 1.4-2.4 1.4-1.1 0-1.9-.5-2.4-1.4-.6-1-.8-2.3-.8-4 0-1.7.3-3 .8-4 .6-1 1.4-1.4 2.4-1.4s1.9.5 2.4 1.4c.6 1 .8 2.3.8 4 0 1.7-.3 3-.8 4zM143.6.8c-.6-.5-1.2-.8-2.1-.8s-1.6.3-2.1.8-.8 1.2-.8 2.1V24c0 .9.3 1.6.8 2.1s1.2.8 2.1.8c.9 0 1.5-.3 2.1-.8.5-.5.8-1.2.8-2.1V2.9c-.1-.9-.3-1.6-.8-2.1zM67.5 7.5h-5.7v5.6c-.3.4-.7.8-1.1 1.1-.8.7-2.7.8-3.5 0-.4-.4-.6-.9-.6-1.6V7.5h-5.7v6.6c0 1.6.5 2.9 1.4 3.9 1.2 1.4 4.2 1.8 6 1 2.1-.9 2.9-3 3.5-5.2v2.6c0 1-.2 2.7-.7 3.6-1.3 2.6-5.5 2.2-8 1.8-1.2-.2-2.4.2-2.7 1.5-.3 1.3.5 2.5 1.8 2.9 2.3.8 6 1 9 0 4.6-1.5 6.5-6.2 6.4-10.9-.1.1-.1-7.8-.1-7.8zM10 10.8C8 8.7 5.8 7.9 5 7.6c-.5-.1-.8-.2-1.2-.2C1.7 7.4 0 9.2 0 11.3c0 1.8 1.2 3.2 2.8 3.7.1 0 1 .4 1.7 1.2.5.5.8 1.1 1 1.8.3 1.1.3 2.4-.1 3.9-.1.3-.1.6-.1.8 0 2.1 1.7 3.9 3.8 3.9 1.8 0 3.4-1.3 3.7-3 .1-.3.1-.6.2-.9.4-2.4.3-4.7-.2-6.7-.4-2-1.4-3.7-2.8-5.2zm14-3.4c-.3 0-.7 0-1.2.2-.8.3-3 1.1-5 3.2-1.4 1.5-2.4 3.2-2.9 5.2-.6 2-.6 4.3-.2 6.7 0 .3.1.6.2.9.4 1.7 1.9 3 3.7 3 2.1 0 3.8-1.7 3.8-3.9 0-.3 0-.6-.1-.8-.3-1.5-.3-2.8-.1-3.9.2-.7.5-1.3 1-1.8.7-.8 1.6-1.1 1.7-1.2 1.6-.5 2.8-2 2.8-3.7.2-2.1-1.6-3.9-3.7-3.9z" fill="#292753"/></svg>