<svg xmlns="http://www.w3.org/2000/svg" viewBox="0 0 500.5 238.3"><path d="M497.6 6.9c-3.3 4.8-6.4 9.3-9 13.4-8 13-16.1 16.7-24.5 20.8-8.6 4.1-17.6 8.3-26.2 22.3-8.3 13.3-13.5 19.4-18.6 25.3-5.2 6-10.6 12.2-19 25.8-3.9 6.3-6 12.3-7.8 17.5-3.8 10.9-6.3 18.1-21.8 20.3-12.9 1.8-20.1-3.1-27.7-8.3-7.9-5.4-16.1-11-30.5-9-15.1 2.1-19.6 22.4-23.9 42.1-4 18.3-8.2 37.2-20.5 39-13.6 1.9-20.6 2.4-27.4 2.8-6.8.4-13.9.9-27.7 2.8-13.8 2-20.7 4-27.4 6-6.5 2-13.2 4-26.8 5.9-13.2 1.9-20.1-.3-27.4-2.6-5.5-1.7-11.1-3.5-19.4-3.5-.8 0-1.6 0-2.5.1l.6-.4-7.9 1.1c-16.3 2.3-45.4 3.8-58.9-1.6-12.1-4.8-23.9-23.9-32.5-37.9-1.8-3-3.6-5.8-5.1-8.1-4.4-6.7 2-16.6 8.8-27 4.8-7.3 9.7-14.8 11-21.8 2.6-14.1-2.4-24.3-7.2-34.3-4.8-9.8-9.3-19-6.9-31.8C13.4 53.6 23 50.9 33.2 48c10.4-3 22.2-6.3 25-20.9C60.7 14 63.6 7.9 66.7 1.5c.3-.5.5-1 .8-1.5h-4.4c-3.1 6.3-6.2 12.9-8.7 26.3-2.4 12.2-12 14.9-22.3 17.8-10.4 3-22.2 6.3-25 20.9-2.6 14.1 2.4 24.3 7.2 34.3 4.8 9.8 9.3 19 6.9 31.8-1.2 6.2-5.9 13.4-10.4 20.4-7.2 11-14.7 22.4-8.8 31.4 1.5 2.3 3.2 5 5 8 8.9 14.4 21.2 34.2 34.5 39.5 13 5.1 37.4 4.3 53.3 2.7l-.3.2 7.9-1.1c13.2-1.9 20.1.3 27.4 2.6 5.5 1.7 11.1 3.5 19.4 3.5 2.9 0 6.1-.2 9.8-.7 13.8-2 20.7-4 27.4-6 6.5-2 13.3-4 26.8-5.9 13.6-1.9 20.6-2.4 27.4-2.8 6.8-.4 13.9-.9 27.7-2.8 15.1-2.1 19.5-22.4 23.9-42.1 4-18.3 8.2-37.3 20.5-39 12.9-1.8 20.1 3.1 27.7 8.3 7.9 5.4 16.1 11 30.6 9 18-2.5 21.3-12 25.1-23 1.7-5.1 3.7-10.8 7.4-16.7 8.3-13.3 13.5-19.4 18.6-25.3 5.2-6 10.6-12.2 19-25.8 8-13 16.1-16.7 24.5-20.8 8.6-4.1 17.6-8.3 26.2-22.3 2.4-3.9 5.4-8.2 8.5-12.7-.1-2.1-.2-4.2-.5-6.4-.6 1.2-1.4 2.4-2.2 3.6z" fill="#282753"/></svg>