<svg width="702" height="400" fill="none" xmlns="http://www.w3.org/2000/svg"><g clip-path="url(#clip0_273_7238)"><path d="M423.618 638.797c26.907-2.259 91.846-17.364 113.57-31.891 22.876-15.301 49.243-48.677 66.899-67.048 19.997-20.802 56.387-57.273 43.706-97.993-25.008-80.286-71.96-38.83-91.332-63.795-19.494-25.124 9.202-60.588-5.538-83.208-16.223-24.904-32.396-7.785-56.142-24.069-23.647-16.221-30.668-30.098-58.212-39.737-27.556-9.64 29.235-86.991-37.873-97.073-55.358-8.326-35.974-41.604-108.718-36.262-37.457 2.75-24.126-44.183-75.709-36.337-32.188 4.9-14.838-38.362-64.744-42.107-34.675-2.604-40.838 23.65-121.89 19.648-41.315-2.039-24.088 51.722-82.827 31.252-63.653-22.19-78.172 15.657-115.935 5.87-25.878-6.718-50.261-26.513-80.439-33.131-28.647-6.275-48.349-18.383-77.143-18.248-29.872.135-30.276 22.803-56.35 36.581-23.562 12.452-23.574 7.258-40.887 36.19-14.042 23.454 1.507 31.583-2.941 59.569-4.202 26.389-19.016 37.429-16.651 65.808 2.254 27.052-64.706 14.944-52.466 80.372 8.307 44.379 52.625 48.788 61.741 74.256 9.79 27.36-38.13 77.179-27.348 100.573 13.405 29.078 5.551 70.376 16.909 89.618 15.977 27.065 66.434 39.947 87.705 59.14 22.373 20.188 18.611 64.371 38.13 86.942 32.739 37.859 89.273 43.446 119.01 49.93 63.653 13.864 33.217-47.155 85.793-38.829 54.954 8.694 58.458-50.237 88.563-52.706 29.443-2.406 49.82 55.481 118.14 52.3 29.884-1.387 76.873 15.461 114.342-19.021 51.768-47.634 22.141-69.345 42.566-97.994 18.097-25.394 53.814-31.964 81.97-32.099 60.896-.283 39.711 68.079 94.113 63.524l-.012-.025z" stroke="#282753" stroke-width="4" stroke-miterlimit="10"/></g><defs><clipPath id="clip0_273_7238"><path fill="#fff" transform="translate(.5)" d="M0 0h701v400H0z"/></clipPath></defs></svg>