<svg width="201" height="269" fill="none" xmlns="http://www.w3.org/2000/svg"><g clip-path="url(#clip0_17_11126)"><path d="M104.629 230.207c27.378-3.85 29.226 9.283 56.604 5.433 27.378-3.858 26.787-8.034 54.173-11.892 27.378-3.858 27.681-1.722 55.059-5.58 27.378-3.858 17.052-77.21 44.431-81.068 27.378-3.858 30.904 21.152 58.282 17.294 24.717-3.481 19.233-19.718 31.03-38.756 16.675-26.91 20.97-24.249 37.645-51.158 16.675-26.91 34.097-16.119 50.772-43.028C505.346.921 531.778-28.56 521.231-47.569c-9.728-17.523-39.493-56.516-63.56-61.985-25.028-5.691-23.328-13.178-48.356-18.861-25.028-5.691-33.631 32.15-58.659 26.458-25.028-5.69-35.11 38.66-60.138 32.97-25.027-5.69-22.573-16.489-47.601-22.18-25.028-5.69-23.697-11.558-48.725-17.249-25.028-5.691-24.089-9.822-49.124-15.513-21.961-4.989-25.804 7.553-43.67 16.821-19.491 10.103-19.632 5.366-23.579 26.451C72.8-53.85 81.05-52.307 76.031-25.5 71.01 1.305 63.62-.077 58.609 26.73c-5.02 26.805-42.11 11.957-47.129 38.77-5.019 26.806 19.174 39.237 14.155 66.043-3.075 16.444-28.088 37.197-19.484 50.241 8.604 13.045 23.202 40.612 38.57 46.716 13.866 5.514 43.284 4.043 59.922 1.7l-.014.007z" stroke="#292753" stroke-width="4" stroke-miterlimit="10"/></g><defs><clipPath id="clip0_17_11126"><path fill="#fff" d="M0 0h201v269H0z"/></clipPath></defs></svg>