<svg width="416" height="572" preserveAspectRatio="none" fill="none" xmlns="http://www.w3.org/2000/svg"><path d="M416.008 116.08c0-63.72-51.65-115.37-115.37-115.37h-185.17C51.748.71.098 52.36.098 116.08v10.83c0 29.48 11.06 56.37 29.26 76.77-18.2 20.4-29.26 47.29-29.26 76.77v10.83c0 29.48 11.06 56.37 29.26 76.77-18.19 20.39-29.26 47.29-29.26 76.77v10.83c0 63.72 51.65 115.37 115.37 115.37h185.17c63.72 0 115.37-51.65 115.37-115.37v-10.83c0-29.48-11.06-56.37-29.26-76.77 18.19-20.39 29.26-47.29 29.26-76.77v-10.83c0-29.48-11.06-56.37-29.26-76.77 18.19-20.39 29.26-47.29 29.26-76.77v-10.83z" fill="#292753"/></svg>