<svg width="233" height="118" fill="none" xmlns="http://www.w3.org/2000/svg"><g clip-path="url(#clip0_0_4)"><path d="M73.963-39.902c-6.658.559-22.727 4.292-28.102 7.883-5.66 3.782-12.185 12.033-16.554 16.574-4.948 5.142-13.953 14.157-10.815 24.222 6.188 19.846 17.806 9.598 22.6 15.77 4.823 6.21-2.277 14.976 1.37 20.567 4.014 6.156 8.016 1.925 13.892 5.95 5.852 4.01 7.589 7.44 14.404 9.822 6.819 2.383-7.234 21.503 9.372 23.995 13.698 2.058 8.901 10.284 26.901 8.964 9.269-.68 5.97 10.921 18.734 8.982 7.965-1.211 3.672 9.482 16.021 10.408 8.58.644 10.105-5.846 30.16-4.856 10.224.503 5.961-12.786 20.496-7.726 15.75 5.485 19.343-3.87 28.687-1.45 6.403 1.66 12.437 6.553 19.904 8.189 7.089 1.551 11.964 4.544 19.089 4.511 7.391-.034 7.491-5.637 13.943-9.043 5.83-3.078 5.833-1.794 10.117-8.945 3.475-5.798-.373-7.807.728-14.725 1.04-6.523 4.705-9.252 4.12-16.267-.558-6.687 16.011-3.694 12.983-19.867-2.056-10.97-13.022-12.06-15.278-18.355-2.422-6.763 9.435-19.078 6.767-24.86-3.317-7.188-1.373-17.396-4.184-22.152-3.953-6.69-16.438-9.875-21.702-14.62-5.536-4.99-4.605-15.91-9.435-21.49-8.101-9.358-22.09-10.74-29.448-12.342-15.751-3.427-8.219 11.656-21.229 9.598-13.598-2.149-14.465 12.418-21.914 13.028-7.286.595-12.328-13.714-29.233-12.928-7.395.343-19.022-3.821-28.294 4.702-12.809 11.774-5.478 17.141-10.532 24.223-4.478 6.277-13.316 7.901-20.283 7.934-15.069.07-9.827-16.828-23.288-15.702l.003.006z" stroke="#282753" stroke-width="4" stroke-miterlimit="10"/></g><defs><clipPath id="clip0_0_4"><path fill="#fff" transform="rotate(-180 116.25 59)" d="M0 0h232v118H0z"/></clipPath></defs></svg>