<svg width="634" height="633" fill="none" xmlns="http://www.w3.org/2000/svg"><g clip-path="url(#clip0_1_228)"><path d="M287.429 360.143c40.685-17.275 48.973 2.243 89.657-15.032 40.682-17.286 38.04-23.49 78.733-40.78 40.681-17.286 42.033-14.113 82.715-31.4 40.681-17.286-5.619-126.298 35.062-143.585 40.681-17.286 56.475 19.88 97.157 2.594 36.728-15.603 21.539-38.41 31.878-72.695 14.614-48.458 22.347-46.126 36.962-94.584 14.614-48.459 45.982-39.003 60.597-87.461 11.147-36.972 39.764-93.44 15.61-118.432-22.272-23.038-84.373-70.943-123.8-69.431-41.003 1.567-41.476-10.699-82.476-9.121-41.003 1.567-38.63 63.567-79.633 65.134-41.003 1.567-38.219 74.235-79.222 75.801-41.003 1.567-41.682-16.124-82.685-14.557-41.003 1.567-41.377-8.047-82.38-6.48-41.003 1.567-41.263-5.202-82.277-3.632-35.976 1.382-36.721 22.342-60.474 44.048-25.918 23.668-28.095 16.409-25.465 50.607 3.343 43.475 16.72 42.448 20.063 85.923 3.343 43.476-8.643 44.4-5.289 87.872 3.342 43.476-60.078 35.892-56.732 79.379 3.342 43.475 45.845 52.664 49.188 96.139 2.056 26.669-27.981 69.069-9.297 85.655s52.635 53.12 78.891 56.19c23.694 2.777 68.514-11.667 93.237-22.169l-.02.017z" stroke="#282753" stroke-width="4" stroke-miterlimit="10"/></g><defs><clipPath id="clip0_1_228"><path fill="#fff" d="M0 0h634v633H0z"/></clipPath></defs></svg>