<svg viewBox="0 0 710 501" fill="none" xmlns="http://www.w3.org/2000/svg"><path d="M139.55 489.032c37.04-5.21 39.54 12.56 76.58 7.35 37.04-5.22 36.24-10.87 73.29-16.09 37.04-5.22 37.45-2.33 74.49-7.55 37.04-5.22 23.07-104.47 60.11-109.69 37.04-5.22 41.81 28.62 78.85 23.4 33.44-4.71 26.02-26.68 41.98-52.44 22.56-36.41 28.37-32.81 50.93-69.22s46.13-21.81 68.69-58.22c17.21-27.78 52.97-67.67 38.7-93.39-13.16-23.71-53.43-76.47-85.99-83.87-33.86-7.7-31.56-17.83-65.42-25.52-33.86-7.7-45.5 43.5-79.36 35.8-33.86-7.7-47.5 52.31-81.36 44.61-33.86-7.7-30.54-22.31-64.4-30.01-33.86-7.7-32.06-15.64-65.92-23.34-33.86-7.7-32.59-13.29-66.46-20.99-29.71-6.75-34.91 10.22-59.08 22.76-26.37 13.67-26.56 7.26-31.9 35.79-6.79 36.27 4.37 38.36-2.42 74.63-6.79 36.27-16.79 34.4-23.57 70.67-6.79 36.27-56.97 16.18-63.76 52.46-6.79 36.27 25.94 53.09 19.15 89.36-4.16 22.25-38 50.33-26.36 67.98 11.64 17.65 31.39 54.95 52.18 63.21 18.76 7.46 58.56 5.47 81.07 2.3l-.02.01z" stroke="#292753" stroke-width="6" stroke-miterlimit="10"/></svg>