<?xml version="1.0" encoding="UTF-8"?>
<svg xmlns="http://www.w3.org/2000/svg" width="41" height="31" viewBox="0 0 41 31" fill="none">
  <path fill-rule="evenodd" clip-rule="evenodd" d="M23.2556 29.3705C22.4326 29.9994 22.0202 30.3157 21.5808 30.4768C20.8908 30.7298 20.1314 30.7298 19.4415 30.4768C19.002 30.3157 18.5896 29.9994 17.7666 29.3705C13.4764 26.0864 7.50144 26.0864 3.21133 29.3705C2.08964 30.2275 0.466797 29.4319 0.466797 28.0247V5.15806C0.466797 4.49277 0.7771 3.86778 1.3071 3.46134C6.7192 -0.679823 14.2588 -0.679823 19.6709 3.46134L20.5112 4.10361L21.3516 3.46134C26.7636 -0.679823 34.3033 -0.679823 39.7154 3.46134C40.2454 3.86779 40.5557 4.49282 40.5557 5.15806V28.0247C40.5557 29.4319 38.9328 30.2275 37.8112 29.3705C33.5209 26.0864 27.5457 26.0864 23.2556 29.3705ZM18.9692 6.79548L17.7916 5.8925C13.6054 2.69078 7.82545 2.60258 3.55064 5.62601V25.5286C8.41911 23.0037 14.361 23.3104 18.9694 26.4489L18.9692 6.79548ZM22.053 6.79548L23.2306 5.8925C27.4168 2.69078 33.1967 2.60258 37.4715 5.62601V25.5286C32.6031 23.0037 26.6612 23.3104 22.0528 26.4489L22.053 6.79548Z" fill="#282753"></path>
</svg>
