<?xml version="1.0" encoding="UTF-8"?>
<svg xmlns="http://www.w3.org/2000/svg" width="35" height="13" fill="none">
  <path d="M20.598 12.833h3.843c.69 0 1.281-.591 1.281-1.281s-.591-1.281-1.281-1.281h-2.464V8.3h2.464c.69 0 1.281-.592 1.281-1.281 0-.69-.591-1.282-1.281-1.282h-2.464v-1.97h2.464c.69 0 1.281-.592 1.281-1.282 0-.69-.591-1.28-1.281-1.28h-3.942c-.69 0-1.183.492-1.183 1.182v9.362c0 .591.493 1.084 1.282 1.084zm8.376 0h3.844c.69 0 1.281-.591 1.281-1.281s-.591-1.281-1.281-1.281h-2.464V8.3h2.464c.69 0 1.281-.592 1.281-1.281 0-.69-.591-1.282-1.281-1.282h-2.464v-1.97h2.464c.69 0 1.281-.592 1.281-1.282 0-.69-.591-1.28-1.281-1.28h-3.942c-.69 0-1.183.492-1.183 1.182v9.362c0 .591.592 1.084 1.281 1.084zM2.562 8.299h1.676c.69 0 1.28-.592 1.28-1.281 0-.69-.59-1.282-1.28-1.282H2.562v-1.97h2.661c.69 0 1.281-.592 1.281-1.282 0-.69-.591-1.28-1.28-1.28H1.28c-.69 0-1.281.59-1.281 1.28v9.165c0 .69.591 1.282 1.281 1.282s1.281-.592 1.281-1.282V8.3zm8.573-.985h.492l2.365 4.829c.198.493.69.69 1.183.69.986 0 1.577-.986 1.183-1.873l-1.873-3.843c1.281-.493 2.07-1.873 1.873-3.35-.198-1.677-1.676-2.86-3.252-2.86H9.952c-.788 0-1.38.592-1.38 1.38v9.264c0 .69.592 1.28 1.281 1.28.69 0 1.282-.59 1.282-1.28V7.314zm0-3.745h2.07c.295 0 .59.296.59.591 0 .296-.295.592-.59.592h-2.07V3.569z" fill="#fff"></path>
</svg>
