<?xml version="1.0" encoding="UTF-8"?>
<svg xmlns="http://www.w3.org/2000/svg" width="32" height="32" fill="none">
  <path d="M19.718 2.796c.347.098.69.209 1.029.332a1.143 1.143 0 10.79-2.145c-.391-.144-.79-.273-1.195-.387a1.143 1.143 0 00-.62 2.2h-.004zm7.689 5.587a1.144 1.144 0 001.899-1.275c-.234-.348-.48-.686-.74-1.014a1.143 1.143 0 00-1.794 1.416c.223.283.435.574.636.873zM24.49 5.229a1.145 1.145 0 101.415-1.8c-.329-.26-.668-.506-1.017-.74a1.145 1.145 0 10-1.27 1.905c.299.2.59.412.872.635zm4.38 6.023c.123.334.233.674.331 1.021a1.143 1.143 0 001.807.595 1.141 1.141 0 00.4-1.208c-.114-.406-.244-.8-.388-1.198a1.143 1.143 0 00-2.145.79h-.006z" fill="#fff"></path>
  <path d="M31.987 15.382a1.144 1.144 0 10-2.285.093 13.714 13.714 0 11-13.174-13.18h.043a1.143 1.143 0 10.043-2.286C16.41 0 16.206 0 16 0a16 16 0 1016 16c0-.207 0-.413-.013-.618z" fill="#fff"></path>
  <path d="M19.428 9.143h-2.286a3.428 3.428 0 00-3.428 3.428v6.857a3.429 3.429 0 003.428 3.429h2.286a3.429 3.429 0 003.429-3.429v-6.857a3.428 3.428 0 00-3.429-3.428zm1.143 10.285a1.143 1.143 0 01-1.143 1.143h-2.286A1.143 1.143 0 0116 19.428v-6.857a1.143 1.143 0 011.142-1.143h2.286a1.143 1.143 0 011.143 1.143v6.857zM9.142 10.285v11.429a1.143 1.143 0 102.285 0V10.285a1.143 1.143 0 00-2.285 0z" fill="#fff"></path>
</svg>
