<?xml version="1.0" encoding="UTF-8"?>
<svg xmlns="http://www.w3.org/2000/svg" width="40" height="40" fill="none">
  <path d="M29.279.444h-7.641c-7.108 0-10.278 3.17-10.278 10.278v.637h-.637C3.615 11.36.445 14.53.445 21.637v7.64c0 7.108 3.17 10.278 10.278 10.278h7.64c7.109 0 10.279-3.17 10.279-10.277v-.637h.637c7.107 0 10.277-3.17 10.277-10.278v-7.64c0-7.109-3.17-10.279-10.277-10.279zm-3.366 26.832v2.002c0 5.644-1.905 7.549-7.55 7.549h-7.64c-5.644 0-7.549-1.905-7.549-7.55v-7.64c0-5.644 1.905-7.55 7.55-7.55h7.64c5.644 0 7.549 1.906 7.549 7.55v5.64zm10.915-8.913c0 5.644-1.906 7.549-7.55 7.549h-.636v-4.275c0-7.108-3.17-10.278-10.278-10.278h-4.275v-.637c0-5.644 1.905-7.549 7.549-7.549h7.64c5.645 0 7.55 1.905 7.55 7.55v7.64zM20.822 20.95a1.364 1.364 0 010 1.93l-7.085 7.084a1.36 1.36 0 01-1.93 0l-3.542-3.542a1.364 1.364 0 111.929-1.93l2.578 2.578 6.121-6.12a1.364 1.364 0 011.93 0z" fill="#282753"></path>
</svg>
