<?xml version="1.0" encoding="UTF-8"?>
<svg xmlns="http://www.w3.org/2000/svg" width="258" height="364" viewBox="0 0 258 364" fill="none">
  <path d="M193.085 64.0877C154.91 24.6027 112.374 8.48578 96.7983 3.60188C87.1403 0.569789 80.2466 0 73.9263 0C33.0965 0 0 32.8985 0 73.4756C0 107.005 22.9198 134.267 53.5046 144.089C55.443 144.713 72.1858 151.136 86.4714 165.91C95.9929 175.753 102.463 187.216 106.251 200.939C111.807 221.051 111.521 245.843 105.2 274.577C104.067 279.719 103.433 285.044 103.433 290.524C103.433 331.102 136.536 364 177.366 364C212.619 364 242.385 339.391 249.49 306.655C250.63 301.418 252.015 294.493 252.916 289.27C260.854 243.374 259.496 200.654 248.842 162.051C238.508 124.621 219.752 91.6614 193.091 64.0944L193.085 64.0877Z" fill="#D1EBFF"></path>
</svg>
