<?xml version="1.0" encoding="UTF-8"?>
<svg xmlns="http://www.w3.org/2000/svg" width="31" height="31" fill="none">
  <path d="M21.7.2c.747 0 1.35.605 1.35 1.35V3.3h3.3a4.455 4.455 0 014.45 4.451v18.6a4.454 4.454 0 01-4.45 4.449H4.65A4.454 4.454 0 01.2 26.35V7.752a4.454 4.454 0 014.45-4.45h3.3v-.2l.001-1.55a1.35 1.35 0 012.7 0V3.3h9.7v-.2l-.001-1.55c0-.746.603-1.35 1.35-1.35zM4.65 6c-.966 0-1.75.786-1.75 1.751v18.6c0 .964.787 1.75 1.751 1.75h21.7c.966 0 1.75-.786 1.75-1.75L28.1 7.75c0-.964-.785-1.75-1.751-1.75h-3.3v1.751a1.35 1.35 0 11-2.7 0V6H10.65v1.751a1.35 1.35 0 01-1.35 1.35l-.138-.007a1.35 1.35 0 01-1.21-1.343V6H4.648z" fill="#fff" stroke="#282753" stroke-width=".4"></path>
  <path d="M16.06 11.952c.217 0 .417.057.56.204.142.146.195.348.195.568v9.766c-.014.28-.112.523-.307.712h-.001c-.207.21-.475.31-.786.31-.314 0-.587-.1-.803-.31l-.005-.005c-.208-.214-.303-.496-.303-.822v-7.094l-.293.235a1.204 1.204 0 01-.772.28.925.925 0 01-.587-.201l-.007-.005-.007-.006c-.176-.167-.248-.403-.248-.67 0-.228.063-.433.2-.601l.005-.008a4.54 4.54 0 01.453-.432l.002-.002 1.775-1.46.002-.002c.187-.15.338-.262.452-.332l.007-.004a.945.945 0 01.468-.12z" fill="#fff" stroke="#282753" stroke-width=".4"></path>
</svg>
