<?xml version="1.0" encoding="UTF-8"?>
<svg xmlns="http://www.w3.org/2000/svg" width="33" height="32" fill="none">
  <path d="M27.378 9.854a2.819 2.819 0 012.818 2.82v16.91h.805a1.207 1.207 0 110 2.416H1.208a1.207 1.207 0 110-2.416h1.628v-5.648a2.819 2.819 0 012.818-2.818h4.831c.137 0 .272.013.404.031v-2.034a2.819 2.819 0 012.818-2.818h4.831c.425 0 .828.097 1.19.265v-3.888a2.82 2.82 0 012.818-2.82h4.832zM5.654 23.534a.404.404 0 00-.402.402v5.648h5.637v-5.648a.404.404 0 00-.404-.403h-4.83zm8.053-4.821a.403.403 0 00-.402.402v10.469h5.636V19.115a.403.403 0 00-.403-.402h-4.831zm8.839-6.443a.404.404 0 00-.402.404v16.91h5.636v-16.91a.403.403 0 00-.402-.403h-4.832zM22.63 0c.846 0 1.53.686 1.53 1.53v4.603a1.209 1.209 0 01-2.416 0V4.065c-4.878 5.453-10.618 8.897-17.21 10.267a1.207 1.207 0 01-.492-2.366c6.051-1.256 11.358-4.418 15.937-9.55h-1.952a1.209 1.209 0 010-2.416h4.603z" fill="#fff"></path>
</svg>
