<?xml version="1.0" encoding="UTF-8"?>
<svg xmlns="http://www.w3.org/2000/svg" width="40" height="42" fill="none">
  <path d="M.445 28.607c0 1.418.554 2.737 1.53 3.69a5.144 5.144 0 003.717 1.557H13.8v1.43a6.207 6.207 0 006.2 6.201 6.207 6.207 0 006.201-6.2v-1.431h7.897c2.82 0 5.21-2.102 5.44-4.788.132-1.573-.43-3.095-1.512-4.146a5.106 5.106 0 00-1.86-1.214l.849-15.403a7.162 7.162 0 00-1.81-5.48A7.157 7.157 0 0029.902.467H10.1c-2.017 0-3.95.858-5.302 2.356C3.444 4.32 2.785 6.33 2.985 8.271l.852 15.462C1.86 24.502.445 26.42.445 28.607zM6.92 4.742a4.294 4.294 0 013.18-1.414h.819v8.109a1.431 1.431 0 002.862 0V3.328h4.789v2.385a1.431 1.431 0 002.861 0V3.328h8.471c1.21 0 2.368.516 3.18 1.414a4.234 4.234 0 011.082 3.306c-.003.022-.004.044-.006.067l-.84 15.246H6.682L5.837 8.048A4.234 4.234 0 016.92 4.742zM5.47 26.233c.03-.001.192-.005.22-.01h28.62l.244.012c.543.047 1.034.28 1.45.708.501.487.743 1.157.683 1.882-.103 1.194-1.263 2.167-2.588 2.167H24.77c-.79 0-1.43.64-1.43 1.43v2.863A3.343 3.343 0 0120 38.623a3.343 3.343 0 01-3.338-3.338v-2.862c0-.79-.641-1.431-1.43-1.431h-9.54c-.64 0-1.23-.246-1.692-.72a2.302 2.302 0 01-.693-1.665c0-1.209.95-2.252 2.164-2.373z" fill="#282753"></path>
</svg>
