<?xml version="1.0" encoding="UTF-8"?>
<svg xmlns="http://www.w3.org/2000/svg" width="427" height="269" fill="none">
  <g clip-path="url(#clip0_17_5105)">
    <path d="M322.372 38.793c-27.379 3.85-29.227-9.283-56.605-5.432-27.378 3.857-26.787 8.033-54.173 11.891-27.378 3.858-27.681 1.722-55.059 5.58-27.378 3.858-17.052 77.21-44.431 81.068-27.378 3.857-30.904-21.152-58.282-17.294-24.717 3.48-19.233 19.718-31.03 38.756-16.675 26.909-20.97 24.249-37.645 51.158-16.675 26.909-34.097 16.119-50.772 43.028-12.721 20.531-39.153 50.012-28.606 69.021 9.728 17.523 39.493 56.516 63.56 61.985 25.028 5.691 23.328 13.178 48.356 18.861 25.027 5.691 33.631-32.149 58.659-26.458 25.028 5.69 35.11-38.661 60.138-32.97 25.027 5.691 22.573 16.488 47.601 22.179 25.028 5.691 23.697 11.559 48.725 17.25 25.028 5.691 24.089 9.822 49.124 15.513 21.961 4.989 25.804-7.553 43.67-16.821 19.491-10.103 19.632-5.366 23.579-26.451 5.018-26.806-3.23-28.351 1.788-55.156 5.019-26.806 12.411-25.424 17.422-52.23 5.019-26.806 42.11-11.958 47.129-38.771 5.019-26.806-19.174-39.237-14.155-66.043 3.075-16.444 28.088-37.197 19.484-50.241-8.604-13.044-23.202-40.611-38.569-46.716-13.867-5.514-43.285-4.043-59.923-1.7l.015-.007z" stroke="#282753" stroke-width="4" stroke-miterlimit="10"></path>
  </g>
  <defs>
    <clipPath id="clip0_17_5105">
      <path fill="#fff" transform="rotate(-180 213.5 134.5)" d="M0 0h427v269H0z"></path>
    </clipPath>
  </defs>
</svg>
