<?xml version="1.0" encoding="UTF-8"?>
<svg xmlns="http://www.w3.org/2000/svg" width="34" height="30" fill="none">
  <path d="M16.78.15c1.647 0 3.17.872 3.989 2.286v0L32.775 23.02a4.53 4.53 0 01-.014 4.544 4.631 4.631 0 01-3.974 2.286H4.77a4.541 4.541 0 01-3.982-2.268l-.002-.003a4.396 4.396 0 01.045-4.625l.003-.005 5.959-10.228L12.79 2.437h.001A4.608 4.608 0 0116.78.15zm0 2.65c-.692 0-1.333.362-1.684.954v0L9.098 14.052 3.09 24.344a1.84 1.84 0 00-.002 1.91v0a1.87 1.87 0 001.682.96v0h24.018v0a1.872 1.872 0 001.682-.96h-.001c.33-.553.35-1.231.06-1.799l-.062-.112-6.003-10.292-5.997-10.296-.001-.001-.07-.108A1.96 1.96 0 0016.78 2.8zm.006 4.231c1.432 0 2.685 1.124 2.674 2.497l-.005.134-.577 9.062a1.698 1.698 0 01-1.707 1.573h-.213a1.71 1.71 0 01-1.697-1.523l-.001-.003-1.144-9.118-.012-.132c-.04-.656.246-1.258.721-1.709a2.894 2.894 0 011.961-.78zm-1.46 16.29a1.786 1.786 0 01.53-1.279c.344-.34.81-.53 1.296-.527h.011l.137.005a1.82 1.82 0 011.538 1.117 1.79 1.79 0 01-.402 1.96 1.84 1.84 0 01-1.986.388 1.806 1.806 0 01-1.125-1.664v0z" fill="#fff" stroke="#282753" stroke-width=".3"></path>
</svg>
