<?xml version="1.0" encoding="UTF-8"?>
<svg xmlns="http://www.w3.org/2000/svg" width="258" height="364" fill="none">
  <path d="M193.085 64.088C154.91 24.603 112.374 8.486 96.798 3.602 87.14.57 80.247 0 73.926 0 33.096 0 0 32.898 0 73.476c0 33.529 22.92 60.791 53.505 70.613 1.938.624 18.68 7.047 32.966 21.821 9.522 9.843 15.992 21.306 19.78 35.029 5.556 20.112 5.27 44.904-1.051 73.638-1.133 5.142-1.767 10.467-1.767 15.947 0 40.578 33.103 73.476 73.933 73.476 35.253 0 65.019-24.609 72.124-57.345 1.14-5.237 2.525-12.162 3.426-17.385 7.938-45.896 6.58-88.616-4.074-127.219-10.334-37.43-29.09-70.39-55.751-97.957l-.006-.006z" fill="#D1EBFF"></path>
</svg>
