<?xml version="1.0" encoding="UTF-8"?>
<svg xmlns="http://www.w3.org/2000/svg" width="34" height="34" fill="none">
  <path d="M15.362.05c4.09 0 7.935 1.594 10.827 4.486a15.208 15.208 0 014.487 10.826c0 1.889-.338 3.72-1.005 5.461l-.018.047.047.018 3.324 1.272.002.003.014.006a1.418 1.418 0 01-.067 2.67l-6.113 1.992-.023.008-.008.023-1.991 6.112c-.186.57-.712.962-1.31.976h-.04c-.583 0-1.11-.36-1.321-.909l-1.28-3.34-.018-.047-.047.018a15.221 15.221 0 01-5.46 1.005A15.212 15.212 0 014.536 26.19 15.213 15.213 0 01.05 15.362c0-4.089 1.594-7.934 4.486-10.826A15.21 15.21 0 0115.362.05zm3.492 18.864l4.546 11.87.05.132.044-.135 1.637-5.026a.978.978 0 01.627-.627l5.027-1.637.134-.044-.132-.05-11.869-4.547-.104-.04.04.104zM12 21.15c.224 1.487.538 2.854.93 4.04l.012.036.001-.001c.398 1.191.84 2.059 1.26 2.63.212.289.42.504.614.647.195.143.381.216.548.216.192 0 .418-.101.66-.308.244-.207.51-.525.78-.969.54-.886 1.104-2.281 1.557-4.32l.003-.015-.006-.014-.753-1.967-.012-.032h-5.603l.009.057zm7.49 5.14a12.68 12.68 0 01-.876 1.941l-.057.103.114-.03c.491-.126.976-.279 1.453-.462l.046-.019-.018-.046-.569-1.488-.048-.125-.046.126zM3.336 21.165a13.418 13.418 0 008.723 7.138l.114.029-.058-.102c-.991-1.74-1.693-4.265-2.093-7.094l-.005-.043H3.303l.034.072zm-.795-9.545a13.34 13.34 0 00-.533 3.741c0 1.298.186 2.553.533 3.74l.01.037h7.242l-.005-.055a43.149 43.149 0 01-.16-3.722c0-1.25.054-2.502.16-3.722l.005-.055h-7.24l-.011.036zm9.213.01a41.092 41.092 0 00-.166 3.731c0 1.28.054 2.533.164 3.732l.005.045h5.086l-.026-.068-.262-.687a1.418 1.418 0 01.308-1.494h.001l.015-.015a1.421 1.421 0 011.404-.357l.099.033.67.257.066.025.002-.07c.013-.46.022-.929.022-1.4 0-1.282-.056-2.534-.166-3.732l-.003-.046h-7.215l-.004.046zm9.181.003v.002h0v.005a44.28 44.28 0 01.107 5.896l-.001.035.034.013 4.049 1.55.009.004h3.045l.01-.036c.351-1.208.532-2.46.532-3.74a13.34 13.34 0 00-.535-3.742l-.011-.036h-7.238v.049zm-8.88-9.214a13.409 13.409 0 00-8.721 7.137l-.034.071h6.715l.005-.043c.4-2.828 1.102-5.352 2.093-7.092l.042-.075h-.088v-.001l-.011.003zm3.306-.415c-.167 0-.353.073-.547.216a2.996 2.996 0 00-.615.646c-.424.578-.87 1.456-1.271 2.666-.393 1.185-.706 2.551-.93 4.037l-.009.058h6.745l-.008-.058c-.225-1.486-.537-2.852-.93-4.037-.402-1.21-.848-2.088-1.273-2.666a2.999 2.999 0 00-.615-.646c-.194-.143-.38-.216-.547-.216zm3.25.488c.992 1.74 1.692 4.264 2.092 7.092l.006.043h6.638v-.05l.043-.021a13.411 13.411 0 00-8.723-7.137l-.114-.03.058.103z" fill="#fff" stroke="#282753" stroke-width=".1"></path>
</svg>
