<?xml version="1.0" encoding="UTF-8"?>
<svg xmlns="http://www.w3.org/2000/svg" width="40" height="40" fill="none">
  <path d="M20 .444C9.219.444.446 9.217.446 20c0 10.783 8.773 19.555 19.556 19.555 10.783 0 19.555-8.772 19.555-19.555S30.784.444 20.001.444zm0 36.383c-9.278 0-16.826-7.548-16.826-16.827 0-9.279 7.548-16.827 16.827-16.827 9.278 0 16.827 7.548 16.827 16.827 0 9.279-7.549 16.827-16.827 16.827zm6.37-17.98l-1.672-.412 1.398-5.662c.46-1.862-.286-2.7-.771-3.034-.485-.334-1.533-.734-3.109.362L12.8 16.64c-1.434.996-1.398 2.133-1.316 2.576.081.442.454 1.517 2.147 1.936l.002.002 1.672.412-1.398 5.662c-.46 1.861.286 2.7.77 3.034.246.169.637.355 1.166.355.515 0 1.165-.177 1.944-.718l9.417-6.537c1.433-.997 1.398-2.134 1.316-2.576-.082-.442-.455-1.517-2.15-1.938zm-9.68 8.49l1.591-6.442a1.366 1.366 0 00-.998-1.652l-2.546-.629 8.575-5.951-1.591 6.442c-.18.732.266 1.47.998 1.652l2.546.629-8.576 5.95z" fill="#282753"></path>
</svg>
