<?xml version="1.0" encoding="UTF-8"?>
<svg xmlns="http://www.w3.org/2000/svg" width="143" height="98" fill="none">
  <path d="M51.588 17.263C41.491 6.636 30.236 2.295 26.117.978 23.565.166 21.743.01 20.066.01 9.258 0 .5 8.858.5 19.788c0 9.033 6.06 16.369 14.153 19.014.51.166 4.939 1.899 8.72 5.871 2.516 2.654 4.23 5.733 5.232 9.428 1.467 5.41 1.394 12.093-.274 19.825-.3 1.383-.464 2.82-.464 4.295C27.867 89.143 36.624 98 47.423 98c9.323 0 17.206-6.627 19.083-15.438.301-1.41.666-3.272.912-4.682 2.096-12.36 1.74-23.861-1.076-34.248-2.734-10.074-7.7-18.95-14.754-26.378v.01zM122.877 0c-1.667 0-3.499.157-6.051.968-4.119 1.318-15.374 5.659-25.471 16.285-7.054 7.42-12.02 16.295-14.754 26.378-2.816 10.396-3.18 21.898-1.076 34.249.237 1.41.611 3.272.912 4.682 1.877 8.81 9.75 15.437 19.083 15.437 10.799 0 19.556-8.857 19.556-19.778 0-1.475-.164-2.913-.464-4.295-1.677-7.742-1.75-14.415-.274-19.825 1.003-3.696 2.716-6.783 5.231-9.428 3.782-3.982 8.211-5.706 8.721-5.871 8.093-2.646 14.153-9.982 14.153-19.014 0-10.922-8.758-19.779-19.557-19.779L122.877 0z" fill="#292753"></path>
</svg>
