<?xml version="1.0" encoding="UTF-8"?>
<svg xmlns="http://www.w3.org/2000/svg" width="710" height="501" viewBox="0 0 710 501" fill="none">
  <path d="M139.55 489.032C176.59 483.822 179.09 501.592 216.13 496.382C253.17 491.162 252.37 485.512 289.42 480.292C326.46 475.072 326.87 477.962 363.91 472.742C400.95 467.522 386.98 368.272 424.02 363.052C461.06 357.832 465.83 391.672 502.87 386.452C536.31 381.742 528.89 359.772 544.85 334.012C567.41 297.602 573.22 301.202 595.78 264.792C618.34 228.382 641.91 242.982 664.47 206.572C681.68 178.792 717.44 138.902 703.17 113.182C690.01 89.4716 649.74 36.7116 617.18 29.3116C583.32 21.6116 585.62 11.4816 551.76 3.79159C517.9 -3.90841 506.26 47.2916 472.4 39.5916C438.54 31.8916 424.9 91.9016 391.04 84.2016C357.18 76.5016 360.5 61.8916 326.64 54.1916C292.78 46.4916 294.58 38.5516 260.72 30.8516C226.86 23.1516 228.13 17.5616 194.26 9.86159C164.55 3.11159 159.35 20.0816 135.18 32.6216C108.81 46.2916 108.62 39.8816 103.28 68.4116C96.4904 104.682 107.65 106.772 100.86 143.042C94.0704 179.312 84.0704 177.442 77.2904 213.712C70.5004 249.982 20.3204 229.892 13.5304 266.172C6.74039 302.442 39.4704 319.262 32.6804 355.532C28.5204 377.782 -5.31961 405.862 6.32039 423.512C17.9604 441.162 37.7104 478.462 58.5004 486.722C77.2604 494.182 117.06 492.192 139.57 489.022L139.55 489.032Z" stroke="#292753" stroke-width="6" stroke-miterlimit="10"></path>
</svg>
